G04 GENERATED BY PULSONIX 11.0 GERBER.DLL 8466*
G04 #@! TF.GenerationSoftware,Pulsonix,Pulsonix,11.0.8467*
G04 #@! TF.CreationDate,2021-12-19T21:00:55+00:00*
G04 #@! TF.Part,Single*
%FSLAX24Y24*%
%LPD*%
%MOIN*%
G04 #@! TF.FileFunction,Copper,L4,Bot*
G04 #@! TF.FilePolarity,Positive*
G04 #@! TA.AperFunction,ViaPad*
%ADD86C,0.0315X0.0157*%
%ADD87C,0.0512X0.0315*%
G04 #@! TA.AperFunction,Conductor*
%ADD88C,0.0118*%
%ADD89C,0.0315*%
G04 #@! TD.AperFunction*
%ADD90C,0.0984*%
G04 #@! TA.AperFunction,SMDPad,CuDef*
%ADD91R,0.0945X0.1102*%
G04 #@! TD.AperFunction*
%ADD92C,0.0551*%
%ADD93C,0.0748*%
%ADD94C,0.0669*%
%ADD95C,0.0500*%
G04 #@! TA.AperFunction,SMDPad,CuDef*
%ADD96R,0.0240X0.0539*%
G04 #@! TA.AperFunction,ComponentPad*
%ADD97C,0.1358X0.0906*%
G04 #@! TA.AperFunction,OtherCopper,Copper*
%ADD131C,0.0001*%
%ADD132C,0.0157*%
G04 #@! TD.AperFunction*
X0Y0D02*
D02*
D86*
X3436Y53888D03*
X4196Y26907D03*
X4423Y69585D03*
X4461Y39740D03*
X4834Y59275D03*
X5113Y33124D03*
X5290Y34973D03*
X5509Y23921D03*
X5694Y57808D03*
X6063Y46297D03*
X6429Y65765D03*
X6943Y61966D03*
X7047Y42134D03*
X7121Y35710D03*
X7294Y67598D03*
X7425Y50830D03*
X8406Y25197D03*
X8996Y23524D03*
Y31595D03*
X9581Y46592D03*
X9667Y33026D03*
X10187Y41580D03*
X10451Y64862D03*
X10711Y21336D03*
X11162Y35295D03*
Y37953D03*
X11752Y23524D03*
Y31595D03*
X11925Y53835D03*
X12100Y40373D03*
X12473Y70134D03*
X12599Y66190D03*
X12742Y32722D03*
X12838Y43258D03*
X12933Y23524D03*
Y31575D03*
X13701Y55645D03*
X14083Y46856D03*
X15295Y23524D03*
Y31614D03*
X15689Y23524D03*
Y31595D03*
X15944Y43011D03*
X15945Y25197D03*
X16352Y58374D03*
X16625Y66930D03*
X16978Y61784D03*
X17473Y33670D03*
X18488Y69586D03*
X18574Y31092D03*
X18730Y50210D03*
X19094Y51967D03*
X19523Y25531D03*
X19638Y46674D03*
X19772Y64780D03*
X19854Y40186D03*
X20339Y62875D03*
X20409Y27702D03*
X20669Y41831D03*
Y44567D03*
X20916Y32864D03*
X22559Y62540D03*
X22630Y52990D03*
X22795Y56693D03*
X22815Y53937D03*
X22838Y58057D03*
X22884Y24153D03*
X22990Y70009D03*
X23209Y70925D03*
X23347Y33977D03*
Y36752D03*
Y39331D03*
X23721Y29528D03*
X23809Y59849D03*
X24095Y26772D03*
X24218Y35984D03*
X24277Y72653D03*
X24843Y26772D03*
Y29528D03*
X24862Y40020D03*
X24882Y46044D03*
Y56697D03*
X24902Y52421D03*
X24912Y35689D03*
Y41713D03*
X25464Y25720D03*
X25773Y30718D03*
X25847Y50748D03*
X25984Y40630D03*
X26024Y46654D03*
X26358Y39331D03*
X26398Y53937D03*
X26932Y41179D03*
X27362Y62540D03*
X27402Y46346D03*
X27559Y54921D03*
X27648Y23894D03*
X27697Y36752D03*
X28032Y45394D03*
X28071Y37264D03*
X28169Y70925D03*
X28324Y30459D03*
X28484Y57343D03*
X28799Y45394D03*
X28922Y65857D03*
X29134Y58544D03*
X29189Y52736D03*
X29478Y58802D03*
X29666Y44095D03*
X29784Y46929D03*
Y60236D03*
Y62559D03*
Y64882D03*
X30079Y37362D03*
Y38445D03*
X30199Y40146D03*
X30295Y51516D03*
X30591Y42795D03*
X30610Y45394D03*
X30629Y46129D03*
X30671Y68869D03*
X31319Y35433D03*
Y42323D03*
X31497Y22485D03*
X31673Y35807D03*
X31997Y27909D03*
X32264Y34488D03*
X32284Y40689D03*
X32618Y37481D03*
X32638Y43662D03*
X33071Y63898D03*
X33248Y38662D03*
X33268Y44862D03*
X33838Y47583D03*
X34173Y35807D03*
X34576Y57240D03*
X34766Y24384D03*
X35277Y46038D03*
X35319Y28723D03*
X35374Y69390D03*
Y70394D03*
Y71398D03*
X35630Y23484D03*
X35667Y33533D03*
X35886Y22225D03*
X36004Y23858D03*
X36103Y63898D03*
X36116Y66364D03*
X36378Y24606D03*
X36870Y24232D03*
X37315Y68579D03*
X38347Y23484D03*
X38839Y23858D03*
X40197Y24606D03*
X40571Y24232D03*
X41213Y26264D03*
X42183Y51373D03*
X42444Y30798D03*
X42460Y41754D03*
X43797Y50188D03*
X44074Y45298D03*
X44092Y24202D03*
X44148Y72651D03*
X44469Y70414D03*
Y71398D03*
X44905Y36097D03*
X46118Y22846D03*
X46337Y56822D03*
X46340Y15248D03*
X46934Y71843D03*
X47003Y40922D03*
X47073Y36321D03*
X47529Y30310D03*
X47553Y42817D03*
X47566Y49185D03*
X47933Y49626D03*
X48409Y26217D03*
X48615Y71052D03*
X48694Y53463D03*
X49252Y59252D03*
X49547Y53406D03*
X49617Y11573D03*
X49626Y70276D03*
X50197Y11811D03*
Y31496D03*
X50270Y15484D03*
X50555Y39559D03*
X50583Y62481D03*
X50984Y11614D03*
Y34646D03*
X51378Y11811D03*
Y34843D03*
X51586Y4950D03*
X51655Y43605D03*
X51772Y11614D03*
X51961Y47298D03*
X52136Y64641D03*
X52166Y11811D03*
Y31496D03*
X52234Y25784D03*
X52559Y11614D03*
X52781Y58433D03*
X52883Y53849D03*
X52953Y11811D03*
Y31496D03*
X53169Y44975D03*
X53322Y35593D03*
X53347Y11614D03*
X53680Y44551D03*
X53740Y11831D03*
Y31496D03*
X54134Y11614D03*
Y31299D03*
X54190Y54013D03*
X54528Y11811D03*
Y31496D03*
Y47855D03*
X54949Y61915D03*
X55193Y10824D03*
X55315Y11614D03*
Y31496D03*
Y34646D03*
X55374Y49646D03*
X55480Y37645D03*
X55709Y11811D03*
Y34843D03*
X55925Y53406D03*
X55985Y65758D03*
X56103Y11614D03*
Y34646D03*
X56496Y11811D03*
Y34843D03*
X56890Y11614D03*
Y34646D03*
X56923Y70834D03*
X56987Y6683D03*
X56988Y57028D03*
X57134Y57845D03*
X57224Y47766D03*
X57540Y53406D03*
X58511Y12157D03*
X58603Y5702D03*
X58726Y17050D03*
X58765Y66823D03*
X59036Y50144D03*
X59090Y22719D03*
X59154Y39370D03*
X59331Y47736D03*
X59636Y58957D03*
X60356Y29395D03*
X60428Y70707D03*
X60851Y50801D03*
X60945Y47736D03*
X61111Y26484D03*
X61221Y66732D03*
X61653Y56534D03*
X62264Y45473D03*
X62343Y60668D03*
X62481Y53166D03*
Y54173D03*
Y54666D03*
X62708Y32536D03*
X62825Y25203D03*
X62973Y64410D03*
X63130Y58386D03*
X63314Y59812D03*
X63707Y43036D03*
X64253Y24726D03*
X64311Y34281D03*
X64508Y46673D03*
X64587Y64429D03*
X64666Y35807D03*
X64744Y58386D03*
X65151Y38344D03*
X65180Y67812D03*
X65276Y46673D03*
X65847Y53666D03*
X65866Y54173D03*
X65945Y60788D03*
X66437Y58406D03*
X66720Y21138D03*
X67736Y53662D03*
X68524Y58406D03*
Y60788D03*
X68599Y69606D03*
X68714Y55576D03*
X68812Y67261D03*
X68923Y27445D03*
X69097Y34611D03*
X69272Y58406D03*
Y60788D03*
X69508Y69764D03*
X69685Y31890D03*
X69784Y22697D03*
X69961Y66339D03*
X70473Y28347D03*
X70512Y66339D03*
Y69764D03*
X71044Y49902D03*
X71162Y44475D03*
X71184Y33732D03*
X71299Y46750D03*
X71516Y69764D03*
X71772Y44351D03*
X71929Y42047D03*
X71949Y39764D03*
X72166Y50492D03*
X72266Y53075D03*
X72520Y69764D03*
X73021Y23151D03*
X73504Y69764D03*
X73583Y42047D03*
X73739Y38494D03*
X74528Y69764D03*
X74666Y40847D03*
Y41839D03*
X74843Y35650D03*
X75000Y56693D03*
Y60197D03*
X75237Y33520D03*
X75469Y59231D03*
X75512Y69764D03*
X76201Y65000D03*
X76490Y21988D03*
X76516Y69764D03*
X76539Y27891D03*
X77877Y38614D03*
X78091Y39839D03*
Y41839D03*
X78110Y35669D03*
X78169Y57579D03*
X78272Y53713D03*
X78371Y33651D03*
X78504Y40847D03*
X78682Y49384D03*
X79523Y64846D03*
X79941Y43858D03*
X80345Y26763D03*
X80453Y38839D03*
Y41162D03*
X81673Y32933D03*
X81720Y62669D03*
X82047Y29390D03*
X82303Y54232D03*
X82360Y57104D03*
X82677Y56693D03*
X83051Y69784D03*
X83733Y60942D03*
X83740Y60236D03*
X84036Y69784D03*
X84525Y38128D03*
X84646Y63780D03*
X85020Y69784D03*
X85737Y66655D03*
X86024Y69784D03*
X86044Y55276D03*
X86488Y56519D03*
X86673Y32658D03*
X87028Y69784D03*
X87233Y26929D03*
X87520Y46851D03*
Y65748D03*
X87658Y29567D03*
X87851Y38997D03*
X88051Y69784D03*
X88272Y24149D03*
X88740Y46870D03*
X88799Y28977D03*
X89055Y69784D03*
X89067Y37184D03*
X89114Y64784D03*
X90040Y69784D03*
X90044Y65748D03*
X90141Y63944D03*
X90414Y32579D03*
X90577Y42551D03*
X91024Y69784D03*
X91044Y66280D03*
X91319Y38366D03*
X91457Y33169D03*
X91496Y54232D03*
X91555Y55276D03*
X91821Y55805D03*
X91851Y36614D03*
X92011Y47478D03*
X92047Y69784D03*
X92081Y50589D03*
X92618Y58662D03*
X92837Y44272D03*
X92952Y25131D03*
X93032Y69784D03*
X93092Y46238D03*
X93347Y42559D03*
X93563Y25512D03*
X93678Y33922D03*
X93957Y29567D03*
Y30591D03*
X94044Y69784D03*
X95564Y22999D03*
X96129Y21221D03*
X96162Y55906D03*
X97677Y70000D03*
X97780Y47111D03*
X97938Y67342D03*
X98437Y27318D03*
X98557Y68616D03*
X98615Y44365D03*
X98975Y37366D03*
X100706Y58099D03*
X101660Y40177D03*
X101752Y51969D03*
Y52973D03*
Y53957D03*
Y54961D03*
Y55965D03*
X101769Y50237D03*
X102138Y66370D03*
X102984Y57599D03*
X103698Y71905D03*
X103716Y25492D03*
X104080Y35824D03*
D02*
D87*
X90551Y60807D03*
X90571Y63071D03*
X90807Y27697D03*
X92106Y63819D03*
X92914Y63504D03*
X93957Y60689D03*
X95335Y40906D03*
X96260Y46437D03*
X98209Y36782D03*
X98229Y60788D03*
Y63071D03*
X99784Y63819D03*
X99862Y26162D03*
X100591Y63504D03*
X101634Y60689D03*
X101831Y26162D03*
X101969Y48327D03*
X103445Y64941D03*
D02*
D88*
X15807Y25197D02*
X8544D01*
X22697Y62540D02*
X27225D01*
X22933Y56693D02*
X23858D01*
Y56697D01*
X24744D01*
X23484Y33977D02*
X27571D01*
X28071Y34477D01*
Y37126D01*
X23484Y39331D02*
X26221D01*
X24705Y26772D02*
X24232D01*
X24705Y29528D02*
X23858D01*
X26260Y53937D02*
X22953D01*
X27559Y36752D02*
X23484D01*
X28662Y45394D02*
X28169D01*
X31319Y42185D02*
Y35571D01*
X33209Y63898D02*
X35965D01*
X34036Y35807D02*
X31811D01*
X35768Y23484D02*
X38209D01*
X36516Y24606D02*
X40059D01*
X38701Y23858D02*
X36142D01*
X40433Y24232D02*
X37008D01*
X49252Y59114D02*
Y57284D01*
X49508Y57028D01*
X56851D01*
X50197Y12559D02*
X50591D01*
X50197D02*
Y11949D01*
Y12559D02*
Y13780D01*
X50551D01*
X50591Y13819D01*
X50197Y13780D02*
Y13819D01*
X50591Y12559D02*
Y13819D01*
X50984Y11752D02*
Y12559D01*
Y13819D02*
Y34508D01*
X51378Y11949D02*
Y12559D01*
Y13819D02*
Y34705D01*
X51772Y11752D02*
Y12559D01*
X52166D02*
Y11949D01*
Y12559D02*
Y13819D01*
X52559D01*
X52166D02*
X51772D01*
X52559Y11752D02*
Y12559D01*
Y13819D02*
X52953D01*
X52579Y37402D02*
X53634D01*
X54134Y36902D01*
Y31437D01*
X52579Y40945D02*
Y44384D01*
X53072Y44877D01*
X52953Y12559D02*
Y11949D01*
Y12559D02*
Y13819D01*
X53347D01*
Y11752D02*
Y12559D01*
Y13819D02*
X53740D01*
Y12559D02*
Y11969D01*
Y12559D02*
Y13819D01*
X54134D01*
Y12559D02*
Y11752D01*
Y13819D02*
X54528D01*
Y12559D02*
Y11949D01*
Y12559D02*
Y13819D01*
X55315Y12559D02*
Y11752D01*
Y13819D02*
Y14154D01*
X54921Y14547D01*
Y34390D01*
X55177Y34646D01*
X55709Y11949D02*
Y12559D01*
Y13819D02*
Y34705D01*
X56103Y11752D02*
Y12559D01*
Y13819D02*
Y34508D01*
X56496Y11949D02*
Y12559D01*
Y13819D02*
Y34705D01*
X56870Y37402D02*
X62244D01*
X68858Y44024D01*
X70512Y45678D01*
Y66201D01*
X56870Y40945D02*
X62429D01*
X69961Y48477D01*
Y66201D01*
X56890Y11752D02*
Y12559D01*
Y13819D02*
Y34508D01*
X60040Y53166D02*
X59626Y52752D01*
Y50430D01*
X59341Y50144D01*
X59173D01*
X60040Y53166D02*
X59636Y53569D01*
Y58819D01*
X60040Y53166D02*
X62343D01*
X64646Y46673D02*
X65138D01*
X65984Y53666D02*
X67599D01*
X66083Y60788D02*
X68386D01*
X66575Y58406D02*
X68386D01*
X73445Y28347D02*
X70610D01*
X73445Y31890D02*
X69823D01*
X75138Y56693D02*
X76201D01*
X75138Y60197D02*
X76201D01*
Y60236D01*
Y63780D02*
Y64862D01*
X78366Y40847D02*
X74803D01*
X78504Y40709D02*
Y40250D01*
X78189Y39935D01*
X81673Y32795D02*
Y32390D01*
X81173Y31890D01*
X77736D01*
X82047Y29252D02*
Y28847D01*
X81547Y28347D01*
X77736D01*
X82441Y54232D02*
X91358D01*
X82540Y56693D02*
X80492D01*
X83603Y60236D02*
X80492D01*
X84508Y63780D02*
X80492D01*
X86181Y55276D02*
X91418D01*
X87382Y46851D02*
X75709D01*
X64763Y35905D01*
X87520Y65886D02*
Y65905D01*
X87737Y66122D01*
X90886D01*
X90946Y66182D01*
X88740Y46732D02*
Y46418D01*
X86181Y43858D01*
X80079D01*
X89212Y64881D02*
X89965Y65635D01*
D02*
D89*
X90807Y27697D02*
X91142Y28032D01*
X102067D01*
X102579Y28544D01*
Y40406D01*
X102079Y40906D01*
X95335D01*
X96260Y46437D02*
X97008D01*
X97402Y45994D01*
X97668Y45729D01*
X102827D01*
X103327Y45229D01*
Y27646D01*
X102827Y27146D01*
X100362D01*
X99862Y26646D01*
Y26162D01*
X103416Y64941D02*
X103445D01*
X103416D02*
X95709D01*
X95000Y64232D01*
Y61122D01*
X94567Y60689D01*
X93957D01*
X103416Y64941D02*
Y64921D01*
X102658Y64164D01*
Y61113D01*
X102234Y60689D01*
X101634D01*
D02*
D90*
X46851Y3544D03*
X60236D03*
D02*
D91*
X52579Y37402D03*
Y40945D03*
X56870Y37402D03*
Y40945D03*
X73445Y28347D03*
Y31890D03*
X76201Y56693D03*
Y60236D03*
Y63780D03*
X77736Y28347D03*
Y31890D03*
X80492Y56693D03*
Y60236D03*
Y63780D03*
D02*
D92*
X100453Y35453D03*
Y37618D03*
D02*
D93*
X51063Y44252D03*
X56024D03*
X59725Y70374D03*
X64685D03*
X98366Y22441D03*
X99937Y44784D03*
X101221Y67969D03*
X103327Y22441D03*
D02*
D94*
X101221Y70000D03*
X101969Y44784D03*
D02*
D95*
X47914Y62772D03*
Y70772D03*
X55906Y62772D03*
Y70772D03*
D02*
D96*
X50197Y12559D03*
Y13819D03*
X50591Y12559D03*
Y13819D03*
X50984Y12559D03*
Y13819D03*
X51378Y12559D03*
Y13819D03*
X51772Y12559D03*
Y13819D03*
X52166Y12559D03*
Y13819D03*
X52559Y12559D03*
Y13819D03*
X52953Y12559D03*
Y13819D03*
X53347Y12559D03*
Y13819D03*
X53740Y12559D03*
Y13819D03*
X54134Y12559D03*
Y13819D03*
X54528Y12559D03*
Y13819D03*
X54921Y12559D03*
Y13819D03*
X55315Y12559D03*
Y13819D03*
X55709Y12559D03*
Y13819D03*
X56103Y12559D03*
Y13819D03*
X56496Y12559D03*
Y13819D03*
X56890Y12559D03*
Y13819D03*
D02*
D97*
X89599Y24914D03*
X94772D03*
D02*
D131*
X46064Y3534D02*
G75*
G03*
X46833Y2756I778J0D01*
G01*
X60217D01*
G75*
G03*
X61023Y3563I0J807D01*
G01*
Y20079D01*
G75*
G02*
X61418Y20473I395J0D01*
G01*
X104331D01*
Y72834D01*
X2756D01*
Y20473D01*
X45669D01*
G75*
G02*
X46064Y20079I0J-394D01*
G01*
Y3543D01*
X46064Y3539D01*
X46064Y3534D01*
Y3534D01*
X15734Y25374D02*
G75*
G02*
X16221Y25197I211J-177D01*
G01*
G75*
G02*
X15734Y25020I-276J0D01*
G01*
X8617D01*
G75*
G02*
X8130Y25197I-211J177D01*
G01*
G75*
G02*
X8617Y25374I276J0D01*
G01*
X15734D01*
X20394Y41831D02*
G75*
G02*
X20945I276J0D01*
G01*
G75*
G02*
X20394I-275J0D01*
G01*
Y44567D02*
G75*
G02*
X20945I276J0D01*
G01*
G75*
G02*
X20394I-275J0D01*
G01*
X27151Y62717D02*
G75*
G02*
X27638Y62540I211J-177D01*
G01*
G75*
G02*
X27151Y62362I-276J0D01*
G01*
X22770D01*
G75*
G02*
X22283Y62540I-211J178D01*
G01*
G75*
G02*
X22770Y62717I276J0D01*
G01*
X27151D01*
X24671Y56874D02*
G75*
G02*
X25158Y56697I211J-177D01*
G01*
G75*
G02*
X24671Y56520I-276J0D01*
G01*
X23896D01*
X23858Y56516D01*
X23007D01*
G75*
G02*
X22520Y56693I-211J177D01*
G01*
G75*
G02*
X23007Y56870I276J0D01*
G01*
X23821D01*
X23858Y56874D01*
X24671D01*
X26187Y54115D02*
G75*
G02*
X26674Y53937I211J-178D01*
G01*
G75*
G02*
X26187Y53760I-276J0D01*
G01*
X23026D01*
G75*
G02*
X22539Y53937I-211J177D01*
G01*
G75*
G02*
X23026Y54115I276J0D01*
G01*
X26187D01*
X27795Y37264D02*
G75*
G02*
X28347I276J0D01*
G01*
G75*
G02*
X28248Y37053I-276J1D01*
G01*
Y34477D01*
G75*
G02*
X28196Y34351I-177J-1D01*
G01*
X27697Y33852D01*
G75*
G02*
X27571Y33799I-127J125D01*
G01*
X23558D01*
G75*
G02*
X23071Y33977I-211J178D01*
G01*
G75*
G02*
X23558Y34154I276J0D01*
G01*
X27498D01*
X27894Y34550D01*
Y36559D01*
G75*
G02*
X27486Y36575I-197J193D01*
G01*
X23558D01*
G75*
G02*
X23071Y36752I-211J177D01*
G01*
G75*
G02*
X23558Y36930I276J0D01*
G01*
X27486D01*
G75*
G02*
X27894Y36946I211J-177D01*
G01*
Y37053D01*
G75*
G02*
X27795Y37264I177J212D01*
G01*
X24632Y29705D02*
G75*
G02*
X25119Y29528I211J-177D01*
G01*
G75*
G02*
X24632Y29350I-276J0D01*
G01*
X23932D01*
G75*
G02*
X23445Y29528I-211J178D01*
G01*
G75*
G02*
X23932Y29705I276J0D01*
G01*
X24632D01*
Y26949D02*
G75*
G02*
X25119Y26772I211J-177D01*
G01*
G75*
G02*
X24632Y26594I-276J0D01*
G01*
X24306D01*
G75*
G02*
X23819Y26772I-211J178D01*
G01*
G75*
G02*
X24306Y26949I276J0D01*
G01*
X24632D01*
X26147Y39508D02*
G75*
G02*
X26634Y39331I211J-177D01*
G01*
G75*
G02*
X26147Y39154I-276J0D01*
G01*
X23558D01*
G75*
G02*
X23071Y39331I-211J177D01*
G01*
G75*
G02*
X23558Y39508I276J0D01*
G01*
X26147D01*
X25709Y40630D02*
G75*
G02*
X26260I276J0D01*
G01*
G75*
G02*
X25709I-275J0D01*
G01*
X25748Y46654D02*
G75*
G02*
X26300I276J0D01*
G01*
G75*
G02*
X25748I-276J0D01*
G01*
X28588Y45571D02*
G75*
G02*
X29075Y45394I211J-177D01*
G01*
G75*
G02*
X28588Y45217I-276J0D01*
G01*
X28243D01*
G75*
G02*
X27756Y45394I-211J177D01*
G01*
G75*
G02*
X28243Y45571I276J0D01*
G01*
X28588D01*
X28858Y58544D02*
G75*
G02*
X29410I276J0D01*
G01*
G75*
G02*
X28858I-276J0D01*
G01*
X29508Y60236D02*
G75*
G02*
X30059I276J0D01*
G01*
G75*
G02*
X29508I-275J0D01*
G01*
X29803Y37362D02*
G75*
G02*
X30355I276J0D01*
G01*
G75*
G02*
X29803I-276J0D01*
G01*
Y38445D02*
G75*
G02*
X30355I276J0D01*
G01*
G75*
G02*
X29803I-276J0D01*
G01*
X29508Y62559D02*
G75*
G02*
X30059I276J0D01*
G01*
G75*
G02*
X29508I-275J0D01*
G01*
Y64882D02*
G75*
G02*
X30059I276J0D01*
G01*
G75*
G02*
X29508I-275J0D01*
G01*
X30315Y42795D02*
G75*
G02*
X30867I276J0D01*
G01*
G75*
G02*
X30315I-276J0D01*
G01*
X30335Y45394D02*
G75*
G02*
X30886I276J0D01*
G01*
G75*
G02*
X30335I-275J0D01*
G01*
X33962Y35985D02*
G75*
G02*
X34449Y35807I211J-178D01*
G01*
G75*
G02*
X33962Y35630I-276J0D01*
G01*
X31885D01*
G75*
G02*
X31568Y35553I-211J178D01*
G01*
G75*
G02*
X31595Y35433I-250J-119D01*
G01*
G75*
G02*
X31043I-276J0D01*
G01*
G75*
G02*
X31142Y35644I276J-1D01*
G01*
Y42112D01*
G75*
G02*
X31043Y42323I177J212D01*
G01*
G75*
G02*
X31595I276J0D01*
G01*
G75*
G02*
X31496Y42112I-276J1D01*
G01*
Y36019D01*
G75*
G02*
X31885Y35985I177J-212D01*
G01*
X33962D01*
X35891Y64075D02*
G75*
G02*
X36378Y63898I211J-177D01*
G01*
G75*
G02*
X35891Y63720I-276J0D01*
G01*
X33282D01*
G75*
G02*
X32795Y63898I-211J178D01*
G01*
G75*
G02*
X33282Y64075I276J0D01*
G01*
X35891D01*
X40439Y24475D02*
G75*
G02*
X40847Y24232I132J-243D01*
G01*
G75*
G02*
X40360Y24055I-276J0D01*
G01*
X39032D01*
G75*
G02*
X39115Y23858I-193J-198D01*
G01*
G75*
G02*
X38628Y23681I-276J0D01*
G01*
X38540D01*
G75*
G02*
X38622Y23484I-194J-196D01*
G01*
G75*
G02*
X38135Y23307I-276J0D01*
G01*
X35841D01*
G75*
G02*
X35354Y23484I-211J177D01*
G01*
G75*
G02*
X35762Y23727I276J0D01*
G01*
G75*
G02*
X36215Y24036I242J132D01*
G01*
X36677D01*
G75*
G02*
Y24429I193J197D01*
G01*
X36589D01*
G75*
G02*
X36102Y24606I-211J177D01*
G01*
G75*
G02*
X36589Y24784I276J0D01*
G01*
X39986D01*
G75*
G02*
X40439Y24475I211J-177D01*
G01*
X32972Y38662D02*
G75*
G02*
X33524I276J0D01*
G01*
G75*
G02*
X32972I-276J0D01*
G01*
X32992Y44862D02*
G75*
G02*
X33544I276J0D01*
G01*
G75*
G02*
X32992I-276J0D01*
G01*
X46240Y3544D02*
G75*
G02*
X47461I611J0D01*
G01*
G75*
G02*
X46240I-610J0D01*
G01*
X47545Y62772D02*
G75*
G02*
X48282I369J0D01*
G01*
G75*
G02*
X47545I-368J0D01*
G01*
Y70772D02*
G75*
G02*
X48282I369J0D01*
G01*
G75*
G02*
X47545I-368J0D01*
G01*
X56777Y57205D02*
G75*
G02*
X57264Y57028I211J-177D01*
G01*
G75*
G02*
X56777Y56850I-276J0D01*
G01*
X49508D01*
G75*
G02*
X49382Y56903I1J178D01*
G01*
X49127Y57158D01*
G75*
G02*
X49075Y57284I125J125D01*
G01*
Y59041D01*
G75*
G02*
X48976Y59252I177J212D01*
G01*
G75*
G02*
X49528I276J0D01*
G01*
G75*
G02*
X49430Y59041I-275J0D01*
G01*
Y57357D01*
X49582Y57205D01*
X56777D01*
X57264Y53406D02*
G75*
G02*
X57815I276J0D01*
G01*
G75*
G02*
X57264I-275J0D01*
G01*
X57067Y11826D02*
G75*
G02*
X57166Y11614I-178J-212D01*
G01*
G75*
G02*
X56619Y11564I-276J0D01*
G01*
G75*
G02*
X56374I-122J247D01*
G01*
G75*
G02*
X55831I-271J50D01*
G01*
G75*
G02*
X55531Y12022I-123J247D01*
G01*
Y12174D01*
G75*
G02*
X55435Y12139I-96J114D01*
G01*
X55195D01*
G75*
G02*
X55091Y12182I1J150D01*
G01*
G75*
G02*
X55042Y12171I-50J107D01*
G01*
X54801D01*
G75*
G02*
X54752Y12182I1J118D01*
G01*
G75*
G02*
X54648Y12139I-105J107D01*
G01*
X54408D01*
G75*
G02*
X54311Y12174I0J151D01*
G01*
Y11826D01*
G75*
G02*
X54410Y11614I-178J-212D01*
G01*
G75*
G02*
X53858I-276J0D01*
G01*
G75*
G02*
X53957Y11826I277J0D01*
G01*
Y12174D01*
G75*
G02*
X53860Y12139I-97J116D01*
G01*
X53620D01*
G75*
G02*
X53524Y12174I0J149D01*
G01*
Y11826D01*
G75*
G02*
X53622Y11614I-178J-211D01*
G01*
G75*
G02*
X53071I-275J0D01*
G01*
G75*
G02*
X53169Y11826I276J1D01*
G01*
Y12174D01*
G75*
G02*
X53073Y12139I-96J114D01*
G01*
X52833D01*
G75*
G02*
X52737Y12174I0J149D01*
G01*
Y11826D01*
G75*
G02*
X52835Y11614I-178J-211D01*
G01*
G75*
G02*
X52283I-276J0D01*
G01*
G75*
G02*
X52382Y11826I277J0D01*
G01*
Y12174D01*
G75*
G02*
X52286Y12139I-96J114D01*
G01*
X52045D01*
G75*
G02*
X51949Y12174I0J149D01*
G01*
Y11826D01*
G75*
G02*
X52048Y11614I-178J-212D01*
G01*
G75*
G02*
X51501Y11564I-276J0D01*
G01*
G75*
G02*
X51256I-122J247D01*
G01*
G75*
G02*
X50709Y11614I-271J50D01*
G01*
G75*
G02*
X50807Y11826I276J1D01*
G01*
Y12174D01*
G75*
G02*
X50711Y12139I-96J114D01*
G01*
X50471D01*
G75*
G02*
X50394Y12161I1J151D01*
G01*
G75*
G02*
X50317Y12139I-78J129D01*
G01*
X50077D01*
G75*
G02*
X49927Y12289I0J150D01*
G01*
Y12829D01*
G75*
G02*
X50077Y12978I150J0D01*
G01*
X50317D01*
G75*
G02*
X50394Y12957I0J-150D01*
G01*
G75*
G02*
X50471Y12978I77J-129D01*
G01*
X50711D01*
G75*
G02*
X50815Y12936I0J-149D01*
G01*
G75*
G02*
X50864Y12947I50J-107D01*
G01*
X51105D01*
G75*
G02*
X51181Y12919I0J-117D01*
G01*
G75*
G02*
X51258Y12947I76J-90D01*
G01*
X51498D01*
G75*
G02*
X51575Y12919I1J-118D01*
G01*
G75*
G02*
X51652Y12947I76J-90D01*
G01*
X51892D01*
G75*
G02*
X51941Y12936I-1J-118D01*
G01*
G75*
G02*
X52045Y12978I104J-107D01*
G01*
X52286D01*
G75*
G02*
X52390Y12936I0J-149D01*
G01*
G75*
G02*
X52439Y12947I50J-107D01*
G01*
X52679D01*
G75*
G02*
X52729Y12936I0J-120D01*
G01*
G75*
G02*
X52833Y12978I104J-107D01*
G01*
X53073D01*
G75*
G02*
X53177Y12936I0J-149D01*
G01*
G75*
G02*
X53227Y12947I50J-109D01*
G01*
X53467D01*
G75*
G02*
X53516Y12936I-1J-118D01*
G01*
G75*
G02*
X53620Y12978I104J-107D01*
G01*
X53860D01*
G75*
G02*
X53965Y12936I1J-151D01*
G01*
G75*
G02*
X54014Y12947I50J-107D01*
G01*
X54254D01*
G75*
G02*
X54303Y12936I-1J-118D01*
G01*
G75*
G02*
X54408Y12978I104J-109D01*
G01*
X54648D01*
G75*
G02*
X54752Y12936I0J-149D01*
G01*
G75*
G02*
X54801Y12947I50J-107D01*
G01*
X55042D01*
G75*
G02*
X55091Y12936I-1J-118D01*
G01*
G75*
G02*
X55195Y12978I104J-107D01*
G01*
X55435D01*
G75*
G02*
X55540Y12936I1J-151D01*
G01*
G75*
G02*
X55589Y12947I50J-107D01*
G01*
X55829D01*
G75*
G02*
X55906Y12919I1J-118D01*
G01*
G75*
G02*
X55982Y12947I76J-89D01*
G01*
X56223D01*
G75*
G02*
X56299Y12919I0J-117D01*
G01*
G75*
G02*
X56376Y12947I76J-90D01*
G01*
X56616D01*
G75*
G02*
X56693Y12919I1J-118D01*
G01*
G75*
G02*
X56770Y12947I76J-90D01*
G01*
X57010D01*
G75*
G02*
X57128Y12829I0J-118D01*
G01*
Y12289D01*
G75*
G02*
X57067Y12186I-118J0D01*
G01*
Y11826D01*
X56767Y34893D02*
G75*
G02*
X57067Y34435I123J-247D01*
G01*
Y14193D01*
G75*
G02*
X57128Y14089I-58J-104D01*
G01*
Y13550D01*
G75*
G02*
X57010Y13431I-118J0D01*
G01*
X56770D01*
G75*
G02*
X56693Y13460I1J119D01*
G01*
G75*
G02*
X56616Y13431I-78J90D01*
G01*
X56376D01*
G75*
G02*
X56299Y13460I1J119D01*
G01*
G75*
G02*
X56223Y13431I-77J89D01*
G01*
X55982D01*
G75*
G02*
X55906Y13460I1J118D01*
G01*
G75*
G02*
X55829Y13431I-78J90D01*
G01*
X55589D01*
G75*
G02*
X55512Y13460I1J119D01*
G01*
G75*
G02*
X55435Y13431I-78J90D01*
G01*
X55195D01*
G75*
G02*
X55118Y13460I1J119D01*
G01*
G75*
G02*
X55042Y13431I-77J89D01*
G01*
X54801D01*
G75*
G02*
X54752Y13442I1J118D01*
G01*
G75*
G02*
X54648Y13400I-104J107D01*
G01*
X54408D01*
G75*
G02*
X54331Y13421I0J150D01*
G01*
G75*
G02*
X54254Y13400I-77J129D01*
G01*
X54014D01*
G75*
G02*
X53937Y13421I0J150D01*
G01*
G75*
G02*
X53860Y13400I-77J129D01*
G01*
X53620D01*
G75*
G02*
X53544Y13421I0J148D01*
G01*
G75*
G02*
X53467Y13400I-77J129D01*
G01*
X53227D01*
G75*
G02*
X53150Y13421I0J150D01*
G01*
G75*
G02*
X53073Y13400I-77J129D01*
G01*
X52833D01*
G75*
G02*
X52756Y13421I0J150D01*
G01*
G75*
G02*
X52679Y13400I-77J129D01*
G01*
X52439D01*
G75*
G02*
X52362Y13421I0J150D01*
G01*
G75*
G02*
X52286Y13400I-76J127D01*
G01*
X52045D01*
G75*
G02*
X51969Y13421I0J148D01*
G01*
G75*
G02*
X51892Y13400I-77J129D01*
G01*
X51652D01*
G75*
G02*
X51548Y13442I0J149D01*
G01*
G75*
G02*
X51498Y13431I-50J109D01*
G01*
X51258D01*
G75*
G02*
X51181Y13460I1J119D01*
G01*
G75*
G02*
X51105Y13431I-77J89D01*
G01*
X50864D01*
G75*
G02*
X50815Y13442I1J118D01*
G01*
G75*
G02*
X50711Y13400I-104J107D01*
G01*
X50471D01*
G75*
G02*
X50394Y13421I0J150D01*
G01*
G75*
G02*
X50317Y13400I-77J129D01*
G01*
X50077D01*
G75*
G02*
X49927Y13550I0J150D01*
G01*
Y14089D01*
G75*
G02*
X50077Y14239I150J0D01*
G01*
X50317D01*
G75*
G02*
X50394Y14218I0J-150D01*
G01*
G75*
G02*
X50471Y14239I77J-129D01*
G01*
X50711D01*
G75*
G02*
X50807Y14204I0J-149D01*
G01*
Y34435D01*
G75*
G02*
X51107Y34893I177J211D01*
G01*
G75*
G02*
X51654Y34843I271J-50D01*
G01*
G75*
G02*
X51556Y34632I-275J0D01*
G01*
Y14204D01*
G75*
G02*
X51652Y14239I96J-114D01*
G01*
X51892D01*
G75*
G02*
X51969Y14218I0J-150D01*
G01*
G75*
G02*
X52045Y14239I76J-127D01*
G01*
X52286D01*
G75*
G02*
X52362Y14218I0J-148D01*
G01*
G75*
G02*
X52439Y14239I77J-129D01*
G01*
X52679D01*
G75*
G02*
X52756Y14218I0J-150D01*
G01*
G75*
G02*
X52833Y14239I77J-129D01*
G01*
X53073D01*
G75*
G02*
X53150Y14218I0J-150D01*
G01*
G75*
G02*
X53227Y14239I77J-129D01*
G01*
X53467D01*
G75*
G02*
X53544Y14218I0J-150D01*
G01*
G75*
G02*
X53620Y14239I76J-127D01*
G01*
X53860D01*
G75*
G02*
X53937Y14218I0J-150D01*
G01*
G75*
G02*
X54014Y14239I77J-129D01*
G01*
X54254D01*
G75*
G02*
X54331Y14218I0J-150D01*
G01*
G75*
G02*
X54408Y14239I77J-129D01*
G01*
X54648D01*
G75*
G02*
X54752Y14197I0J-149D01*
G01*
G75*
G02*
X54801Y14207I47J-107D01*
G01*
X55011D01*
X54796Y14422D01*
G75*
G02*
X54744Y14547I124J125D01*
G01*
Y34390D01*
G75*
G02*
X54796Y34516I177J1D01*
G01*
X55052Y34771D01*
X55084Y34797D01*
G75*
G02*
X55438Y34893I231J-151D01*
G01*
G75*
G02*
X55980I271J-50D01*
G01*
G75*
G02*
X56225I123J-247D01*
G01*
G75*
G02*
X56767I271J-50D01*
G01*
X50571Y44252D02*
G75*
G02*
X51556I493J0D01*
G01*
G75*
G02*
X50571I-492J0D01*
G01*
X54311Y31511D02*
G75*
G02*
X54410Y31299I-178J-212D01*
G01*
G75*
G02*
X53858I-276J0D01*
G01*
G75*
G02*
X53957Y31511I277J0D01*
G01*
Y36828D01*
X53561Y37224D01*
X53170D01*
Y36851D01*
G75*
G02*
X53051Y36732I-119J0D01*
G01*
X52106D01*
G75*
G02*
X51988Y36851I0J119D01*
G01*
Y37953D01*
G75*
G02*
X52106Y38071I118J0D01*
G01*
X53051D01*
G75*
G02*
X53170Y37953I0J-118D01*
G01*
Y37579D01*
X53634D01*
G75*
G02*
X53760Y37527I1J-177D01*
G01*
X54259Y37028D01*
G75*
G02*
X54311Y36902I-125J-125D01*
G01*
Y31511D01*
X52894Y44975D02*
G75*
G02*
X53445I276J0D01*
G01*
G75*
G02*
X53146Y44700I-276J0D01*
G01*
X52756Y44311D01*
Y41615D01*
X53051D01*
G75*
G02*
X53170Y41496I0J-119D01*
G01*
Y40394D01*
G75*
G02*
X53051Y40276I-119J0D01*
G01*
X52106D01*
G75*
G02*
X51988Y40394I0J118D01*
G01*
Y41496D01*
G75*
G02*
X52106Y41615I118J0D01*
G01*
X52402D01*
Y44384D01*
G75*
G02*
X52454Y44510I177J1D01*
G01*
X52895Y44951D01*
X52894Y44975D01*
X55531Y44252D02*
G75*
G02*
X56516I493J0D01*
G01*
G75*
G02*
X55531I-492J0D01*
G01*
X70236Y66349D02*
G75*
G02*
X70788Y66339I276J-10D01*
G01*
G75*
G02*
X70689Y66128I-276J1D01*
G01*
Y45678D01*
G75*
G02*
X70637Y45552I-177J-1D01*
G01*
X68984Y43899D01*
X62370Y37277D01*
G75*
G02*
X62244Y37224I-127J125D01*
G01*
X57461D01*
Y36851D01*
G75*
G02*
X57343Y36732I-118J0D01*
G01*
X56398D01*
G75*
G02*
X56280Y36851I0J119D01*
G01*
Y37953D01*
G75*
G02*
X56398Y38071I118J0D01*
G01*
X57343D01*
G75*
G02*
X57461Y37953I0J-118D01*
G01*
Y37579D01*
X62171D01*
X68733Y44149D01*
X68733Y44149D01*
X70335Y45751D01*
Y66128D01*
G75*
G02*
X70236Y66328I176J212D01*
G01*
G75*
G02*
X70138Y66128I-275J11D01*
G01*
Y48477D01*
G75*
G02*
X70086Y48351I-177J-1D01*
G01*
X62555Y40820D01*
G75*
G02*
X62429Y40768I-125J125D01*
G01*
X57461D01*
Y40394D01*
G75*
G02*
X57343Y40276I-118J0D01*
G01*
X56398D01*
G75*
G02*
X56280Y40394I0J118D01*
G01*
Y41496D01*
G75*
G02*
X56398Y41615I118J0D01*
G01*
X57343D01*
G75*
G02*
X57461Y41496I0J-119D01*
G01*
Y41122D01*
X62356D01*
X69783Y48550D01*
Y66128D01*
G75*
G02*
X69685Y66339I177J211D01*
G01*
G75*
G02*
X70236Y66349I276J0D01*
G01*
X87309Y47028D02*
G75*
G02*
X87796Y46851I211J-177D01*
G01*
G75*
G02*
X87309Y46673I-276J0D01*
G01*
X75782D01*
X64940Y35831D01*
X64941Y35807D01*
G75*
G02*
X64390I-275J0D01*
G01*
G75*
G02*
X64689Y36082I276J0D01*
G01*
X75583Y46976D01*
G75*
G02*
X75709Y47028I125J-125D01*
G01*
X87309D01*
X88465Y46870D02*
G75*
G02*
X89016I276J0D01*
G01*
G75*
G02*
X88918Y46659I-275J0D01*
G01*
Y46418D01*
G75*
G02*
X88865Y46292I-178J1D01*
G01*
X86307Y43733D01*
G75*
G02*
X86181Y43681I-125J125D01*
G01*
X80152D01*
G75*
G02*
X79665Y43858I-211J177D01*
G01*
G75*
G02*
X80152Y44036I276J0D01*
G01*
X86108D01*
X88563Y46491D01*
Y46659D01*
G75*
G02*
X88465Y46870I177J211D01*
G01*
X88524Y28977D02*
G75*
G02*
X89075I276J0D01*
G01*
G75*
G02*
X88524I-275J0D01*
G01*
X89599Y25711D02*
G75*
G02*
X90396Y24914I0J-797D01*
G01*
G75*
G02*
X89599Y24116I-797J0D01*
G01*
G75*
G02*
X88801Y24914I0J798D01*
G01*
G75*
G02*
X89599Y25711I798J0D01*
G01*
X80177Y41162D02*
G75*
G02*
X80729I276J0D01*
G01*
G75*
G02*
X80177I-276J0D01*
G01*
X81398Y32933D02*
G75*
G02*
X81949I276J0D01*
G01*
G75*
G02*
X81851Y32722I-275J0D01*
G01*
Y32390D01*
G75*
G02*
X81798Y32264I-178J1D01*
G01*
X81299Y31765D01*
G75*
G02*
X81173Y31713I-125J125D01*
G01*
X78327D01*
Y31339D01*
G75*
G02*
X78209Y31220I-118J0D01*
G01*
X77264D01*
G75*
G02*
X77146Y31339I0J119D01*
G01*
Y32441D01*
G75*
G02*
X77264Y32559I118J0D01*
G01*
X78209D01*
G75*
G02*
X78327Y32441I0J-118D01*
G01*
Y32067D01*
X81100D01*
X81496Y32463D01*
Y32722D01*
G75*
G02*
X81398Y32933I177J211D01*
G01*
X81772Y29390D02*
G75*
G02*
X82323I276J0D01*
G01*
G75*
G02*
X82225Y29179I-275J0D01*
G01*
Y28847D01*
G75*
G02*
X82172Y28721I-178J1D01*
G01*
X81673Y28222D01*
G75*
G02*
X81547Y28169I-127J125D01*
G01*
X78327D01*
Y27795D01*
G75*
G02*
X78209Y27677I-118J0D01*
G01*
X77264D01*
G75*
G02*
X77146Y27795I0J118D01*
G01*
Y28898D01*
G75*
G02*
X77264Y29016I118J0D01*
G01*
X78209D01*
G75*
G02*
X78327Y28898I0J-118D01*
G01*
Y28524D01*
X81474D01*
X81870Y28920D01*
Y29179D01*
G75*
G02*
X81772Y29390I177J211D01*
G01*
X73918Y32559D02*
G75*
G02*
X74036Y32441I0J-118D01*
G01*
Y31339D01*
G75*
G02*
X73918Y31220I-118J0D01*
G01*
X72973D01*
G75*
G02*
X72854Y31339I0J119D01*
G01*
Y31713D01*
X69896D01*
G75*
G02*
X69409Y31890I-211J177D01*
G01*
G75*
G02*
X69896Y32067I276J0D01*
G01*
X72854D01*
Y32441D01*
G75*
G02*
X72973Y32559I119J0D01*
G01*
X73918D01*
Y29016D02*
G75*
G02*
X74036Y28898I0J-118D01*
G01*
Y27795D01*
G75*
G02*
X73918Y27677I-118J0D01*
G01*
X72973D01*
G75*
G02*
X72854Y27795I0J118D01*
G01*
Y28169D01*
X70684D01*
G75*
G02*
X70197Y28347I-211J178D01*
G01*
G75*
G02*
X70684Y28524I276J0D01*
G01*
X72854D01*
Y28898D01*
G75*
G02*
X72973Y29016I119J0D01*
G01*
X73918D01*
X73307Y42047D02*
G75*
G02*
X73859I276J0D01*
G01*
G75*
G02*
X73307I-276J0D01*
G01*
X78293Y41024D02*
G75*
G02*
X78780Y40847I211J-177D01*
G01*
G75*
G02*
X78681Y40635I-277J0D01*
G01*
Y40250D01*
G75*
G02*
X78629Y40125I-176J0D01*
G01*
X78366Y39861D01*
X78367Y39839D01*
G75*
G02*
X77815I-276J0D01*
G01*
G75*
G02*
X78116Y40113I275J0D01*
G01*
X78327Y40324D01*
Y40635D01*
X78293Y40669D01*
X74877D01*
G75*
G02*
X74390Y40847I-211J178D01*
G01*
G75*
G02*
X74877Y41024I276J0D01*
G01*
X78293D01*
X74567Y35650D02*
G75*
G02*
X75119I276J0D01*
G01*
G75*
G02*
X74567I-276J0D01*
G01*
X74390Y41839D02*
G75*
G02*
X74941I276J0D01*
G01*
G75*
G02*
X74390I-275J0D01*
G01*
X59626Y3544D02*
G75*
G02*
X60847I611J0D01*
G01*
G75*
G02*
X59626I-610J0D01*
G01*
X49272Y53406D02*
G75*
G02*
X49823I276J0D01*
G01*
G75*
G02*
X49272I-275J0D01*
G01*
X55537Y62772D02*
G75*
G02*
X56274I369J0D01*
G01*
G75*
G02*
X55537I-368J0D01*
G01*
Y70772D02*
G75*
G02*
X56274I369J0D01*
G01*
G75*
G02*
X55537I-368J0D01*
G01*
X62269Y53343D02*
G75*
G02*
X62756Y53166I211J-177D01*
G01*
G75*
G02*
X62269Y52988I-276J0D01*
G01*
X60113D01*
X59804Y52679D01*
Y50430D01*
G75*
G02*
X59751Y50304I-178J1D01*
G01*
X59466Y50019D01*
G75*
G02*
X59341Y49967I-125J124D01*
G01*
X59247D01*
G75*
G02*
X58760Y50144I-211J177D01*
G01*
G75*
G02*
X59247Y50321I276J0D01*
G01*
X59267D01*
X59449Y50503D01*
Y52752D01*
G75*
G02*
X59501Y52878I177J1D01*
G01*
X59789Y53166D01*
X59511Y53443D01*
G75*
G02*
X59459Y53569I125J125D01*
G01*
Y58746D01*
G75*
G02*
X59360Y58957I177J212D01*
G01*
G75*
G02*
X59912I276J0D01*
G01*
G75*
G02*
X59813Y58746I-276J1D01*
G01*
Y53643D01*
X60113Y53343D01*
X62269D01*
X60669Y47736D02*
G75*
G02*
X61221I276J0D01*
G01*
G75*
G02*
X60669I-276J0D01*
G01*
X59232Y70374D02*
G75*
G02*
X60217I493J0D01*
G01*
G75*
G02*
X59232I-492J0D01*
G01*
X64193D02*
G75*
G02*
X65178I493J0D01*
G01*
G75*
G02*
X64193I-492J0D01*
G01*
X65065Y46851D02*
G75*
G02*
X65552Y46673I211J-178D01*
G01*
G75*
G02*
X65065Y46496I-276J0D01*
G01*
X64719D01*
G75*
G02*
X64232Y46673I-211J177D01*
G01*
G75*
G02*
X64719Y46851I276J0D01*
G01*
X65065D01*
X64311Y64429D02*
G75*
G02*
X64863I276J0D01*
G01*
G75*
G02*
X64311I-276J0D01*
G01*
X64469Y58386D02*
G75*
G02*
X65020I276J0D01*
G01*
G75*
G02*
X64469I-275J0D01*
G01*
X67529Y53843D02*
G75*
G02*
X68012Y53662I208J-181D01*
G01*
G75*
G02*
X67522Y53488I-276J0D01*
G01*
X66058D01*
G75*
G02*
X65571Y53666I-211J178D01*
G01*
G75*
G02*
X66058Y53843I276J0D01*
G01*
X67529D01*
X68313Y60965D02*
G75*
G02*
X68800Y60788I211J-177D01*
G01*
G75*
G02*
X68313Y60610I-276J0D01*
G01*
X66156D01*
G75*
G02*
X65669Y60788I-211J178D01*
G01*
G75*
G02*
X66156Y60965I276J0D01*
G01*
X68313D01*
Y58583D02*
G75*
G02*
X68800Y58406I211J-177D01*
G01*
G75*
G02*
X68313Y58228I-276J0D01*
G01*
X66648D01*
G75*
G02*
X66161Y58406I-211J178D01*
G01*
G75*
G02*
X66648Y58583I276J0D01*
G01*
X68313D01*
X68996Y58406D02*
G75*
G02*
X69548I276J0D01*
G01*
G75*
G02*
X68996I-276J0D01*
G01*
Y60788D02*
G75*
G02*
X69548I276J0D01*
G01*
G75*
G02*
X68996I-276J0D01*
G01*
X71496Y44351D02*
G75*
G02*
X72048I276J0D01*
G01*
G75*
G02*
X71496I-276J0D01*
G01*
X71890Y50492D02*
G75*
G02*
X72441I276J0D01*
G01*
G75*
G02*
X71890I-275J0D01*
G01*
X76673Y57363D02*
G75*
G02*
X76792Y57244I0J-119D01*
G01*
Y56142D01*
G75*
G02*
X76673Y56024I-119J0D01*
G01*
X75729D01*
G75*
G02*
X75610Y56142I0J118D01*
G01*
Y56516D01*
X75211D01*
G75*
G02*
X74724Y56693I-211J177D01*
G01*
G75*
G02*
X75211Y56870I276J0D01*
G01*
X75610D01*
Y57244D01*
G75*
G02*
X75729Y57363I119J0D01*
G01*
X76673D01*
Y60906D02*
G75*
G02*
X76792Y60788I0J-118D01*
G01*
Y59685D01*
G75*
G02*
X76673Y59567I-119J0D01*
G01*
X75729D01*
G75*
G02*
X75610Y59685I0J118D01*
G01*
Y60020D01*
X75211D01*
G75*
G02*
X74724Y60197I-211J177D01*
G01*
G75*
G02*
X75211Y60374I276J0D01*
G01*
X75610D01*
Y60788D01*
G75*
G02*
X75729Y60906I119J0D01*
G01*
X76673D01*
Y64449D02*
G75*
G02*
X76792Y64331I0J-118D01*
G01*
Y63229D01*
G75*
G02*
X76673Y63110I-119J0D01*
G01*
X75729D01*
G75*
G02*
X75610Y63229I0J119D01*
G01*
Y64331D01*
G75*
G02*
X75729Y64449I119J0D01*
G01*
X76024D01*
Y64789D01*
G75*
G02*
X75925Y65000I177J212D01*
G01*
G75*
G02*
X76477I276J0D01*
G01*
G75*
G02*
X76378Y64789I-276J1D01*
G01*
Y64449D01*
X76673D01*
X83529Y60414D02*
G75*
G02*
X84016Y60236I211J-178D01*
G01*
G75*
G02*
X83529Y60059I-276J0D01*
G01*
X81083D01*
Y59685D01*
G75*
G02*
X80965Y59567I-118J0D01*
G01*
X80020D01*
G75*
G02*
X79902Y59685I0J118D01*
G01*
Y60788D01*
G75*
G02*
X80020Y60906I118J0D01*
G01*
X80965D01*
G75*
G02*
X81083Y60788I0J-118D01*
G01*
Y60414D01*
X83529D01*
X82466Y56870D02*
G75*
G02*
X82953Y56693I211J-177D01*
G01*
G75*
G02*
X82466Y56516I-276J0D01*
G01*
X81083D01*
Y56142D01*
G75*
G02*
X80965Y56024I-118J0D01*
G01*
X80020D01*
G75*
G02*
X79902Y56142I0J118D01*
G01*
Y57244D01*
G75*
G02*
X80020Y57363I118J0D01*
G01*
X80965D01*
G75*
G02*
X81083Y57244I0J-119D01*
G01*
Y56870D01*
X82466D01*
X91285Y54410D02*
G75*
G02*
X91772Y54232I211J-178D01*
G01*
G75*
G02*
X91285Y54055I-276J0D01*
G01*
X82515D01*
G75*
G02*
X82028Y54232I-211J177D01*
G01*
G75*
G02*
X82515Y54410I276J0D01*
G01*
X91285D01*
X90138Y32579D02*
G75*
G02*
X90689I276J0D01*
G01*
G75*
G02*
X90138I-275J0D01*
G01*
X102774Y40601D02*
G75*
G02*
X102855Y40405I-195J-195D01*
G01*
Y28544D01*
G75*
G02*
X102774Y28348I-276J-1D01*
G01*
X102262Y27837D01*
G75*
G02*
X102066Y27756I-195J195D01*
G01*
X91256D01*
X91181Y27681D01*
G75*
G02*
X90433Y27697I-374J16D01*
G01*
G75*
G02*
X90791Y28071I374J0D01*
G01*
X90947Y28227D01*
G75*
G02*
X91143Y28307I194J-196D01*
G01*
X101953D01*
X102303Y28658D01*
Y40291D01*
X101965Y40630D01*
X95588D01*
G75*
G02*
X94961Y40906I-253J276D01*
G01*
G75*
G02*
X95588Y41181I374J0D01*
G01*
X102078D01*
G75*
G02*
X102274Y41101I2J-276D01*
G01*
X102774Y40601D01*
X100059Y35453D02*
G75*
G02*
X100847I394J0D01*
G01*
G75*
G02*
X100059I-394J0D01*
G01*
Y37618D02*
G75*
G02*
X100847I394J0D01*
G01*
G75*
G02*
X100059I-394J0D01*
G01*
X94772Y25711D02*
G75*
G02*
X95569Y24914I0J-797D01*
G01*
G75*
G02*
X94772Y24116I-797J0D01*
G01*
G75*
G02*
X93974Y24914I0J798D01*
G01*
G75*
G02*
X94772Y25711I798J0D01*
G01*
X97874Y22441D02*
G75*
G02*
X98859I493J0D01*
G01*
G75*
G02*
X97874I-492J0D01*
G01*
X103522Y45424D02*
G75*
G02*
X103603Y45228I-195J-195D01*
G01*
Y27647D01*
G75*
G02*
X103522Y27451I-276J-1D01*
G01*
X103022Y26951D01*
G75*
G02*
X102826Y26870I-195J195D01*
G01*
X100477D01*
X100138Y26532D01*
Y26415D01*
G75*
G02*
X100237Y26162I-276J-254D01*
G01*
G75*
G02*
X99488I-374J0D01*
G01*
G75*
G02*
X99587Y26415I375J-1D01*
G01*
Y26645D01*
G75*
G02*
X99667Y26841I276J2D01*
G01*
X100167Y27341D01*
G75*
G02*
X100363Y27422I195J-195D01*
G01*
X102713D01*
X103051Y27760D01*
Y45114D01*
X102713Y45453D01*
X97668D01*
G75*
G02*
X97473Y45534I0J275D01*
G01*
X97207Y45799D01*
X97195Y45812D01*
X96884Y46161D01*
X96513D01*
G75*
G02*
X95886Y46437I-253J276D01*
G01*
G75*
G02*
X96513Y46713I374J0D01*
G01*
X97008D01*
G75*
G02*
X97214Y46620I0J-276D01*
G01*
X97602Y46184D01*
X97782Y46004D01*
X102826D01*
G75*
G02*
X103022Y45924I2J-276D01*
G01*
X103522Y45424D01*
X99445Y44784D02*
G75*
G02*
X100430I493J0D01*
G01*
G75*
G02*
X99445I-492J0D01*
G01*
X101516D02*
G75*
G02*
X102422I453J0D01*
G01*
G75*
G02*
X101516I-453J0D01*
G01*
X102835Y22441D02*
G75*
G02*
X103819I492J0D01*
G01*
G75*
G02*
X102835I-492J0D01*
G01*
X84435Y63957D02*
G75*
G02*
X84922Y63780I211J-177D01*
G01*
G75*
G02*
X84435Y63602I-276J0D01*
G01*
X81083D01*
Y63229D01*
G75*
G02*
X80965Y63110I-118J0D01*
G01*
X80020D01*
G75*
G02*
X79902Y63229I0J119D01*
G01*
Y64331D01*
G75*
G02*
X80020Y64449I118J0D01*
G01*
X80965D01*
G75*
G02*
X81083Y64331I0J-118D01*
G01*
Y63957D01*
X84435D01*
X91344Y55453D02*
G75*
G02*
X91831Y55276I211J-177D01*
G01*
G75*
G02*
X91344Y55098I-276J0D01*
G01*
X86255D01*
G75*
G02*
X85768Y55276I-211J178D01*
G01*
G75*
G02*
X86255Y55453I276J0D01*
G01*
X91344D01*
X90768Y66300D02*
G75*
G02*
X91319Y66280I275J-20D01*
G01*
G75*
G02*
X91020Y66005I-276J0D01*
G01*
X91012Y65997D01*
G75*
G02*
X90886Y65945I-125J125D01*
G01*
X90237D01*
G75*
G02*
X90054Y65473I-193J-196D01*
G01*
X89389Y64808D01*
X89390Y64784D01*
G75*
G02*
X88839I-275J0D01*
G01*
G75*
G02*
X89138Y65058I275J0D01*
G01*
X89773Y65693D01*
G75*
G02*
X89850Y65945I271J55D01*
G01*
X87810D01*
X87756Y65891D01*
G75*
G02*
X87796Y65748I-237J-143D01*
G01*
G75*
G02*
X87244I-276J0D01*
G01*
G75*
G02*
X87354Y65969I276J0D01*
G01*
G75*
G02*
X87395Y66031I165J-64D01*
G01*
X87611Y66247D01*
G75*
G02*
X87737Y66300I127J-125D01*
G01*
X90768D01*
X91732Y63819D02*
G75*
G02*
X92481I375J0D01*
G01*
G75*
G02*
X91732I-374J0D01*
G01*
X92343Y58662D02*
G75*
G02*
X92894I276J0D01*
G01*
G75*
G02*
X92343I-275J0D01*
G01*
X103192Y65217D02*
G75*
G02*
X103819Y64941I253J-276D01*
G01*
G75*
G02*
X103451Y64567I-374J0D01*
G01*
X102933Y64049D01*
Y61113D01*
G75*
G02*
X102853Y60918I-275J-1D01*
G01*
X102429Y60494D01*
G75*
G02*
X102234Y60413I-195J194D01*
G01*
X101887D01*
G75*
G02*
X101260Y60689I-253J276D01*
G01*
G75*
G02*
X101887Y60965I374J0D01*
G01*
X102120D01*
X102382Y61227D01*
Y64163D01*
G75*
G02*
X102463Y64359I276J1D01*
G01*
X102769Y64665D01*
X95823D01*
X95276Y64118D01*
Y61123D01*
G75*
G02*
X95195Y60927I-276J-1D01*
G01*
X94762Y60494D01*
G75*
G02*
X94566Y60413I-195J195D01*
G01*
X94210D01*
G75*
G02*
X93583Y60689I-253J276D01*
G01*
G75*
G02*
X94210Y60965I374J0D01*
G01*
X94453D01*
X94724Y61237D01*
Y64232D01*
G75*
G02*
X94805Y64427I275J0D01*
G01*
X95514Y65136D01*
G75*
G02*
X95710Y65217I195J-195D01*
G01*
X103192D01*
X99409Y63819D02*
G75*
G02*
X100158I375J0D01*
G01*
G75*
G02*
X99409I-374J0D01*
G01*
X100728Y67969D02*
G75*
G02*
X101713I493J0D01*
G01*
G75*
G02*
X100728I-492J0D01*
G01*
X100768Y70000D02*
G75*
G02*
X101674I453J0D01*
G01*
G75*
G02*
X100768I-453J0D01*
G01*
X46064Y3534D02*
G36*
X46064Y3534D02*
Y3534D01*
G75*
G03*
X46833Y2756I778J0D01*
G01*
X60217D01*
G75*
G03*
X61023Y3544I-1J807D01*
G01*
X60847D01*
G75*
G02*
X59626I-610J0D01*
G01*
X47461D01*
G75*
G02*
X46240I-610J0D01*
G01*
X46064D01*
Y3543D01*
X46064Y3539D01*
X46064Y3534D01*
G37*
X46064Y12158D02*
G36*
X46064Y12158D02*
Y3544D01*
X46240D01*
G75*
G02*
X47461I611J0D01*
G01*
X59626D01*
G75*
G02*
X60847I611J0D01*
G01*
X61023D01*
X61023Y3563D01*
Y12158D01*
X57067D01*
Y11826D01*
G75*
G02*
X57166Y11614I-178J-212D01*
G01*
G75*
G02*
X56619Y11564I-276J0D01*
G01*
G75*
G02*
X56374I-122J247D01*
G01*
G75*
G02*
X55831I-271J50D01*
G01*
G75*
G02*
X55433Y11811I-122J247D01*
G01*
G75*
G02*
X55531Y12022I275J0D01*
G01*
Y12158D01*
X55508D01*
G75*
G02*
X55435Y12139I-73J130D01*
G01*
X55195D01*
G75*
G02*
X55122Y12158I0J149D01*
G01*
X54721D01*
G75*
G02*
X54648Y12139I-73J130D01*
G01*
X54408D01*
G75*
G02*
X54334Y12158I-1J151D01*
G01*
X54311D01*
Y11826D01*
G75*
G02*
X54410Y11614I-178J-212D01*
G01*
G75*
G02*
X53858I-276J0D01*
G01*
G75*
G02*
X53957Y11826I277J0D01*
G01*
Y12158D01*
X53934D01*
G75*
G02*
X53860Y12139I-73J132D01*
G01*
X53620D01*
G75*
G02*
X53547Y12158I0J149D01*
G01*
X53524D01*
Y11826D01*
G75*
G02*
X53622Y11614I-178J-211D01*
G01*
G75*
G02*
X53071I-275J0D01*
G01*
G75*
G02*
X53169Y11826I276J1D01*
G01*
Y12158D01*
X53146D01*
G75*
G02*
X53073Y12139I-73J130D01*
G01*
X52833D01*
G75*
G02*
X52760Y12158I0J149D01*
G01*
X52737D01*
Y11826D01*
G75*
G02*
X52835Y11614I-178J-211D01*
G01*
G75*
G02*
X52283I-276J0D01*
G01*
G75*
G02*
X52382Y11826I277J0D01*
G01*
Y12158D01*
X52359D01*
G75*
G02*
X52286Y12139I-73J130D01*
G01*
X52045D01*
G75*
G02*
X51972Y12158I0J149D01*
G01*
X51949D01*
Y11826D01*
G75*
G02*
X52048Y11614I-178J-212D01*
G01*
G75*
G02*
X51501Y11564I-276J0D01*
G01*
G75*
G02*
X51256I-122J247D01*
G01*
G75*
G02*
X50709Y11614I-271J50D01*
G01*
G75*
G02*
X50807Y11826I276J1D01*
G01*
Y12158D01*
X50784D01*
G75*
G02*
X50711Y12139I-73J130D01*
G01*
X50471D01*
G75*
G02*
X50397Y12158I-1J151D01*
G01*
X50390D01*
G75*
G02*
X50317Y12139I-73J130D01*
G01*
X50077D01*
G75*
G02*
X50004Y12158I0J149D01*
G01*
X46064D01*
G37*
X2756Y22441D02*
G36*
X2756Y22441D02*
Y20473D01*
X45669D01*
G75*
G02*
X46064Y20079I0J-394D01*
G01*
Y12158D01*
X50004D01*
G75*
G02*
X49927Y12289I73J131D01*
G01*
Y12829D01*
G75*
G02*
X50077Y12978I150J0D01*
G01*
X50317D01*
G75*
G02*
X50394Y12957I0J-150D01*
G01*
G75*
G02*
X50471Y12978I77J-129D01*
G01*
X50711D01*
G75*
G02*
X50815Y12936I0J-149D01*
G01*
G75*
G02*
X50864Y12947I50J-107D01*
G01*
X51105D01*
G75*
G02*
X51181Y12919I0J-117D01*
G01*
G75*
G02*
X51258Y12947I76J-90D01*
G01*
X51498D01*
G75*
G02*
X51575Y12919I1J-118D01*
G01*
G75*
G02*
X51652Y12947I76J-90D01*
G01*
X51892D01*
G75*
G02*
X51941Y12936I-1J-118D01*
G01*
G75*
G02*
X52045Y12978I104J-107D01*
G01*
X52286D01*
G75*
G02*
X52390Y12936I0J-149D01*
G01*
G75*
G02*
X52439Y12947I50J-107D01*
G01*
X52679D01*
G75*
G02*
X52729Y12936I0J-120D01*
G01*
G75*
G02*
X52833Y12978I104J-107D01*
G01*
X53073D01*
G75*
G02*
X53177Y12936I0J-149D01*
G01*
G75*
G02*
X53227Y12947I50J-109D01*
G01*
X53467D01*
G75*
G02*
X53516Y12936I-1J-118D01*
G01*
G75*
G02*
X53620Y12978I104J-107D01*
G01*
X53860D01*
G75*
G02*
X53965Y12936I1J-151D01*
G01*
G75*
G02*
X54014Y12947I50J-107D01*
G01*
X54254D01*
G75*
G02*
X54303Y12936I-1J-118D01*
G01*
G75*
G02*
X54408Y12978I104J-109D01*
G01*
X54648D01*
G75*
G02*
X54752Y12936I0J-149D01*
G01*
G75*
G02*
X54801Y12947I50J-107D01*
G01*
X55042D01*
G75*
G02*
X55091Y12936I-1J-118D01*
G01*
G75*
G02*
X55195Y12978I104J-107D01*
G01*
X55435D01*
G75*
G02*
X55540Y12936I1J-151D01*
G01*
G75*
G02*
X55589Y12947I50J-107D01*
G01*
X55829D01*
G75*
G02*
X55906Y12919I1J-118D01*
G01*
G75*
G02*
X55982Y12947I76J-89D01*
G01*
X56223D01*
G75*
G02*
X56299Y12919I0J-117D01*
G01*
G75*
G02*
X56376Y12947I76J-90D01*
G01*
X56616D01*
G75*
G02*
X56693Y12919I1J-118D01*
G01*
G75*
G02*
X56770Y12947I76J-90D01*
G01*
X57010D01*
G75*
G02*
X57128Y12829I0J-118D01*
G01*
Y12289D01*
G75*
G02*
X57067Y12186I-118J0D01*
G01*
Y12158D01*
X61023D01*
Y20079D01*
G75*
G02*
X61418Y20473I395J0D01*
G01*
X104331D01*
Y22441D01*
X103819D01*
G75*
G02*
X102835I-492J0D01*
G01*
X98859D01*
G75*
G02*
X97874I-492J0D01*
G01*
X57067D01*
Y14193D01*
G75*
G02*
X57128Y14089I-58J-104D01*
G01*
Y13550D01*
G75*
G02*
X57010Y13431I-118J0D01*
G01*
X56770D01*
G75*
G02*
X56693Y13460I1J119D01*
G01*
G75*
G02*
X56616Y13431I-78J90D01*
G01*
X56376D01*
G75*
G02*
X56299Y13460I1J119D01*
G01*
G75*
G02*
X56223Y13431I-77J89D01*
G01*
X55982D01*
G75*
G02*
X55906Y13460I1J118D01*
G01*
G75*
G02*
X55829Y13431I-78J90D01*
G01*
X55589D01*
G75*
G02*
X55512Y13460I1J119D01*
G01*
G75*
G02*
X55435Y13431I-78J90D01*
G01*
X55195D01*
G75*
G02*
X55118Y13460I1J119D01*
G01*
G75*
G02*
X55042Y13431I-77J89D01*
G01*
X54801D01*
G75*
G02*
X54752Y13442I1J118D01*
G01*
G75*
G02*
X54648Y13400I-104J107D01*
G01*
X54408D01*
G75*
G02*
X54331Y13421I0J150D01*
G01*
G75*
G02*
X54254Y13400I-77J129D01*
G01*
X54014D01*
G75*
G02*
X53937Y13421I0J150D01*
G01*
G75*
G02*
X53860Y13400I-77J129D01*
G01*
X53620D01*
G75*
G02*
X53544Y13421I0J148D01*
G01*
G75*
G02*
X53467Y13400I-77J129D01*
G01*
X53227D01*
G75*
G02*
X53150Y13421I0J150D01*
G01*
G75*
G02*
X53073Y13400I-77J129D01*
G01*
X52833D01*
G75*
G02*
X52756Y13421I0J150D01*
G01*
G75*
G02*
X52679Y13400I-77J129D01*
G01*
X52439D01*
G75*
G02*
X52362Y13421I0J150D01*
G01*
G75*
G02*
X52286Y13400I-76J127D01*
G01*
X52045D01*
G75*
G02*
X51969Y13421I0J148D01*
G01*
G75*
G02*
X51892Y13400I-77J129D01*
G01*
X51652D01*
G75*
G02*
X51548Y13442I0J149D01*
G01*
G75*
G02*
X51498Y13431I-50J109D01*
G01*
X51258D01*
G75*
G02*
X51181Y13460I1J119D01*
G01*
G75*
G02*
X51105Y13431I-77J89D01*
G01*
X50864D01*
G75*
G02*
X50815Y13442I1J118D01*
G01*
G75*
G02*
X50711Y13400I-104J107D01*
G01*
X50471D01*
G75*
G02*
X50394Y13421I0J150D01*
G01*
G75*
G02*
X50317Y13400I-77J129D01*
G01*
X50077D01*
G75*
G02*
X49927Y13550I0J150D01*
G01*
Y14089D01*
G75*
G02*
X50077Y14239I150J0D01*
G01*
X50317D01*
G75*
G02*
X50394Y14218I0J-150D01*
G01*
G75*
G02*
X50471Y14239I77J-129D01*
G01*
X50711D01*
G75*
G02*
X50807Y14204I0J-149D01*
G01*
Y22441D01*
X2756D01*
G37*
X50394Y12161D02*
G36*
X50394Y12161D02*
X50390Y12158D01*
X50397D01*
X50394Y12161D01*
G37*
X50784Y12158D02*
G36*
X50784Y12158D02*
X50807D01*
Y12174D01*
X50784Y12158D01*
G37*
X51556Y22441D02*
G36*
X51556Y22441D02*
Y14204D01*
G75*
G02*
X51652Y14239I96J-114D01*
G01*
X51892D01*
G75*
G02*
X51969Y14218I0J-150D01*
G01*
G75*
G02*
X52045Y14239I76J-127D01*
G01*
X52286D01*
G75*
G02*
X52362Y14218I0J-148D01*
G01*
G75*
G02*
X52439Y14239I77J-129D01*
G01*
X52679D01*
G75*
G02*
X52756Y14218I0J-150D01*
G01*
G75*
G02*
X52833Y14239I77J-129D01*
G01*
X53073D01*
G75*
G02*
X53150Y14218I0J-150D01*
G01*
G75*
G02*
X53227Y14239I77J-129D01*
G01*
X53467D01*
G75*
G02*
X53544Y14218I0J-150D01*
G01*
G75*
G02*
X53620Y14239I76J-127D01*
G01*
X53860D01*
G75*
G02*
X53937Y14218I0J-150D01*
G01*
G75*
G02*
X54014Y14239I77J-129D01*
G01*
X54254D01*
G75*
G02*
X54331Y14218I0J-150D01*
G01*
G75*
G02*
X54408Y14239I77J-129D01*
G01*
X54648D01*
G75*
G02*
X54752Y14197I0J-149D01*
G01*
G75*
G02*
X54801Y14207I47J-107D01*
G01*
X55011D01*
X54796Y14422D01*
G75*
G02*
X54744Y14547I124J125D01*
G01*
Y22441D01*
X51556D01*
G37*
X51949Y12174D02*
G36*
X51949Y12174D02*
Y12158D01*
X51972D01*
X51949Y12174D01*
G37*
X52359Y12158D02*
G36*
X52359Y12158D02*
X52382D01*
Y12174D01*
X52359Y12158D01*
G37*
X52737Y12174D02*
G36*
X52737Y12174D02*
Y12158D01*
X52760D01*
X52737Y12174D01*
G37*
X53146Y12158D02*
G36*
X53146Y12158D02*
X53169D01*
Y12174D01*
X53146Y12158D01*
G37*
X53524Y12174D02*
G36*
X53524Y12174D02*
Y12158D01*
X53547D01*
X53524Y12174D01*
G37*
X53934Y12158D02*
G36*
X53934Y12158D02*
X53957D01*
Y12174D01*
X53934Y12158D01*
G37*
X54311Y12174D02*
G36*
X54311Y12174D02*
Y12158D01*
X54334D01*
X54311Y12174D01*
G37*
X54752Y12182D02*
G36*
X54752Y12182D02*
X54721Y12158D01*
X55122D01*
X55091Y12182D01*
G75*
G02*
X55042Y12171I-50J107D01*
G01*
X54801D01*
G75*
G02*
X54752Y12182I1J118D01*
G01*
G37*
X55508Y12158D02*
G36*
X55508Y12158D02*
X55531D01*
Y12174D01*
X55508Y12158D01*
G37*
X2756Y24045D02*
G36*
X2756Y24045D02*
Y22441D01*
X50807D01*
Y24045D01*
X40774D01*
G75*
G02*
X40368I-203J187D01*
G01*
X39041D01*
G75*
G02*
X39115Y23858I-202J-188D01*
G01*
G75*
G02*
X38628Y23681I-276J0D01*
G01*
X38540D01*
G75*
G02*
X38622Y23484I-194J-196D01*
G01*
G75*
G02*
X38135Y23307I-276J0D01*
G01*
X35841D01*
G75*
G02*
X35354Y23484I-211J177D01*
G01*
G75*
G02*
X35762Y23727I276J0D01*
G01*
G75*
G02*
X35728Y23858I241J132D01*
G01*
G75*
G02*
X35801Y24045I276J0D01*
G01*
X2756D01*
G37*
X36207D02*
G36*
X36207Y24045D02*
X36215Y24036D01*
X36677D01*
X36668Y24045D01*
X36207D01*
G37*
X51556D02*
G36*
X51556Y24045D02*
Y22441D01*
X54744D01*
Y24045D01*
X51556D01*
G37*
X57067D02*
G36*
X57067Y24045D02*
Y22441D01*
X97874D01*
G75*
G02*
X98859I493J0D01*
G01*
X102835D01*
G75*
G02*
X103819I492J0D01*
G01*
X104331D01*
Y24045D01*
X57067D01*
G37*
X2756Y25197D02*
G36*
X2756Y25197D02*
Y24045D01*
X35801D01*
G75*
G02*
X36207I203J-187D01*
G01*
X36668D01*
G75*
G02*
X36594Y24232I202J188D01*
G01*
G75*
G02*
X36677Y24429I276J-1D01*
G01*
X36589D01*
G75*
G02*
X36102Y24606I-211J177D01*
G01*
G75*
G02*
X36589Y24784I276J0D01*
G01*
X39986D01*
G75*
G02*
X40473Y24606I211J-178D01*
G01*
G75*
G02*
X40439Y24475I-275J1D01*
G01*
G75*
G02*
X40847Y24232I132J-243D01*
G01*
G75*
G02*
X40774Y24045I-276J0D01*
G01*
X50807D01*
Y25197D01*
X16221D01*
G75*
G02*
X15734Y25020I-276J0D01*
G01*
X8617D01*
G75*
G02*
X8130Y25197I-211J177D01*
G01*
X2756D01*
G37*
X39032Y24055D02*
G36*
X39032Y24055D02*
X39041Y24045D01*
X40368D01*
X40360Y24055D01*
X39032D01*
G37*
X51556Y25197D02*
G36*
X51556Y25197D02*
Y24045D01*
X54744D01*
Y25197D01*
X51556D01*
G37*
X57067D02*
G36*
X57067Y25197D02*
Y24045D01*
X104331D01*
Y25197D01*
X95517D01*
G75*
G02*
X95569Y24914I-744J-283D01*
G01*
G75*
G02*
X94772Y24116I-797J0D01*
G01*
G75*
G02*
X93974Y24914I0J798D01*
G01*
G75*
G02*
X94026Y25197I796J0D01*
G01*
X90344D01*
G75*
G02*
X90396Y24914I-744J-283D01*
G01*
G75*
G02*
X89599Y24116I-797J0D01*
G01*
G75*
G02*
X88801Y24914I0J798D01*
G01*
G75*
G02*
X88853Y25197I796J0D01*
G01*
X57067D01*
G37*
X2756Y26772D02*
G36*
X2756Y26772D02*
Y25197D01*
X8130D01*
G75*
G02*
X8617Y25374I276J0D01*
G01*
X15734D01*
G75*
G02*
X16221Y25197I211J-177D01*
G01*
X50807D01*
Y26772D01*
X25119D01*
G75*
G02*
X24632Y26594I-276J0D01*
G01*
X24306D01*
G75*
G02*
X23819Y26772I-211J178D01*
G01*
X2756D01*
G37*
X51556D02*
G36*
X51556Y26772D02*
Y25197D01*
X54744D01*
Y26772D01*
X51556D01*
G37*
X57067D02*
G36*
X57067Y26772D02*
Y25197D01*
X88853D01*
G75*
G02*
X89599Y25711I746J-284D01*
G01*
G75*
G02*
X90344Y25197I0J-797D01*
G01*
X94026D01*
G75*
G02*
X94772Y25711I746J-284D01*
G01*
G75*
G02*
X95517Y25197I0J-797D01*
G01*
X104331D01*
Y26772D01*
X100378D01*
X100138Y26532D01*
Y26415D01*
G75*
G02*
X100237Y26162I-276J-254D01*
G01*
G75*
G02*
X99488I-374J0D01*
G01*
G75*
G02*
X99587Y26415I375J-1D01*
G01*
Y26645D01*
Y26646D01*
G75*
G02*
X99617Y26772I276J1D01*
G01*
X57067D01*
G37*
X2756Y28977D02*
G36*
X2756Y28977D02*
Y26772D01*
X23819D01*
G75*
G02*
X24306Y26949I276J0D01*
G01*
X24632D01*
G75*
G02*
X25119Y26772I211J-177D01*
G01*
X50807D01*
Y28977D01*
X2756D01*
G37*
X51556D02*
G36*
X51556Y28977D02*
Y26772D01*
X54744D01*
Y28977D01*
X51556D01*
G37*
X57067D02*
G36*
X57067Y28977D02*
Y26772D01*
X99617D01*
G75*
G02*
X99667Y26841I245J-125D01*
G01*
X100167Y27341D01*
G75*
G02*
X100363Y27422I195J-195D01*
G01*
X102713D01*
X103051Y27760D01*
Y28977D01*
X102855D01*
Y28544D01*
Y28544D01*
G75*
G02*
X102774Y28348I-277J0D01*
G01*
X102262Y27837D01*
G75*
G02*
X102066Y27756I-195J195D01*
G01*
X91256D01*
X91181Y27681D01*
G75*
G02*
X90433Y27697I-374J16D01*
G01*
G75*
G02*
X90791Y28071I374J0D01*
G01*
X90947Y28227D01*
G75*
G02*
X91143Y28307I194J-196D01*
G01*
X101953D01*
X102303Y28658D01*
Y28977D01*
X89075D01*
G75*
G02*
X88524I-275J0D01*
G01*
X82225D01*
Y28847D01*
G75*
G02*
X82172Y28721I-178J1D01*
G01*
X81673Y28222D01*
G75*
G02*
X81547Y28169I-127J125D01*
G01*
X78327D01*
Y27795D01*
G75*
G02*
X78209Y27677I-118J0D01*
G01*
X77264D01*
G75*
G02*
X77146Y27795I0J118D01*
G01*
Y28898D01*
G75*
G02*
X77176Y28977I119J0D01*
G01*
X74006D01*
G75*
G02*
X74036Y28898I-89J-79D01*
G01*
Y27795D01*
G75*
G02*
X73918Y27677I-118J0D01*
G01*
X72973D01*
G75*
G02*
X72854Y27795I0J118D01*
G01*
Y28169D01*
X70684D01*
G75*
G02*
X70197Y28347I-211J178D01*
G01*
G75*
G02*
X70684Y28524I276J0D01*
G01*
X72854D01*
Y28898D01*
G75*
G02*
X72884Y28977I119J0D01*
G01*
X57067D01*
G37*
X78327Y28898D02*
G36*
X78327Y28898D02*
Y28524D01*
X81474D01*
X81870Y28920D01*
Y28977D01*
X78297D01*
G75*
G02*
X78327Y28898I-89J-79D01*
G01*
G37*
X100477Y26870D02*
G36*
X100477Y26870D02*
X100378Y26772D01*
X104331D01*
Y28977D01*
X103603D01*
Y27647D01*
Y27646D01*
G75*
G02*
X103522Y27451I-276J0D01*
G01*
X103022Y26951D01*
G75*
G02*
X102826Y26870I-195J195D01*
G01*
X100477D01*
G37*
X2756Y29528D02*
G36*
X2756Y29528D02*
Y28977D01*
X50807D01*
Y29528D01*
X25119D01*
G75*
G02*
X24632Y29350I-276J0D01*
G01*
X23932D01*
G75*
G02*
X23445Y29528I-211J178D01*
G01*
X2756D01*
G37*
X51556D02*
G36*
X51556Y29528D02*
Y28977D01*
X54744D01*
Y29528D01*
X51556D01*
G37*
X57067D02*
G36*
X57067Y29528D02*
Y28977D01*
X72884D01*
G75*
G02*
X72973Y29016I88J-80D01*
G01*
X73918D01*
G75*
G02*
X74006Y28977I0J-118D01*
G01*
X77176D01*
G75*
G02*
X77264Y29016I88J-79D01*
G01*
X78209D01*
G75*
G02*
X78297Y28977I0J-118D01*
G01*
X81870D01*
Y29179D01*
G75*
G02*
X81772Y29390I177J211D01*
G01*
G75*
G02*
X81809Y29528I276J0D01*
G01*
X57067D01*
G37*
X82225Y29179D02*
G36*
X82225Y29179D02*
Y28977D01*
X88524D01*
G75*
G02*
X89075I276J0D01*
G01*
X102303D01*
Y29528D01*
X82286D01*
G75*
G02*
X82323Y29390I-239J-138D01*
G01*
G75*
G02*
X82225Y29179I-275J0D01*
G01*
G37*
X102855Y29528D02*
G36*
X102855Y29528D02*
Y28977D01*
X103051D01*
Y29528D01*
X102855D01*
G37*
X103603D02*
G36*
X103603Y29528D02*
Y28977D01*
X104331D01*
Y29528D01*
X103603D01*
G37*
X2756Y32215D02*
G36*
X2756Y32215D02*
Y29528D01*
X23445D01*
G75*
G02*
X23932Y29705I276J0D01*
G01*
X24632D01*
G75*
G02*
X25119Y29528I211J-177D01*
G01*
X50807D01*
Y32215D01*
X2756D01*
G37*
X51556D02*
G36*
X51556Y32215D02*
Y29528D01*
X54744D01*
Y32215D01*
X54311D01*
Y31511D01*
G75*
G02*
X54410Y31299I-178J-212D01*
G01*
G75*
G02*
X53858I-276J0D01*
G01*
G75*
G02*
X53957Y31511I277J0D01*
G01*
Y32215D01*
X51556D01*
G37*
X57067D02*
G36*
X57067Y32215D02*
Y29528D01*
X81809D01*
G75*
G02*
X82286I239J-138D01*
G01*
X102303D01*
Y32215D01*
X81749D01*
X81299Y31765D01*
G75*
G02*
X81173Y31713I-125J125D01*
G01*
X78327D01*
Y31339D01*
G75*
G02*
X78209Y31220I-118J0D01*
G01*
X77264D01*
G75*
G02*
X77146Y31339I0J119D01*
G01*
Y32215D01*
X74036D01*
Y31339D01*
G75*
G02*
X73918Y31220I-118J0D01*
G01*
X72973D01*
G75*
G02*
X72854Y31339I0J119D01*
G01*
Y31713D01*
X69896D01*
G75*
G02*
X69409Y31890I-211J177D01*
G01*
G75*
G02*
X69896Y32067I276J0D01*
G01*
X72854D01*
Y32215D01*
X57067D01*
G37*
X78327D02*
G36*
X78327Y32215D02*
Y32067D01*
X81100D01*
X81247Y32215D01*
X78327D01*
G37*
X102855D02*
G36*
X102855Y32215D02*
Y29528D01*
X103051D01*
Y32215D01*
X102855D01*
G37*
X103603D02*
G36*
X103603Y32215D02*
Y29528D01*
X104331D01*
Y32215D01*
X103603D01*
G37*
X2756Y32579D02*
G36*
X2756Y32579D02*
Y32215D01*
X50807D01*
Y32579D01*
X2756D01*
G37*
X51556D02*
G36*
X51556Y32579D02*
Y32215D01*
X53957D01*
Y32579D01*
X51556D01*
G37*
X54311D02*
G36*
X54311Y32579D02*
Y32215D01*
X54744D01*
Y32579D01*
X54311D01*
G37*
X57067D02*
G36*
X57067Y32579D02*
Y32215D01*
X72854D01*
Y32441D01*
G75*
G02*
X72973Y32559I119J0D01*
G01*
X73918D01*
G75*
G02*
X74036Y32441I0J-118D01*
G01*
Y32215D01*
X77146D01*
Y32441D01*
G75*
G02*
X77264Y32559I118J0D01*
G01*
X78209D01*
G75*
G02*
X78327Y32441I0J-118D01*
G01*
Y32215D01*
X81247D01*
X81496Y32463D01*
Y32579D01*
X57067D01*
G37*
X81798Y32264D02*
G36*
X81798Y32264D02*
X81749Y32215D01*
X102303D01*
Y32579D01*
X90689D01*
G75*
G02*
X90138I-275J0D01*
G01*
X81851D01*
Y32390D01*
G75*
G02*
X81798Y32264I-178J1D01*
G01*
G37*
X102855Y32579D02*
G36*
X102855Y32579D02*
Y32215D01*
X103051D01*
Y32579D01*
X102855D01*
G37*
X103603D02*
G36*
X103603Y32579D02*
Y32215D01*
X104331D01*
Y32579D01*
X103603D01*
G37*
X2756Y35620D02*
G36*
X2756Y35620D02*
Y32579D01*
X50807D01*
Y34435D01*
G75*
G02*
X50709Y34646I177J211D01*
G01*
G75*
G02*
X51107Y34893I276J0D01*
G01*
G75*
G02*
X51654Y34843I271J-50D01*
G01*
G75*
G02*
X51556Y34632I-275J0D01*
G01*
Y32579D01*
X53957D01*
Y35620D01*
X34376D01*
G75*
G02*
X33971I-202J187D01*
G01*
X31876D01*
G75*
G02*
X31568Y35553I-202J187D01*
G01*
G75*
G02*
X31595Y35433I-250J-119D01*
G01*
G75*
G02*
X31043I-276J0D01*
G01*
G75*
G02*
X31116Y35620I276J0D01*
G01*
X28248D01*
Y34477D01*
G75*
G02*
X28196Y34351I-177J-1D01*
G01*
X27697Y33852D01*
G75*
G02*
X27571Y33799I-127J125D01*
G01*
X23558D01*
G75*
G02*
X23071Y33977I-211J178D01*
G01*
G75*
G02*
X23558Y34154I276J0D01*
G01*
X27498D01*
X27894Y34550D01*
Y35620D01*
X2756D01*
G37*
X54311D02*
G36*
X54311Y35620D02*
Y32579D01*
X54744D01*
Y34390D01*
G75*
G02*
X54796Y34516I177J1D01*
G01*
X55052Y34771D01*
X55084Y34797D01*
G75*
G02*
X55438Y34893I231J-151D01*
G01*
G75*
G02*
X55980I271J-50D01*
G01*
G75*
G02*
X56225I123J-247D01*
G01*
G75*
G02*
X56767I271J-50D01*
G01*
G75*
G02*
X57166Y34646I123J-247D01*
G01*
G75*
G02*
X57067Y34435I-276J1D01*
G01*
Y32579D01*
X81496D01*
Y32722D01*
G75*
G02*
X81398Y32933I177J211D01*
G01*
G75*
G02*
X81949I276J0D01*
G01*
G75*
G02*
X81851Y32722I-275J0D01*
G01*
Y32579D01*
X90138D01*
G75*
G02*
X90689I276J0D01*
G01*
X102303D01*
Y35620D01*
X100810D01*
G75*
G02*
X100847Y35453I-356J-166D01*
G01*
G75*
G02*
X100059I-394J0D01*
G01*
G75*
G02*
X100096Y35620I393J1D01*
G01*
X75117D01*
G75*
G02*
X74569I-274J30D01*
G01*
X64868D01*
G75*
G02*
X64463I-202J187D01*
G01*
X54311D01*
G37*
X102855D02*
G36*
X102855Y35620D02*
Y32579D01*
X103051D01*
Y35620D01*
X102855D01*
G37*
X103603D02*
G36*
X103603Y35620D02*
Y32579D01*
X104331D01*
Y35620D01*
X103603D01*
G37*
X2756Y37362D02*
G36*
X2756Y37362D02*
Y35620D01*
X27894D01*
Y36559D01*
G75*
G02*
X27486Y36575I-197J193D01*
G01*
X23558D01*
G75*
G02*
X23071Y36752I-211J177D01*
G01*
G75*
G02*
X23558Y36930I276J0D01*
G01*
X27486D01*
G75*
G02*
X27894Y36946I211J-177D01*
G01*
Y37053D01*
G75*
G02*
X27795Y37264I177J212D01*
G01*
G75*
G02*
X27813Y37362I275J0D01*
G01*
X2756D01*
G37*
X28248Y37053D02*
G36*
X28248Y37053D02*
Y35620D01*
X31116D01*
X31142Y35644D01*
Y37362D01*
X30355D01*
G75*
G02*
X29803I-276J0D01*
G01*
X28329D01*
G75*
G02*
X28347Y37264I-257J-98D01*
G01*
G75*
G02*
X28248Y37053I-276J1D01*
G01*
G37*
X31496Y37362D02*
G36*
X31496Y37362D02*
Y36019D01*
G75*
G02*
X31885Y35985I177J-212D01*
G01*
X33962D01*
G75*
G02*
X34449Y35807I211J-178D01*
G01*
G75*
G02*
X34376Y35620I-276J0D01*
G01*
X53957D01*
Y36828D01*
X53561Y37224D01*
X53170D01*
Y36851D01*
G75*
G02*
X53051Y36732I-119J0D01*
G01*
X52106D01*
G75*
G02*
X51988Y36851I0J119D01*
G01*
Y37362D01*
X31496D01*
G37*
X31885Y35630D02*
G36*
X31885Y35630D02*
X31876Y35620D01*
X33971D01*
X33962Y35630D01*
X31885D01*
G37*
X53924Y37362D02*
G36*
X53924Y37362D02*
X54259Y37028D01*
G75*
G02*
X54311Y36902I-125J-125D01*
G01*
Y35620D01*
X64463D01*
G75*
G02*
X64390Y35807I203J187D01*
G01*
G75*
G02*
X64689Y36082I276J0D01*
G01*
X65970Y37362D01*
X62456D01*
X62370Y37277D01*
G75*
G02*
X62244Y37224I-127J125D01*
G01*
X57461D01*
Y36851D01*
G75*
G02*
X57343Y36732I-118J0D01*
G01*
X56398D01*
G75*
G02*
X56280Y36851I0J119D01*
G01*
Y37362D01*
X53924D01*
G37*
X64941Y35807D02*
G36*
X64941Y35807D02*
G75*
G02*
X64868Y35620I-276J0D01*
G01*
X74569D01*
X74567Y35650D01*
G75*
G02*
X75119I276J0D01*
G01*
X75117Y35620D01*
X100096D01*
G75*
G02*
X100810I357J-168D01*
G01*
X102303D01*
Y37362D01*
X100752D01*
G75*
G02*
X100154I-299J256D01*
G01*
X66471D01*
X64940Y35831D01*
X64941Y35807D01*
G37*
X102855Y37362D02*
G36*
X102855Y37362D02*
Y35620D01*
X103051D01*
Y37362D01*
X102855D01*
G37*
X103603D02*
G36*
X103603Y37362D02*
Y35620D01*
X104331D01*
Y37362D01*
X103603D01*
G37*
X2756Y38445D02*
G36*
X2756Y38445D02*
Y37362D01*
X27813D01*
G75*
G02*
X28329I258J-99D01*
G01*
X29803D01*
G75*
G02*
X30355I276J0D01*
G01*
X31142D01*
Y38445D01*
X30355D01*
G75*
G02*
X29803I-276J0D01*
G01*
X2756D01*
G37*
X31496D02*
G36*
X31496Y38445D02*
Y37362D01*
X51988D01*
Y37953D01*
G75*
G02*
X52106Y38071I118J0D01*
G01*
X53051D01*
G75*
G02*
X53170Y37953I0J-118D01*
G01*
Y37579D01*
X53634D01*
G75*
G02*
X53760Y37527I1J-177D01*
G01*
X53924Y37362D01*
X56280D01*
Y37953D01*
G75*
G02*
X56398Y38071I118J0D01*
G01*
X57343D01*
G75*
G02*
X57461Y37953I0J-118D01*
G01*
Y37579D01*
X62171D01*
X63036Y38445D01*
X33419D01*
G75*
G02*
X33077I-171J217D01*
G01*
X31496D01*
G37*
X63537D02*
G36*
X63537Y38445D02*
X62456Y37362D01*
X65970D01*
X67053Y38445D01*
X63537D01*
G37*
X67554D02*
G36*
X67554Y38445D02*
X66471Y37362D01*
X100154D01*
G75*
G02*
X100059Y37618I299J257D01*
G01*
G75*
G02*
X100847I394J0D01*
G01*
G75*
G02*
X100752Y37362I-394J1D01*
G01*
X102303D01*
Y38445D01*
X67554D01*
G37*
X102855D02*
G36*
X102855Y38445D02*
Y37362D01*
X103051D01*
Y38445D01*
X102855D01*
G37*
X103603D02*
G36*
X103603Y38445D02*
Y37362D01*
X104331D01*
Y38445D01*
X103603D01*
G37*
X2756Y39331D02*
G36*
X2756Y39331D02*
Y38445D01*
X29803D01*
G75*
G02*
X30355I276J0D01*
G01*
X31142D01*
Y39331D01*
X26634D01*
G75*
G02*
X26147Y39154I-276J0D01*
G01*
X23558D01*
G75*
G02*
X23071Y39331I-211J177D01*
G01*
X2756D01*
G37*
X31496D02*
G36*
X31496Y39331D02*
Y38445D01*
X33077D01*
G75*
G02*
X32972Y38662I171J217D01*
G01*
G75*
G02*
X33524I276J0D01*
G01*
G75*
G02*
X33419Y38445I-276J0D01*
G01*
X63036D01*
X63920Y39331D01*
X31496D01*
G37*
X64422D02*
G36*
X64422Y39331D02*
X63537Y38445D01*
X67053D01*
X67938Y39331D01*
X64422D01*
G37*
X68440D02*
G36*
X68440Y39331D02*
X67554Y38445D01*
X102303D01*
Y39331D01*
X68440D01*
G37*
X102855D02*
G36*
X102855Y39331D02*
Y38445D01*
X103051D01*
Y39331D01*
X102855D01*
G37*
X103603D02*
G36*
X103603Y39331D02*
Y38445D01*
X104331D01*
Y39331D01*
X103603D01*
G37*
X2756Y40630D02*
G36*
X2756Y40630D02*
Y39331D01*
X23071D01*
G75*
G02*
X23558Y39508I276J0D01*
G01*
X26147D01*
G75*
G02*
X26634Y39331I211J-177D01*
G01*
X31142D01*
Y40630D01*
X26260D01*
G75*
G02*
X25709I-275J0D01*
G01*
X2756D01*
G37*
X31496D02*
G36*
X31496Y40630D02*
Y39331D01*
X63920D01*
X65218Y40630D01*
X57461D01*
Y40394D01*
G75*
G02*
X57343Y40276I-118J0D01*
G01*
X56398D01*
G75*
G02*
X56280Y40394I0J118D01*
G01*
Y40630D01*
X53170D01*
Y40394D01*
G75*
G02*
X53051Y40276I-119J0D01*
G01*
X52106D01*
G75*
G02*
X51988Y40394I0J118D01*
G01*
Y40630D01*
X31496D01*
G37*
X65719D02*
G36*
X65719Y40630D02*
X64422Y39331D01*
X67938D01*
X69238Y40630D01*
X65719D01*
G37*
X69739D02*
G36*
X69739Y40630D02*
X68440Y39331D01*
X102303D01*
Y40291D01*
X101965Y40630D01*
X95588D01*
G75*
G02*
X95082Y40630I-253J276D01*
G01*
X78681D01*
Y40250D01*
G75*
G02*
X78629Y40125I-176J0D01*
G01*
X78366Y39861D01*
X78367Y39839D01*
G75*
G02*
X77815I-276J0D01*
G01*
G75*
G02*
X78116Y40113I275J0D01*
G01*
X78327Y40324D01*
Y40630D01*
X74836D01*
G75*
G02*
X74495I-170J216D01*
G01*
X69739D01*
G37*
X102745D02*
G36*
X102745Y40630D02*
X102774Y40601D01*
G75*
G02*
X102855Y40406I-195J-195D01*
G01*
Y40405D01*
Y39331D01*
X103051D01*
Y40630D01*
X102745D01*
G37*
X103603D02*
G36*
X103603Y40630D02*
Y39331D01*
X104331D01*
Y40630D01*
X103603D01*
G37*
X2756Y41162D02*
G36*
X2756Y41162D02*
Y40630D01*
X25709D01*
G75*
G02*
X26260I276J0D01*
G01*
X31142D01*
Y41162D01*
X2756D01*
G37*
X31496D02*
G36*
X31496Y41162D02*
Y40630D01*
X51988D01*
Y41162D01*
X31496D01*
G37*
X53170D02*
G36*
X53170Y41162D02*
Y40630D01*
X56280D01*
Y41162D01*
X53170D01*
G37*
X57461Y40768D02*
G36*
X57461Y40768D02*
Y40630D01*
X65218D01*
X65749Y41162D01*
X62897D01*
X62555Y40820D01*
G75*
G02*
X62429Y40768I-125J125D01*
G01*
X57461D01*
G37*
Y41162D02*
G36*
X57461Y41162D02*
Y41122D01*
X62356D01*
X62395Y41162D01*
X57461D01*
G37*
X66250D02*
G36*
X66250Y41162D02*
X65719Y40630D01*
X69238D01*
X69769Y41162D01*
X66250D01*
G37*
X70271D02*
G36*
X70271Y41162D02*
X69739Y40630D01*
X74495D01*
G75*
G02*
X74390Y40847I171J217D01*
G01*
G75*
G02*
X74877Y41024I276J0D01*
G01*
X78293D01*
G75*
G02*
X78780Y40847I211J-177D01*
G01*
G75*
G02*
X78681Y40635I-277J0D01*
G01*
Y40630D01*
X95082D01*
G75*
G02*
X94961Y40906I254J276D01*
G01*
G75*
G02*
X95062Y41162I374J0D01*
G01*
X80729D01*
G75*
G02*
X80177I-276J0D01*
G01*
X70271D01*
G37*
X74877Y40669D02*
G36*
X74877Y40669D02*
X74836Y40630D01*
X78327D01*
Y40635D01*
X78293Y40669D01*
X74877D01*
G37*
X102182Y41162D02*
G36*
X102182Y41162D02*
G75*
G02*
X102274Y41101I-103J-255D01*
G01*
X102745Y40630D01*
X103051D01*
Y41162D01*
X102182D01*
G37*
X103603D02*
G36*
X103603Y41162D02*
Y40630D01*
X104331D01*
Y41162D01*
X103603D01*
G37*
X2756Y41831D02*
G36*
X2756Y41831D02*
Y41162D01*
X31142D01*
Y41831D01*
X20945D01*
G75*
G02*
X20394I-275J0D01*
G01*
X2756D01*
G37*
X31496D02*
G36*
X31496Y41831D02*
Y41162D01*
X51988D01*
Y41496D01*
G75*
G02*
X52106Y41615I118J0D01*
G01*
X52402D01*
Y41831D01*
X31496D01*
G37*
X52756D02*
G36*
X52756Y41831D02*
Y41615D01*
X53051D01*
G75*
G02*
X53170Y41496I0J-119D01*
G01*
Y41162D01*
X56280D01*
Y41496D01*
G75*
G02*
X56398Y41615I118J0D01*
G01*
X57343D01*
G75*
G02*
X57461Y41496I0J-119D01*
G01*
Y41162D01*
X62395D01*
X63064Y41831D01*
X52756D01*
G37*
X63566D02*
G36*
X63566Y41831D02*
X62897Y41162D01*
X65749D01*
X66417Y41831D01*
X63566D01*
G37*
X66919D02*
G36*
X66919Y41831D02*
X66250Y41162D01*
X69769D01*
X70438Y41831D01*
X66919D01*
G37*
X70940D02*
G36*
X70940Y41831D02*
X70271Y41162D01*
X80177D01*
G75*
G02*
X80729I276J0D01*
G01*
X95062D01*
G75*
G02*
X95588Y41181I273J-256D01*
G01*
X102078D01*
G75*
G02*
X102182Y41162I3J-277D01*
G01*
X103051D01*
Y41831D01*
X74941D01*
G75*
G02*
X74390I-275J8D01*
G01*
X73754D01*
G75*
G02*
X73412I-171J217D01*
G01*
X70940D01*
G37*
X103603D02*
G36*
X103603Y41831D02*
Y41162D01*
X104331D01*
Y41831D01*
X103603D01*
G37*
X2756Y42795D02*
G36*
X2756Y42795D02*
Y41831D01*
X20394D01*
G75*
G02*
X20945I276J0D01*
G01*
X31142D01*
Y42112D01*
G75*
G02*
X31043Y42323I177J212D01*
G01*
G75*
G02*
X31595I276J0D01*
G01*
G75*
G02*
X31496Y42112I-276J1D01*
G01*
Y41831D01*
X52402D01*
Y42795D01*
X30867D01*
G75*
G02*
X30315I-276J0D01*
G01*
X2756D01*
G37*
X52756D02*
G36*
X52756Y42795D02*
Y41831D01*
X63064D01*
X64029Y42795D01*
X52756D01*
G37*
X64531D02*
G36*
X64531Y42795D02*
X63566Y41831D01*
X66417D01*
X67381Y42795D01*
X64531D01*
G37*
X67882D02*
G36*
X67882Y42795D02*
X66919Y41831D01*
X70438D01*
X71403Y42795D01*
X67882D01*
G37*
X71905D02*
G36*
X71905Y42795D02*
X70940Y41831D01*
X73412D01*
G75*
G02*
X73307Y42047I170J216D01*
G01*
G75*
G02*
X73859I276J0D01*
G01*
G75*
G02*
X73754Y41831I-275J0D01*
G01*
X74390D01*
X74390Y41839D01*
G75*
G02*
X74941I276J0D01*
G01*
X74941Y41831D01*
X103051D01*
Y42795D01*
X71905D01*
G37*
X103603D02*
G36*
X103603Y42795D02*
Y41831D01*
X104331D01*
Y42795D01*
X103603D01*
G37*
X2756Y44567D02*
G36*
X2756Y44567D02*
Y42795D01*
X30315D01*
G75*
G02*
X30867I276J0D01*
G01*
X52402D01*
Y44384D01*
G75*
G02*
X52454Y44510I177J1D01*
G01*
X52511Y44567D01*
X51442D01*
G75*
G02*
X51556Y44252I-378J-315D01*
G01*
G75*
G02*
X50571I-492J0D01*
G01*
G75*
G02*
X50685Y44567I492J0D01*
G01*
X20945D01*
G75*
G02*
X20394I-275J0D01*
G01*
X2756D01*
G37*
X52756Y44311D02*
G36*
X52756Y44311D02*
Y42795D01*
X64029D01*
X65801Y44567D01*
X56402D01*
G75*
G02*
X56516Y44252I-378J-315D01*
G01*
G75*
G02*
X55531I-492J0D01*
G01*
G75*
G02*
X55645Y44567I492J0D01*
G01*
X53013D01*
X52756Y44311D01*
G37*
X66302Y44567D02*
G36*
X66302Y44567D02*
X64531Y42795D01*
X67381D01*
X68733Y44149D01*
X68733Y44149D01*
X69151Y44567D01*
X66302D01*
G37*
X68984Y43899D02*
G36*
X68984Y43899D02*
X67882Y42795D01*
X71403D01*
X73175Y44567D01*
X71943D01*
G75*
G02*
X72048Y44351I-170J-216D01*
G01*
G75*
G02*
X71496I-276J0D01*
G01*
G75*
G02*
X71601Y44567I275J0D01*
G01*
X69652D01*
X68984Y43899D01*
G37*
X73676Y44567D02*
G36*
X73676Y44567D02*
X71905Y42795D01*
X103051D01*
Y44567D01*
X102367D01*
G75*
G02*
X101571I-398J217D01*
G01*
X100379D01*
G75*
G02*
X99495I-442J216D01*
G01*
X87141D01*
X86307Y43733D01*
G75*
G02*
X86181Y43681I-125J125D01*
G01*
X80152D01*
G75*
G02*
X79665Y43858I-211J177D01*
G01*
G75*
G02*
X80152Y44036I276J0D01*
G01*
X86108D01*
X86639Y44567D01*
X73676D01*
G37*
X103603D02*
G36*
X103603Y44567D02*
Y42795D01*
X104331D01*
Y44567D01*
X103603D01*
G37*
X2756Y44862D02*
G36*
X2756Y44862D02*
Y44567D01*
X20394D01*
G75*
G02*
X20945I276J0D01*
G01*
X50685D01*
G75*
G02*
X51442I379J-315D01*
G01*
X52511D01*
X52806Y44862D01*
X33544D01*
G75*
G02*
X32992I-276J0D01*
G01*
X2756D01*
G37*
X53146Y44700D02*
G36*
X53146Y44700D02*
X53013Y44567D01*
X55645D01*
G75*
G02*
X56402I379J-315D01*
G01*
X65801D01*
X66096Y44862D01*
X53421D01*
G75*
G02*
X53146Y44700I-251J112D01*
G01*
G37*
X66598Y44862D02*
G36*
X66598Y44862D02*
X66302Y44567D01*
X69151D01*
X69446Y44862D01*
X66598D01*
G37*
X69948D02*
G36*
X69948Y44862D02*
X69652Y44567D01*
X71601D01*
G75*
G02*
X71943I171J-217D01*
G01*
X73175D01*
X73470Y44862D01*
X69948D01*
G37*
X73971D02*
G36*
X73971Y44862D02*
X73676Y44567D01*
X86639D01*
X86934Y44862D01*
X73971D01*
G37*
X87436D02*
G36*
X87436Y44862D02*
X87141Y44567D01*
X99495D01*
G75*
G02*
X99445Y44784I443J216D01*
G01*
X99451Y44862D01*
X87436D01*
G37*
X100430Y44784D02*
G36*
X100430Y44784D02*
G75*
G02*
X100379Y44567I-494J2D01*
G01*
X101571D01*
G75*
G02*
X101516Y44784I399J217D01*
G01*
X101523Y44862D01*
X100423D01*
G75*
G02*
X100430Y44784I-481J-82D01*
G01*
G37*
X102422D02*
G36*
X102422Y44784D02*
G75*
G02*
X102367Y44567I-454J0D01*
G01*
X103051D01*
Y44862D01*
X102415D01*
G75*
G02*
X102422Y44784I-442J-79D01*
G01*
G37*
X103603Y44862D02*
G36*
X103603Y44862D02*
Y44567D01*
X104331D01*
Y44862D01*
X103603D01*
G37*
X2756Y45394D02*
G36*
X2756Y45394D02*
Y44862D01*
X32992D01*
G75*
G02*
X33544I276J0D01*
G01*
X52806D01*
X52895Y44951D01*
X52894Y44975D01*
G75*
G02*
X53445I276J0D01*
G01*
G75*
G02*
X53421Y44862I-278J0D01*
G01*
X66096D01*
X66627Y45394D01*
X30886D01*
G75*
G02*
X30335I-275J0D01*
G01*
X29075D01*
G75*
G02*
X28588Y45217I-276J0D01*
G01*
X28243D01*
G75*
G02*
X27756Y45394I-211J177D01*
G01*
X2756D01*
G37*
X67129D02*
G36*
X67129Y45394D02*
X66598Y44862D01*
X69446D01*
X69978Y45394D01*
X67129D01*
G37*
X70479D02*
G36*
X70479Y45394D02*
X69948Y44862D01*
X73470D01*
X74001Y45394D01*
X70479D01*
G37*
X74503D02*
G36*
X74503Y45394D02*
X73971Y44862D01*
X86934D01*
X87466Y45394D01*
X74503D01*
G37*
X87968D02*
G36*
X87968Y45394D02*
X87436Y44862D01*
X99451D01*
G75*
G02*
X100423I486J-79D01*
G01*
X101523D01*
G75*
G02*
X102415I446J-79D01*
G01*
X103051D01*
Y45114D01*
X102772Y45394D01*
X87968D01*
G37*
X103603Y45228D02*
G36*
X103603Y45228D02*
Y44862D01*
X104331D01*
Y45394D01*
X103548D01*
G75*
G02*
X103603Y45229I-220J-165D01*
G01*
Y45228D01*
G37*
X2756Y46654D02*
G36*
X2756Y46654D02*
Y45394D01*
X27756D01*
G75*
G02*
X28243Y45571I276J0D01*
G01*
X28588D01*
G75*
G02*
X29075Y45394I211J-177D01*
G01*
X30335D01*
G75*
G02*
X30886I276J0D01*
G01*
X66627D01*
X67887Y46654D01*
X65551D01*
G75*
G02*
X65065Y46496I-275J19D01*
G01*
X64719D01*
G75*
G02*
X64233Y46654I-211J177D01*
G01*
X26300D01*
G75*
G02*
X25748I-276J0D01*
G01*
X2756D01*
G37*
X68389D02*
G36*
X68389Y46654D02*
X67129Y45394D01*
X69978D01*
X70335Y45751D01*
Y46654D01*
X68389D01*
G37*
X70637Y45552D02*
G36*
X70637Y45552D02*
X70479Y45394D01*
X74001D01*
X75261Y46654D01*
X70689D01*
Y45678D01*
G75*
G02*
X70637Y45552I-177J-1D01*
G01*
G37*
X75763Y46654D02*
G36*
X75763Y46654D02*
X74503Y45394D01*
X87466D01*
X88563Y46491D01*
Y46654D01*
X87713D01*
G75*
G02*
X87327I-193J197D01*
G01*
X75763D01*
G37*
X88865Y46292D02*
G36*
X88865Y46292D02*
X87968Y45394D01*
X102772D01*
X102713Y45453D01*
X97668D01*
G75*
G02*
X97473Y45534I0J275D01*
G01*
X97207Y45799D01*
X97195Y45812D01*
X96884Y46161D01*
X96513D01*
G75*
G02*
X95886Y46437I-253J276D01*
G01*
G75*
G02*
X95955Y46654I375J0D01*
G01*
X88918D01*
Y46418D01*
G75*
G02*
X88865Y46292I-178J1D01*
G01*
G37*
X97179Y46654D02*
G36*
X97179Y46654D02*
X97214Y46620D01*
X97602Y46184D01*
X97782Y46004D01*
X102826D01*
G75*
G02*
X103022Y45924I2J-276D01*
G01*
X103522Y45424D01*
X103548Y45394D01*
X104331D01*
Y46654D01*
X97179D01*
G37*
X2756Y47736D02*
G36*
X2756Y47736D02*
Y46654D01*
X25748D01*
G75*
G02*
X26300I276J0D01*
G01*
X64233D01*
X64232Y46673D01*
G75*
G02*
X64719Y46851I276J0D01*
G01*
X65065D01*
G75*
G02*
X65552Y46673I211J-178D01*
G01*
X65551Y46654D01*
X67887D01*
X68970Y47736D01*
X61221D01*
G75*
G02*
X60669I-276J0D01*
G01*
X2756D01*
G37*
X69472D02*
G36*
X69472Y47736D02*
X68389Y46654D01*
X70335D01*
Y47736D01*
X69472D01*
G37*
X70689D02*
G36*
X70689Y47736D02*
Y46654D01*
X75261D01*
X75583Y46976D01*
G75*
G02*
X75709Y47028I125J-125D01*
G01*
X87309D01*
G75*
G02*
X87796Y46851I211J-177D01*
G01*
G75*
G02*
X87713Y46654I-276J0D01*
G01*
X88563D01*
Y46659D01*
G75*
G02*
X88465Y46870I177J211D01*
G01*
G75*
G02*
X89016I276J0D01*
G01*
G75*
G02*
X88918Y46659I-275J0D01*
G01*
Y46654D01*
X95955D01*
G75*
G02*
X96513Y46713I305J-217D01*
G01*
X97008D01*
G75*
G02*
X97179Y46654I1J-276D01*
G01*
X104331D01*
Y47736D01*
X70689D01*
G37*
X75782Y46673D02*
G36*
X75782Y46673D02*
X75763Y46654D01*
X87327D01*
X87309Y46673D01*
X75782D01*
G37*
X2756Y50492D02*
G36*
X2756Y50492D02*
Y47736D01*
X60669D01*
G75*
G02*
X61221I276J0D01*
G01*
X68970D01*
X69783Y48550D01*
Y50492D01*
X59804D01*
Y50430D01*
G75*
G02*
X59751Y50304I-178J1D01*
G01*
X59466Y50019D01*
G75*
G02*
X59341Y49967I-125J124D01*
G01*
X59247D01*
G75*
G02*
X58760Y50144I-211J177D01*
G01*
G75*
G02*
X59247Y50321I276J0D01*
G01*
X59267D01*
X59438Y50492D01*
X2756D01*
G37*
X70086Y48351D02*
G36*
X70086Y48351D02*
X69472Y47736D01*
X70335D01*
Y50492D01*
X70138D01*
Y48477D01*
G75*
G02*
X70086Y48351I-177J-1D01*
G01*
G37*
X70689Y50492D02*
G36*
X70689Y50492D02*
Y47736D01*
X104331D01*
Y50492D01*
X72441D01*
G75*
G02*
X71890I-275J0D01*
G01*
X70689D01*
G37*
X2756Y53406D02*
G36*
X2756Y53406D02*
Y50492D01*
X59438D01*
X59449Y50503D01*
Y52752D01*
G75*
G02*
X59501Y52878I177J1D01*
G01*
X59789Y53166D01*
X59549Y53406D01*
X57815D01*
G75*
G02*
X57264I-275J0D01*
G01*
X49823D01*
G75*
G02*
X49272I-275J0D01*
G01*
X2756D01*
G37*
X59804Y52679D02*
G36*
X59804Y52679D02*
Y50492D01*
X69783D01*
Y53406D01*
X67839D01*
G75*
G02*
X67634I-102J255D01*
G01*
X65939D01*
G75*
G02*
X65754I-92J260D01*
G01*
X62616D01*
G75*
G02*
X62756Y53166I-136J-240D01*
G01*
G75*
G02*
X62269Y52988I-276J0D01*
G01*
X60113D01*
X59804Y52679D01*
G37*
X60050Y53406D02*
G36*
X60050Y53406D02*
X60113Y53343D01*
X62269D01*
G75*
G02*
X62345Y53406I212J-178D01*
G01*
X60050D01*
G37*
X70138D02*
G36*
X70138Y53406D02*
Y50492D01*
X70335D01*
Y53406D01*
X70138D01*
G37*
X70689D02*
G36*
X70689Y53406D02*
Y50492D01*
X71890D01*
G75*
G02*
X72441I276J0D01*
G01*
X104331D01*
Y53406D01*
X70689D01*
G37*
X2756Y53937D02*
G36*
X2756Y53937D02*
Y53406D01*
X49272D01*
G75*
G02*
X49823I276J0D01*
G01*
X57264D01*
G75*
G02*
X57815I276J0D01*
G01*
X59549D01*
X59511Y53443D01*
G75*
G02*
X59459Y53569I125J125D01*
G01*
Y53937D01*
X26674D01*
G75*
G02*
X26187Y53760I-276J0D01*
G01*
X23026D01*
G75*
G02*
X22539Y53937I-211J177D01*
G01*
X2756D01*
G37*
X59813D02*
G36*
X59813Y53937D02*
Y53643D01*
X60050Y53406D01*
X62345D01*
G75*
G02*
X62616I136J-240D01*
G01*
X65754D01*
G75*
G02*
X65571Y53666I93J260D01*
G01*
G75*
G02*
X65799Y53937I275J0D01*
G01*
X59813D01*
G37*
X66058Y53488D02*
G36*
X66058Y53488D02*
G75*
G02*
X65939Y53406I-210J178D01*
G01*
X67634D01*
G75*
G02*
X67522Y53488I102J256D01*
G01*
X66058D01*
G37*
X65894Y53937D02*
G36*
X65894Y53937D02*
G75*
G02*
X66058Y53843I-47J-272D01*
G01*
X67529D01*
G75*
G02*
X67726Y53937I207J-181D01*
G01*
X65894D01*
G37*
X68012Y53662D02*
G36*
X68012Y53662D02*
G75*
G02*
X67839Y53406I-276J0D01*
G01*
X69783D01*
Y53937D01*
X67747D01*
G75*
G02*
X68012Y53662I-10J-275D01*
G01*
G37*
X70138Y53937D02*
G36*
X70138Y53937D02*
Y53406D01*
X70335D01*
Y53937D01*
X70138D01*
G37*
X70689D02*
G36*
X70689Y53937D02*
Y53406D01*
X104331D01*
Y53937D01*
X70689D01*
G37*
X2756Y54232D02*
G36*
X2756Y54232D02*
Y53937D01*
X22539D01*
G75*
G02*
X23026Y54115I276J0D01*
G01*
X26187D01*
G75*
G02*
X26674Y53937I211J-178D01*
G01*
X59459D01*
Y54232D01*
X2756D01*
G37*
X59813D02*
G36*
X59813Y54232D02*
Y53937D01*
X65799D01*
G75*
G02*
X65894I48J-271D01*
G01*
X67726D01*
X67747D01*
X69783D01*
Y54232D01*
X59813D01*
G37*
X70138D02*
G36*
X70138Y54232D02*
Y53937D01*
X70335D01*
Y54232D01*
X70138D01*
G37*
X70689D02*
G36*
X70689Y54232D02*
Y53937D01*
X104331D01*
Y54232D01*
X91772D01*
G75*
G02*
X91285Y54055I-276J0D01*
G01*
X82515D01*
G75*
G02*
X82028Y54232I-211J177D01*
G01*
X70689D01*
G37*
X2756Y55276D02*
G36*
X2756Y55276D02*
Y54232D01*
X59459D01*
Y55276D01*
X2756D01*
G37*
X59813D02*
G36*
X59813Y55276D02*
Y54232D01*
X69783D01*
Y55276D01*
X59813D01*
G37*
X70138D02*
G36*
X70138Y55276D02*
Y54232D01*
X70335D01*
Y55276D01*
X70138D01*
G37*
X70689D02*
G36*
X70689Y55276D02*
Y54232D01*
X82028D01*
G75*
G02*
X82515Y54410I276J0D01*
G01*
X91285D01*
G75*
G02*
X91772Y54232I211J-178D01*
G01*
X104331D01*
Y55276D01*
X91831D01*
G75*
G02*
X91344Y55098I-276J0D01*
G01*
X86255D01*
G75*
G02*
X85768Y55276I-211J178D01*
G01*
X70689D01*
G37*
X2756Y56695D02*
G36*
X2756Y56695D02*
Y55276D01*
X59459D01*
Y56695D01*
X25158D01*
G75*
G02*
X24671Y56520I-276J2D01*
G01*
X23896D01*
X23858Y56516D01*
X23007D01*
G75*
G02*
X22520Y56693I-211J177D01*
G01*
X22520Y56695D01*
X2756D01*
G37*
X59813D02*
G36*
X59813Y56695D02*
Y55276D01*
X69783D01*
Y56695D01*
X59813D01*
G37*
X70138D02*
G36*
X70138Y56695D02*
Y55276D01*
X70335D01*
Y56695D01*
X70138D01*
G37*
X70689D02*
G36*
X70689Y56695D02*
Y55276D01*
X85768D01*
G75*
G02*
X86255Y55453I276J0D01*
G01*
X91344D01*
G75*
G02*
X91831Y55276I211J-177D01*
G01*
X104331D01*
Y56695D01*
X82953D01*
X82953Y56693D01*
G75*
G02*
X82466Y56516I-276J0D01*
G01*
X81083D01*
Y56142D01*
G75*
G02*
X80965Y56024I-118J0D01*
G01*
X80020D01*
G75*
G02*
X79902Y56142I0J118D01*
G01*
Y56695D01*
X76792D01*
Y56142D01*
G75*
G02*
X76673Y56024I-119J0D01*
G01*
X75729D01*
G75*
G02*
X75610Y56142I0J118D01*
G01*
Y56516D01*
X75211D01*
G75*
G02*
X74724Y56693I-211J177D01*
G01*
X74724Y56695D01*
X70689D01*
G37*
X2756Y58544D02*
G36*
X2756Y58544D02*
Y56695D01*
X22520D01*
G75*
G02*
X23007Y56870I276J-2D01*
G01*
X23821D01*
X23858Y56874D01*
X24671D01*
G75*
G02*
X25158Y56697I211J-177D01*
G01*
X25158Y56695D01*
X59459D01*
Y58544D01*
X49430D01*
Y57357D01*
X49582Y57205D01*
X56777D01*
G75*
G02*
X57264Y57028I211J-177D01*
G01*
G75*
G02*
X56777Y56850I-276J0D01*
G01*
X49508D01*
G75*
G02*
X49382Y56903I1J178D01*
G01*
X49127Y57158D01*
G75*
G02*
X49075Y57284I125J125D01*
G01*
Y58544D01*
X29410D01*
G75*
G02*
X28858I-276J0D01*
G01*
X2756D01*
G37*
X59813D02*
G36*
X59813Y58544D02*
Y56695D01*
X69783D01*
Y58544D01*
X69511D01*
G75*
G02*
X69548Y58406I-239J-138D01*
G01*
G75*
G02*
X68996I-276J0D01*
G01*
G75*
G02*
X69033Y58544I276J0D01*
G01*
X68763D01*
G75*
G02*
X68800Y58406I-239J-138D01*
G01*
G75*
G02*
X68313Y58228I-276J0D01*
G01*
X66648D01*
G75*
G02*
X66161Y58406I-211J178D01*
G01*
G75*
G02*
X66198Y58544I276J0D01*
G01*
X64971D01*
G75*
G02*
X65020Y58386I-227J-157D01*
G01*
G75*
G02*
X64469I-275J0D01*
G01*
G75*
G02*
X64518Y58544I276J1D01*
G01*
X59813D01*
G37*
X70138D02*
G36*
X70138Y58544D02*
Y56695D01*
X70335D01*
Y58544D01*
X70138D01*
G37*
X70689D02*
G36*
X70689Y58544D02*
Y56695D01*
X74724D01*
G75*
G02*
X75211Y56870I276J-2D01*
G01*
X75610D01*
Y57244D01*
G75*
G02*
X75729Y57363I119J0D01*
G01*
X76673D01*
G75*
G02*
X76792Y57244I0J-119D01*
G01*
Y56695D01*
X79902D01*
Y57244D01*
G75*
G02*
X80020Y57363I118J0D01*
G01*
X80965D01*
G75*
G02*
X81083Y57244I0J-119D01*
G01*
Y56870D01*
X82466D01*
G75*
G02*
X82953Y56695I211J-177D01*
G01*
X104331D01*
Y58544D01*
X92868D01*
G75*
G02*
X92369I-249J118D01*
G01*
X70689D01*
G37*
X2756Y60236D02*
G36*
X2756Y60236D02*
Y58544D01*
X28858D01*
G75*
G02*
X29410I276J0D01*
G01*
X49075D01*
Y59041D01*
G75*
G02*
X48976Y59252I177J212D01*
G01*
G75*
G02*
X49528I276J0D01*
G01*
G75*
G02*
X49430Y59041I-275J0D01*
G01*
Y58544D01*
X59459D01*
Y58746D01*
G75*
G02*
X59360Y58957I177J212D01*
G01*
G75*
G02*
X59912I276J0D01*
G01*
G75*
G02*
X59813Y58746I-276J1D01*
G01*
Y58544D01*
X64518D01*
G75*
G02*
X64971I227J-158D01*
G01*
X66198D01*
G75*
G02*
X66648Y58583I239J-138D01*
G01*
X68313D01*
G75*
G02*
X68763Y58544I211J-177D01*
G01*
X69033D01*
G75*
G02*
X69511I239J-138D01*
G01*
X69783D01*
Y60236D01*
X30059D01*
G75*
G02*
X29508I-275J0D01*
G01*
X2756D01*
G37*
X70138D02*
G36*
X70138Y60236D02*
Y58544D01*
X70335D01*
Y60236D01*
X70138D01*
G37*
X70689D02*
G36*
X70689Y60236D02*
Y58544D01*
X92369D01*
G75*
G02*
X92343Y58662I249J117D01*
G01*
G75*
G02*
X92894I276J0D01*
G01*
G75*
G02*
X92868Y58544I-275J-1D01*
G01*
X104331D01*
Y60236D01*
X84016D01*
G75*
G02*
X83529Y60059I-276J0D01*
G01*
X81083D01*
Y59685D01*
G75*
G02*
X80965Y59567I-118J0D01*
G01*
X80020D01*
G75*
G02*
X79902Y59685I0J118D01*
G01*
Y60236D01*
X76792D01*
Y59685D01*
G75*
G02*
X76673Y59567I-119J0D01*
G01*
X75729D01*
G75*
G02*
X75610Y59685I0J118D01*
G01*
Y60020D01*
X75211D01*
G75*
G02*
X74724Y60197I-211J177D01*
G01*
X74727Y60236D01*
X70689D01*
G37*
X2756Y60788D02*
G36*
X2756Y60788D02*
Y60236D01*
X29508D01*
G75*
G02*
X30059I276J0D01*
G01*
X69783D01*
Y60788D01*
X69548D01*
G75*
G02*
X68996I-276J0D01*
G01*
X68800D01*
G75*
G02*
X68313Y60610I-276J0D01*
G01*
X66156D01*
G75*
G02*
X65669Y60788I-211J178D01*
G01*
X2756D01*
G37*
X70138D02*
G36*
X70138Y60788D02*
Y60236D01*
X70335D01*
Y60788D01*
X70138D01*
G37*
X70689D02*
G36*
X70689Y60788D02*
Y60236D01*
X74727D01*
G75*
G02*
X75211Y60374I273J-39D01*
G01*
X75610D01*
Y60788D01*
X70689D01*
G37*
X76792D02*
G36*
X76792Y60788D02*
Y60236D01*
X79902D01*
Y60788D01*
X76792D01*
G37*
X81083D02*
G36*
X81083Y60788D02*
Y60414D01*
X83529D01*
G75*
G02*
X84016Y60236I211J-178D01*
G01*
X104331D01*
Y60788D01*
X102723D01*
X102429Y60494D01*
G75*
G02*
X102234Y60413I-195J194D01*
G01*
X101887D01*
G75*
G02*
X101260Y60689I-253J276D01*
G01*
G75*
G02*
X101273Y60788I376J1D01*
G01*
X95055D01*
X94762Y60494D01*
G75*
G02*
X94566Y60413I-195J195D01*
G01*
X94210D01*
G75*
G02*
X93583Y60689I-253J276D01*
G01*
G75*
G02*
X93596Y60788I376J1D01*
G01*
X81083D01*
G37*
X2756Y62540D02*
G36*
X2756Y62540D02*
Y60788D01*
X65669D01*
G75*
G02*
X66156Y60965I276J0D01*
G01*
X68313D01*
G75*
G02*
X68800Y60788I211J-177D01*
G01*
X68996D01*
G75*
G02*
X69548I276J0D01*
G01*
X69783D01*
Y62540D01*
X56192D01*
G75*
G02*
X55620I-286J232D01*
G01*
X48199D01*
G75*
G02*
X47628I-285J232D01*
G01*
X30059D01*
G75*
G02*
X29509I-275J20D01*
G01*
X27638D01*
G75*
G02*
X27151Y62362I-276J0D01*
G01*
X22770D01*
G75*
G02*
X22283Y62540I-211J178D01*
G01*
X2756D01*
G37*
X70138D02*
G36*
X70138Y62540D02*
Y60788D01*
X70335D01*
Y62540D01*
X70138D01*
G37*
X70689D02*
G36*
X70689Y62540D02*
Y60788D01*
X75610D01*
G75*
G02*
X75729Y60906I119J0D01*
G01*
X76673D01*
G75*
G02*
X76792Y60788I0J-118D01*
G01*
X79902D01*
G75*
G02*
X80020Y60906I118J0D01*
G01*
X80965D01*
G75*
G02*
X81083Y60788I0J-118D01*
G01*
X93596D01*
G75*
G02*
X94210Y60965I361J-99D01*
G01*
X94453D01*
X94724Y61237D01*
Y62540D01*
X70689D01*
G37*
X95195Y60927D02*
G36*
X95195Y60927D02*
X95055Y60788D01*
X101273D01*
G75*
G02*
X101887Y60965I361J-99D01*
G01*
X102120D01*
X102382Y61227D01*
Y62540D01*
X95276D01*
Y61123D01*
Y61122D01*
G75*
G02*
X95195Y60927I-276J0D01*
G01*
G37*
X102853Y60918D02*
G36*
X102853Y60918D02*
X102723Y60788D01*
X104331D01*
Y62540D01*
X102933D01*
Y61113D01*
Y61113D01*
G75*
G02*
X102853Y60918I-275J-1D01*
G01*
G37*
X2756Y63898D02*
G36*
X2756Y63898D02*
Y62540D01*
X22283D01*
G75*
G02*
X22770Y62717I276J0D01*
G01*
X27151D01*
G75*
G02*
X27638Y62540I211J-177D01*
G01*
X29509D01*
X29508Y62559D01*
G75*
G02*
X30059I276J0D01*
G01*
X30059Y62540D01*
X47628D01*
G75*
G02*
X47545Y62772I285J233D01*
G01*
G75*
G02*
X48282I369J0D01*
G01*
G75*
G02*
X48199Y62540I-368J1D01*
G01*
X55620D01*
G75*
G02*
X55537Y62772I285J233D01*
G01*
G75*
G02*
X56274I369J0D01*
G01*
G75*
G02*
X56192Y62540I-368J-1D01*
G01*
X69783D01*
Y63898D01*
X36378D01*
G75*
G02*
X35891Y63720I-276J0D01*
G01*
X33282D01*
G75*
G02*
X32795Y63898I-211J178D01*
G01*
X2756D01*
G37*
X70138D02*
G36*
X70138Y63898D02*
Y62540D01*
X70335D01*
Y63898D01*
X70138D01*
G37*
X70689D02*
G36*
X70689Y63898D02*
Y62540D01*
X94724D01*
Y63898D01*
X92472D01*
G75*
G02*
X92481Y63819I-367J-82D01*
G01*
G75*
G02*
X91732I-374J0D01*
G01*
X91741Y63898D01*
X84895D01*
G75*
G02*
X84922Y63780I-249J-119D01*
G01*
G75*
G02*
X84435Y63602I-276J0D01*
G01*
X81083D01*
Y63229D01*
G75*
G02*
X80965Y63110I-118J0D01*
G01*
X80020D01*
G75*
G02*
X79902Y63229I0J119D01*
G01*
Y63898D01*
X76792D01*
Y63229D01*
G75*
G02*
X76673Y63110I-119J0D01*
G01*
X75729D01*
G75*
G02*
X75610Y63229I0J119D01*
G01*
Y63898D01*
X70689D01*
G37*
X95276D02*
G36*
X95276Y63898D02*
Y62540D01*
X102382D01*
Y63898D01*
X100149D01*
G75*
G02*
X100158Y63819I-367J-82D01*
G01*
G75*
G02*
X99409I-374J0D01*
G01*
X99418Y63898D01*
X95276D01*
G37*
X102933D02*
G36*
X102933Y63898D02*
Y62540D01*
X104331D01*
Y63898D01*
X102933D01*
G37*
X2756Y64429D02*
G36*
X2756Y64429D02*
Y63898D01*
X32795D01*
G75*
G02*
X33282Y64075I276J0D01*
G01*
X35891D01*
G75*
G02*
X36378Y63898I211J-177D01*
G01*
X69783D01*
Y64429D01*
X64863D01*
G75*
G02*
X64311I-276J0D01*
G01*
X2756D01*
G37*
X70138D02*
G36*
X70138Y64429D02*
Y63898D01*
X70335D01*
Y64429D01*
X70138D01*
G37*
X70689D02*
G36*
X70689Y64429D02*
Y63898D01*
X75610D01*
Y64331D01*
G75*
G02*
X75663Y64429I118J-1D01*
G01*
X70689D01*
G37*
X76792Y64331D02*
G36*
X76792Y64331D02*
Y63898D01*
X79902D01*
Y64331D01*
G75*
G02*
X79954Y64429I118J0D01*
G01*
X76739D01*
G75*
G02*
X76792Y64331I-65J-99D01*
G01*
G37*
X81083D02*
G36*
X81083Y64331D02*
Y63957D01*
X84435D01*
G75*
G02*
X84895Y63898I211J-177D01*
G01*
X91741D01*
G75*
G02*
X92472I366J-79D01*
G01*
X94724D01*
Y64232D01*
Y64232D01*
G75*
G02*
X94805Y64427I276J0D01*
G01*
X94807Y64429D01*
X81030D01*
G75*
G02*
X81083Y64331I-65J-99D01*
G01*
G37*
X95276Y64118D02*
G36*
X95276Y64118D02*
Y63898D01*
X99418D01*
G75*
G02*
X100149I366J-79D01*
G01*
X102382D01*
Y64163D01*
Y64164D01*
G75*
G02*
X102463Y64359I276J0D01*
G01*
X102533Y64429D01*
X95587D01*
X95276Y64118D01*
G37*
X102933Y64049D02*
G36*
X102933Y64049D02*
Y63898D01*
X104331D01*
Y64429D01*
X103313D01*
X102933Y64049D01*
G37*
X2756Y64882D02*
G36*
X2756Y64882D02*
Y64429D01*
X64311D01*
G75*
G02*
X64863I276J0D01*
G01*
X69783D01*
Y64882D01*
X30059D01*
G75*
G02*
X29508I-275J0D01*
G01*
X2756D01*
G37*
X70138D02*
G36*
X70138Y64882D02*
Y64429D01*
X70335D01*
Y64882D01*
X70138D01*
G37*
X70689D02*
G36*
X70689Y64882D02*
Y64429D01*
X75663D01*
G75*
G02*
X75729Y64449I66J-99D01*
G01*
X76024D01*
Y64789D01*
G75*
G02*
X75952Y64882I177J211D01*
G01*
X70689D01*
G37*
X76378Y64789D02*
G36*
X76378Y64789D02*
Y64449D01*
X76673D01*
G75*
G02*
X76739Y64429I0J-119D01*
G01*
X79954D01*
G75*
G02*
X80020Y64449I66J-99D01*
G01*
X80965D01*
G75*
G02*
X81030Y64429I-1J-117D01*
G01*
X94807D01*
X95260Y64882D01*
X89464D01*
X89389Y64808D01*
X89390Y64784D01*
G75*
G02*
X88839I-275J0D01*
G01*
G75*
G02*
X88857Y64882I275J0D01*
G01*
X76450D01*
G75*
G02*
X76378Y64789I-249J118D01*
G01*
G37*
X95823Y64665D02*
G36*
X95823Y64665D02*
X95587Y64429D01*
X102533D01*
X102769Y64665D01*
X95823D01*
G37*
X103451Y64567D02*
G36*
X103451Y64567D02*
X103313Y64429D01*
X104331D01*
Y64882D01*
X103815D01*
G75*
G02*
X103451Y64567I-370J59D01*
G01*
G37*
X2756Y67969D02*
G36*
X2756Y67969D02*
Y64882D01*
X29508D01*
G75*
G02*
X30059I276J0D01*
G01*
X69783D01*
Y66128D01*
G75*
G02*
X69685Y66339I177J211D01*
G01*
G75*
G02*
X70236Y66349I276J0D01*
G01*
G75*
G02*
X70788Y66339I276J-10D01*
G01*
G75*
G02*
X70689Y66128I-276J1D01*
G01*
Y64882D01*
X75952D01*
G75*
G02*
X75925Y65000I249J119D01*
G01*
G75*
G02*
X76477I276J0D01*
G01*
G75*
G02*
X76450Y64882I-276J1D01*
G01*
X88857D01*
G75*
G02*
X89138Y65058I257J-98D01*
G01*
X89773Y65693D01*
X89768Y65748D01*
G75*
G02*
X89850Y65945I276J1D01*
G01*
X87810D01*
X87756Y65891D01*
G75*
G02*
X87796Y65748I-237J-143D01*
G01*
Y65748D01*
G75*
G02*
X87244I-276J0D01*
G01*
G75*
G02*
X87354Y65969I276J0D01*
G01*
G75*
G02*
X87395Y66031I165J-64D01*
G01*
X87611Y66247D01*
G75*
G02*
X87737Y66300I127J-125D01*
G01*
X90768D01*
G75*
G02*
X91319Y66280I275J-20D01*
G01*
G75*
G02*
X91020Y66005I-276J0D01*
G01*
X91012Y65997D01*
G75*
G02*
X90886Y65945I-125J125D01*
G01*
X90237D01*
G75*
G02*
X90319Y65748I-194J-196D01*
G01*
G75*
G02*
X90054Y65473I-275J0D01*
G01*
X89464Y64882D01*
X95260D01*
X95514Y65136D01*
G75*
G02*
X95710Y65217I195J-195D01*
G01*
X103192D01*
G75*
G02*
X103819Y64941I253J-276D01*
G01*
X103815Y64882D01*
X104331D01*
Y67969D01*
X101713D01*
G75*
G02*
X100728I-492J0D01*
G01*
X2756D01*
G37*
X70138Y66128D02*
G36*
X70138Y66128D02*
Y64882D01*
X70335D01*
Y66128D01*
G75*
G02*
X70236Y66328I176J212D01*
G01*
G75*
G02*
X70138Y66128I-275J11D01*
G01*
G37*
X2756Y70000D02*
G36*
X2756Y70000D02*
Y67969D01*
X100728D01*
G75*
G02*
X101713I493J0D01*
G01*
X104331D01*
Y70000D01*
X101674D01*
G75*
G02*
X100768I-453J0D01*
G01*
X65005D01*
G75*
G02*
X64365I-320J374D01*
G01*
X60045D01*
G75*
G02*
X59404I-320J374D01*
G01*
X2756D01*
G37*
Y70772D02*
G36*
X2756Y70772D02*
Y70000D01*
X59404D01*
G75*
G02*
X59232Y70374I320J374D01*
G01*
G75*
G02*
X59434Y70772I493J0D01*
G01*
X56274D01*
G75*
G02*
X55537I-368J0D01*
G01*
X48282D01*
G75*
G02*
X47545I-368J0D01*
G01*
X2756D01*
G37*
X60217Y70374D02*
G36*
X60217Y70374D02*
G75*
G02*
X60045Y70000I-492J0D01*
G01*
X64365D01*
G75*
G02*
X64193Y70374I320J374D01*
G01*
G75*
G02*
X64395Y70772I493J0D01*
G01*
X60015D01*
G75*
G02*
X60217Y70374I-291J-398D01*
G01*
G37*
X65178D02*
G36*
X65178Y70374D02*
G75*
G02*
X65005Y70000I-493J1D01*
G01*
X100768D01*
G75*
G02*
X101674I453J0D01*
G01*
X104331D01*
Y70772D01*
X64976D01*
G75*
G02*
X65178Y70374I-291J-398D01*
G01*
G37*
X2756Y72834D02*
G36*
X2756Y72834D02*
Y70772D01*
X47545D01*
G75*
G02*
X48282I369J0D01*
G01*
X55537D01*
G75*
G02*
X56274I369J0D01*
G01*
X59434D01*
G75*
G02*
X60015I291J-398D01*
G01*
X64395D01*
G75*
G02*
X64976I291J-398D01*
G01*
X104331D01*
Y72834D01*
X2756D01*
G37*
X55099Y34316D02*
Y14621D01*
X55440Y14280D01*
G75*
G02*
X55488Y14195I-126J-127D01*
G01*
X55512Y14179D01*
X55531Y14193D01*
Y34475D01*
G75*
G02*
X55185Y34403I-216J171D01*
G01*
X55099Y34316D01*
G36*
X55099Y34316D02*
Y14621D01*
X55440Y14280D01*
G75*
G02*
X55488Y14195I-126J-127D01*
G01*
X55512Y14179D01*
X55531Y14193D01*
Y34475D01*
G75*
G02*
X55185Y34403I-216J171D01*
G01*
X55099Y34316D01*
G37*
D02*
D132*
X50156Y12559D02*
X49927D01*
X50156Y13819D02*
X49927D01*
X50197Y12368D02*
Y12139D01*
Y12750D02*
Y12978D01*
Y13629D02*
Y13400D01*
Y14010D02*
Y14239D01*
X50591Y12368D02*
Y12139D01*
Y12750D02*
Y12978D01*
Y13629D02*
Y13400D01*
Y14010D02*
Y14239D01*
X51772Y13629D02*
Y13400D01*
Y14010D02*
Y14239D01*
X52166Y12368D02*
Y12139D01*
Y12750D02*
Y12978D01*
Y13629D02*
Y13400D01*
Y14010D02*
Y14239D01*
X52559Y13629D02*
Y13400D01*
Y14010D02*
Y14239D01*
X52953Y12368D02*
Y12139D01*
Y12750D02*
Y12978D01*
Y13629D02*
Y13400D01*
Y14010D02*
Y14239D01*
X53347Y13629D02*
Y13400D01*
Y14010D02*
Y14239D01*
X53740Y12368D02*
Y12139D01*
Y12750D02*
Y12978D01*
Y13629D02*
Y13400D01*
Y14010D02*
Y14239D01*
X54134Y13629D02*
Y13400D01*
Y14010D02*
Y14239D01*
X54528Y12368D02*
Y12139D01*
Y12750D02*
Y12978D01*
Y13629D02*
Y13400D01*
Y14010D02*
Y14239D01*
X55315Y12368D02*
Y12139D01*
Y12750D02*
Y12978D01*
X0Y0D02*
M02*
