G04 GENERATED BY PULSONIX 11.0 GERBER.DLL 8466*
G04 #@! TF.GenerationSoftware,Pulsonix,Pulsonix,11.0.8467*
G04 #@! TF.CreationDate,2021-12-19T21:00:55+00:00*
G04 #@! TF.Part,Single*
%FSLAX24Y24*%
%LPD*%
%MOIN*%
G04 #@! TF.FileFunction,Soldermask,Top*
G04 #@! TF.FilePolarity,Negative*
G04 #@! TA.AperFunction,ViaPad*
%ADD13C,0.0354*%
G04 #@! TA.AperFunction,SMDPad,CuDef*
%ADD14R,0.0630X0.0295*%
%ADD15R,0.1024X0.0276*%
%ADD16R,0.2008X0.1024*%
%ADD17R,0.0354X0.0551*%
%ADD18R,0.0866X0.1220*%
G04 #@! TA.AperFunction,TestPad*
%ADD19R,0.1390X0.0740*%
G04 #@! TA.AperFunction,SMDPad,CuDef*
%ADD70R,0.0512X0.0276*%
%ADD71R,0.0539X0.2039*%
%ADD20R,0.0591X0.1811*%
%ADD21R,0.2039X0.0539*%
%ADD22R,0.0650X0.0315*%
%ADD23R,0.1142X0.1004*%
%ADD24R,0.1004X0.1142*%
%ADD25R,0.0789X0.0441*%
%ADD26R,0.0913X0.0441*%
%ADD27R,0.0413X0.0591*%
%ADD28R,0.0620X0.0217*%
%ADD29R,0.0441X0.0618*%
%ADD72R,0.0157X0.0433*%
%ADD73R,0.0689X0.0551*%
%ADD74R,0.0551X0.0827*%
%ADD75R,0.0748X0.0827*%
%ADD76R,0.0276X0.0531*%
%ADD77R,0.0276X0.0551*%
%ADD78R,0.0260X0.0988*%
%ADD79R,0.0480X0.1173*%
G04 #@! TA.AperFunction,ComponentPad*
%ADD80C,0.1398*%
G04 #@! TA.AperFunction,SMDPad,CuDef*
%ADD81R,0.0492X0.0492*%
%ADD82R,0.0157X0.0512*%
%ADD83R,0.0984X0.0984*%
%ADD84R,0.1122X0.0413*%
%ADD85R,0.1122X0.1319*%
G04 #@! TD.AperFunction*
X0Y0D02*
D02*
D13*
X3436Y53888D03*
X4196Y26907D03*
X4423Y69585D03*
X4461Y39740D03*
X4834Y59275D03*
X5113Y33124D03*
X5290Y34973D03*
X5509Y23921D03*
X5694Y57808D03*
X6063Y46297D03*
X6429Y65765D03*
X6943Y61966D03*
X7047Y42134D03*
X7121Y35710D03*
X7294Y67598D03*
X7425Y50830D03*
X8406Y25197D03*
X8996Y23524D03*
Y31595D03*
X9581Y46592D03*
X9667Y33026D03*
X10187Y41580D03*
X10451Y64862D03*
X10711Y21336D03*
X11162Y35295D03*
Y37953D03*
X11752Y23524D03*
Y31595D03*
X11925Y53835D03*
X12100Y40373D03*
X12473Y70134D03*
X12599Y66190D03*
X12742Y32722D03*
X12838Y43258D03*
X12933Y23524D03*
Y31575D03*
X13701Y55645D03*
X14083Y46856D03*
X15295Y23524D03*
Y31614D03*
X15689Y23524D03*
Y31595D03*
X15944Y43011D03*
X15945Y25197D03*
X16352Y58374D03*
X16625Y66930D03*
X16978Y61784D03*
X17473Y33670D03*
X18488Y69586D03*
X18574Y31092D03*
X18730Y50210D03*
X19094Y51967D03*
X19523Y25531D03*
X19638Y46674D03*
X19772Y64780D03*
X19854Y40186D03*
X20339Y62875D03*
X20409Y27702D03*
X20669Y41831D03*
Y44567D03*
X20916Y32864D03*
X22559Y62540D03*
X22630Y52990D03*
X22795Y56693D03*
X22815Y53937D03*
X22838Y58057D03*
X22884Y24153D03*
X22990Y70009D03*
X23209Y70925D03*
X23347Y33977D03*
Y36752D03*
Y39331D03*
X23721Y29528D03*
X23809Y59849D03*
X24095Y26772D03*
X24218Y35984D03*
X24277Y72653D03*
X24843Y26772D03*
Y29528D03*
X24862Y40020D03*
X24882Y46044D03*
Y56697D03*
X24902Y52421D03*
X24912Y35689D03*
Y41713D03*
X25464Y25720D03*
X25773Y30718D03*
X25847Y50748D03*
X25984Y40630D03*
X26024Y46654D03*
X26358Y39331D03*
X26398Y53937D03*
X26932Y41179D03*
X27362Y62540D03*
X27402Y46346D03*
X27559Y54921D03*
X27648Y23894D03*
X27697Y36752D03*
X28032Y45394D03*
X28071Y37264D03*
X28169Y70925D03*
X28324Y30459D03*
X28484Y57343D03*
X28799Y45394D03*
X28922Y65857D03*
X29134Y58544D03*
X29189Y52736D03*
X29478Y58802D03*
X29666Y44095D03*
X29784Y46929D03*
Y60236D03*
Y62559D03*
Y64882D03*
X30079Y37362D03*
Y38445D03*
X30199Y40146D03*
X30295Y51516D03*
X30591Y42795D03*
X30610Y45394D03*
X30629Y46129D03*
X30671Y68869D03*
X31319Y35433D03*
Y42323D03*
X31497Y22485D03*
X31673Y35807D03*
X31997Y27909D03*
X32264Y34488D03*
X32284Y40689D03*
X32618Y37481D03*
X32638Y43662D03*
X33071Y63898D03*
X33248Y38662D03*
X33268Y44862D03*
X33838Y47583D03*
X34173Y35807D03*
X34576Y57240D03*
X34766Y24384D03*
X35277Y46038D03*
X35319Y28723D03*
X35374Y69390D03*
Y70394D03*
Y71398D03*
X35630Y23484D03*
X35667Y33533D03*
X35886Y22225D03*
X36004Y23858D03*
X36103Y63898D03*
X36116Y66364D03*
X36378Y24606D03*
X36870Y24232D03*
X37315Y68579D03*
X38347Y23484D03*
X38839Y23858D03*
X40197Y24606D03*
X40571Y24232D03*
X41213Y26264D03*
X42183Y51373D03*
X42444Y30798D03*
X42460Y41754D03*
X43797Y50188D03*
X44074Y45298D03*
X44092Y24202D03*
X44148Y72651D03*
X44469Y70414D03*
Y71398D03*
X44905Y36097D03*
X46118Y22846D03*
X46337Y56822D03*
X46340Y15248D03*
X46934Y71843D03*
X47003Y40922D03*
X47073Y36321D03*
X47529Y30310D03*
X47553Y42817D03*
X47566Y49185D03*
X47933Y49626D03*
X48409Y26217D03*
X48615Y71052D03*
X48694Y53463D03*
X49252Y59252D03*
X49547Y53406D03*
X49617Y11573D03*
X49626Y70276D03*
X50197Y11811D03*
Y31496D03*
X50270Y15484D03*
X50555Y39559D03*
X50583Y62481D03*
X50984Y11614D03*
Y34646D03*
X51378Y11811D03*
Y34843D03*
X51586Y4950D03*
X51655Y43605D03*
X51772Y11614D03*
X51961Y47298D03*
X52136Y64641D03*
X52166Y11811D03*
Y31496D03*
X52234Y25784D03*
X52559Y11614D03*
X52781Y58433D03*
X52883Y53849D03*
X52953Y11811D03*
Y31496D03*
X53169Y44975D03*
X53322Y35593D03*
X53347Y11614D03*
X53680Y44551D03*
X53740Y11831D03*
Y31496D03*
X54134Y11614D03*
Y31299D03*
X54190Y54013D03*
X54528Y11811D03*
Y31496D03*
Y47855D03*
X54949Y61915D03*
X55193Y10824D03*
X55315Y11614D03*
Y31496D03*
Y34646D03*
X55374Y49646D03*
X55480Y37645D03*
X55709Y11811D03*
Y34843D03*
X55925Y53406D03*
X55985Y65758D03*
X56103Y11614D03*
Y34646D03*
X56496Y11811D03*
Y34843D03*
X56890Y11614D03*
Y34646D03*
X56923Y70834D03*
X56987Y6683D03*
X56988Y57028D03*
X57134Y57845D03*
X57224Y47766D03*
X57540Y53406D03*
X58511Y12157D03*
X58603Y5702D03*
X58726Y17050D03*
X58765Y66823D03*
X59036Y50144D03*
X59090Y22719D03*
X59154Y39370D03*
X59331Y47736D03*
X59636Y58957D03*
X60356Y29395D03*
X60428Y70707D03*
X60851Y50801D03*
X60945Y47736D03*
X61111Y26484D03*
X61221Y66732D03*
X61653Y56534D03*
X62264Y45473D03*
X62343Y60668D03*
X62481Y53166D03*
Y54173D03*
Y54666D03*
X62708Y32536D03*
X62825Y25203D03*
X62973Y64410D03*
X63130Y58386D03*
X63314Y59812D03*
X63707Y43036D03*
X64253Y24726D03*
X64311Y34281D03*
X64508Y46673D03*
X64587Y64429D03*
X64666Y35807D03*
X64744Y58386D03*
X65151Y38344D03*
X65180Y67812D03*
X65276Y46673D03*
X65847Y53666D03*
X65866Y54173D03*
X65945Y60788D03*
X66437Y58406D03*
X66720Y21138D03*
X67736Y53662D03*
X68524Y58406D03*
Y60788D03*
X68599Y69606D03*
X68714Y55576D03*
X68812Y67261D03*
X68923Y27445D03*
X69097Y34611D03*
X69272Y58406D03*
Y60788D03*
X69508Y69764D03*
X69685Y31890D03*
X69784Y22697D03*
X69961Y66339D03*
X70473Y28347D03*
X70512Y66339D03*
Y69764D03*
X71044Y49902D03*
X71162Y44475D03*
X71184Y33732D03*
X71299Y46750D03*
X71516Y69764D03*
X71772Y44351D03*
X71929Y42047D03*
X71949Y39764D03*
X72166Y50492D03*
X72266Y53075D03*
X72520Y69764D03*
X73021Y23151D03*
X73504Y69764D03*
X73583Y42047D03*
X73739Y38494D03*
X74528Y69764D03*
X74666Y40847D03*
Y41839D03*
X74843Y35650D03*
X75000Y56693D03*
Y60197D03*
X75237Y33520D03*
X75469Y59231D03*
X75512Y69764D03*
X76201Y65000D03*
X76490Y21988D03*
X76516Y69764D03*
X76539Y27891D03*
X77877Y38614D03*
X78091Y39839D03*
Y41839D03*
X78110Y35669D03*
X78169Y57579D03*
X78272Y53713D03*
X78371Y33651D03*
X78504Y40847D03*
X78682Y49384D03*
X79523Y64846D03*
X79941Y43858D03*
X80345Y26763D03*
X80453Y38839D03*
Y41162D03*
X81673Y32933D03*
X81720Y62669D03*
X82047Y29390D03*
X82303Y54232D03*
X82360Y57104D03*
X82677Y56693D03*
X83051Y69784D03*
X83733Y60942D03*
X83740Y60236D03*
X84036Y69784D03*
X84525Y38128D03*
X84646Y63780D03*
X85020Y69784D03*
X85737Y66655D03*
X86024Y69784D03*
X86044Y55276D03*
X86488Y56519D03*
X86673Y32658D03*
X87028Y69784D03*
X87233Y26929D03*
X87520Y46851D03*
Y65748D03*
X87658Y29567D03*
X87851Y38997D03*
X88051Y69784D03*
X88272Y24149D03*
X88740Y46870D03*
X88799Y28977D03*
X89055Y69784D03*
X89067Y37184D03*
X89114Y64784D03*
X90040Y69784D03*
X90044Y65748D03*
X90141Y63944D03*
X90414Y32579D03*
X90577Y42551D03*
X91024Y69784D03*
X91044Y66280D03*
X91319Y38366D03*
X91457Y33169D03*
X91496Y54232D03*
X91555Y55276D03*
X91821Y55805D03*
X91851Y36614D03*
X92011Y47478D03*
X92047Y69784D03*
X92081Y50589D03*
X92618Y58662D03*
X92837Y44272D03*
X92952Y25131D03*
X93032Y69784D03*
X93092Y46238D03*
X93347Y42559D03*
X93563Y25512D03*
X93678Y33922D03*
X93957Y29567D03*
Y30591D03*
X94044Y69784D03*
X95564Y22999D03*
X96129Y21221D03*
X96162Y55906D03*
X97677Y70000D03*
X97780Y47111D03*
X97938Y67342D03*
X98437Y27318D03*
X98557Y68616D03*
X98615Y44365D03*
X98975Y37366D03*
X100706Y58099D03*
X101660Y40177D03*
X101752Y51969D03*
Y52973D03*
Y53957D03*
Y54961D03*
Y55965D03*
X101769Y50237D03*
X102138Y66370D03*
X102984Y57599D03*
X103698Y71905D03*
X103716Y25492D03*
X104080Y35824D03*
D02*
D14*
X63110Y53166D03*
Y53666D03*
Y54166D03*
Y54666D03*
Y55166D03*
Y55666D03*
Y56166D03*
X65236Y53166D03*
Y53666D03*
Y54166D03*
Y54666D03*
Y55166D03*
Y55666D03*
Y56166D03*
X75315Y39839D03*
Y40339D03*
Y40839D03*
Y41339D03*
Y41839D03*
Y42339D03*
Y42839D03*
X77441Y39839D03*
Y40339D03*
Y40839D03*
Y41339D03*
Y41839D03*
Y42339D03*
Y42839D03*
D02*
D15*
X97335Y35797D03*
Y36290D03*
Y36782D03*
Y37274D03*
D02*
D16*
X100236Y33878D03*
Y39193D03*
D02*
D17*
X35886Y22736D03*
X36378D03*
X36870D03*
X37362D03*
X37855D03*
X38347D03*
X38839D03*
X39331D03*
X39823D03*
D02*
D18*
X34882Y21654D03*
X40827D03*
D02*
D19*
X21575Y33977D03*
Y36654D03*
Y39331D03*
X21654Y53937D03*
Y56693D03*
Y59449D03*
X26299Y26772D03*
Y29528D03*
Y32284D03*
X47323Y56575D03*
X47343Y59252D03*
X51575D03*
X53544Y53051D03*
X55236Y59252D03*
X59823Y64941D03*
X67717Y42520D03*
X68898Y53544D03*
Y56299D03*
X75984Y47244D03*
X79921Y45276D03*
X91339Y58662D03*
X94882Y55906D03*
Y58662D03*
D02*
D70*
X28150Y54921D03*
Y55295D03*
Y55669D03*
X29134Y54921D03*
Y55669D03*
X32264Y35059D03*
Y35433D03*
Y35807D03*
X32284Y41260D03*
Y41634D03*
Y42008D03*
X33248Y35059D03*
Y35807D03*
X33268Y41260D03*
Y42008D03*
X87244Y32658D03*
Y33032D03*
Y33406D03*
X88229Y32658D03*
Y33406D03*
D02*
D71*
X23689Y68236D03*
Y70937D03*
X24689Y68236D03*
Y70937D03*
X25689Y68236D03*
Y70937D03*
X26689Y68236D03*
Y70937D03*
X27689Y68236D03*
Y70937D03*
X69512Y68295D03*
Y70996D03*
X70512Y68295D03*
Y70996D03*
X71512Y68295D03*
Y70996D03*
X72512Y68295D03*
Y70996D03*
X73512Y68295D03*
Y70996D03*
X74512Y68295D03*
Y70996D03*
X75512Y68295D03*
Y70996D03*
X76512Y68295D03*
Y70996D03*
X83044Y68295D03*
Y70996D03*
X84044Y68295D03*
Y70996D03*
X85044Y68295D03*
Y70996D03*
X86044Y68295D03*
Y70996D03*
X87044Y68295D03*
Y70996D03*
X88044Y68295D03*
Y70996D03*
X89044Y68295D03*
Y70996D03*
X90044Y68295D03*
Y70996D03*
X91044Y68295D03*
Y70996D03*
X92044Y68295D03*
Y70996D03*
X93044Y68295D03*
Y70996D03*
X94044Y68295D03*
Y70996D03*
D02*
D20*
X52559Y46280D03*
X54528D03*
X61221Y68347D03*
X63189D03*
X99862Y24469D03*
X101831D03*
D02*
D21*
X100284Y51969D03*
Y52969D03*
Y53969D03*
Y54969D03*
Y55969D03*
Y56969D03*
X102984Y51969D03*
Y52969D03*
Y53969D03*
Y54969D03*
Y55969D03*
Y56969D03*
D02*
D22*
X24912Y36258D03*
Y36758D03*
Y37258D03*
Y37758D03*
Y42282D03*
Y42782D03*
Y43282D03*
Y43782D03*
X27057Y36258D03*
Y36758D03*
Y37258D03*
Y37758D03*
Y42282D03*
Y42782D03*
Y43282D03*
Y43782D03*
X48573Y49624D03*
Y50124D03*
Y50624D03*
Y51124D03*
X50719Y49624D03*
Y50124D03*
Y50624D03*
Y51124D03*
X56014Y49644D03*
Y50144D03*
Y50644D03*
Y51144D03*
X58160Y49644D03*
Y50144D03*
Y50644D03*
Y51144D03*
X59459Y43975D03*
Y44475D03*
Y44975D03*
Y45475D03*
X61605Y43975D03*
Y44475D03*
Y44975D03*
Y45475D03*
X62963Y60668D03*
Y61168D03*
Y61668D03*
Y62168D03*
X65108Y60668D03*
Y61168D03*
Y61668D03*
Y62168D03*
X70581Y46750D03*
Y47250D03*
Y47750D03*
Y48250D03*
X72727Y46750D03*
Y47250D03*
Y47750D03*
Y48250D03*
D02*
D23*
X99567Y42530D03*
Y47038D03*
X101969Y42530D03*
Y47038D03*
D02*
D24*
X98967Y67599D03*
Y70000D03*
X103475Y67599D03*
Y70000D03*
D02*
D25*
X47214Y71272D03*
X47215Y63272D03*
Y65272D03*
Y67272D03*
Y69272D03*
X48612Y62272D03*
Y64272D03*
Y66272D03*
Y68272D03*
X48613Y70272D03*
X55206Y71272D03*
X55207Y63272D03*
Y65272D03*
Y67272D03*
Y69272D03*
X56605Y62272D03*
Y64272D03*
Y66272D03*
Y68272D03*
X56605Y70272D03*
D02*
D26*
X32490Y59394D03*
Y60394D03*
Y61394D03*
Y62394D03*
Y63394D03*
Y64394D03*
Y65394D03*
Y66394D03*
Y67394D03*
Y68394D03*
Y69394D03*
Y70394D03*
Y71394D03*
X34715Y59394D03*
Y60394D03*
Y61394D03*
Y62394D03*
Y63394D03*
Y64394D03*
Y65394D03*
Y66394D03*
Y67394D03*
Y68394D03*
Y69394D03*
Y70394D03*
Y71394D03*
X41506Y59394D03*
Y60394D03*
Y61394D03*
Y62394D03*
Y63394D03*
Y64394D03*
Y65394D03*
Y66394D03*
Y67394D03*
Y68394D03*
Y69394D03*
Y70394D03*
Y71394D03*
X43731Y59394D03*
Y60394D03*
Y61394D03*
Y62394D03*
Y63394D03*
Y64394D03*
Y65394D03*
Y66394D03*
Y67394D03*
Y68394D03*
Y69394D03*
Y70394D03*
Y71394D03*
D02*
D27*
X21201Y41831D03*
Y44567D03*
X21280Y62540D03*
X21949Y41831D03*
Y44567D03*
X22028Y62540D03*
X28504Y60236D03*
Y62559D03*
Y64882D03*
X29252Y60236D03*
Y62559D03*
Y64882D03*
X29331Y36732D03*
Y39055D03*
Y42776D03*
Y45394D03*
X30079Y36732D03*
Y39055D03*
Y42776D03*
Y45394D03*
X31969Y54095D03*
Y56457D03*
X32717Y54095D03*
Y56457D03*
X35118Y54095D03*
Y56457D03*
X35866Y54095D03*
Y56457D03*
X39055Y54095D03*
Y56457D03*
X39803Y54095D03*
Y56457D03*
X43780Y54095D03*
Y56457D03*
X44528Y54095D03*
Y56457D03*
X50059Y53406D03*
X50807D03*
X52992Y50138D03*
X53740D03*
X58288Y10236D03*
X59036D03*
X63406Y35827D03*
X64154D03*
X67736Y45276D03*
X68484D03*
X68524Y59055D03*
Y61418D03*
X69272Y59055D03*
Y61418D03*
X72303Y44351D03*
X72481Y35138D03*
Y37461D03*
X73051Y44351D03*
X73229Y35138D03*
Y37461D03*
X79705Y39469D03*
Y41792D03*
X80453Y39469D03*
Y41792D03*
X90571Y36614D03*
X91319D03*
X92067Y42559D03*
X92815D03*
X93721Y36614D03*
X94469D03*
X95059Y42559D03*
X95807D03*
D02*
D28*
X91029Y29311D03*
Y29567D03*
Y29823D03*
Y30079D03*
Y30335D03*
Y30591D03*
Y30847D03*
X93342Y29311D03*
Y29567D03*
Y29823D03*
Y30079D03*
Y30335D03*
Y30591D03*
Y30847D03*
D02*
D29*
X25355Y40020D03*
X25394Y46044D03*
X25984Y40020D03*
X26024Y46044D03*
X28484Y57933D03*
X29114D03*
X32618Y38071D03*
X32638Y44272D03*
X33248Y38071D03*
X33268Y44272D03*
X56418Y53406D03*
X57047D03*
X59823Y47736D03*
X60453D03*
X63465Y64429D03*
X63622Y58406D03*
X64095Y64429D03*
X64252Y58406D03*
X71044Y50512D03*
X71673D03*
X72441Y39764D03*
Y42047D03*
X73071Y39764D03*
Y42047D03*
X88169Y29567D03*
X88799D03*
X90414Y33169D03*
X90827Y61536D03*
Y63819D03*
X91044Y33169D03*
X91457Y61536D03*
Y63819D03*
X98504Y61536D03*
Y63819D03*
X99134Y61536D03*
Y63819D03*
D02*
D72*
X69587Y23150D03*
X69784D03*
X69981D03*
X70177D03*
X70374D03*
X70571D03*
X70768D03*
X70965D03*
X71162D03*
X71358D03*
D02*
D73*
X68691Y22402D03*
X72254D03*
D02*
D74*
X76016Y35669D03*
X77016D03*
D02*
D75*
X76516Y37166D03*
D02*
D76*
X90569Y38957D03*
X90945Y39784D03*
X91321Y38957D03*
X92085Y44862D03*
X92461Y45689D03*
X92837Y44862D03*
D02*
D77*
X93799Y38957D03*
X94173Y39784D03*
X94547Y38957D03*
X95059Y44862D03*
X95433Y45689D03*
X95807Y44862D03*
D02*
D78*
X50197Y32390D03*
Y33792D03*
X50591Y32390D03*
Y33792D03*
X50984Y32390D03*
Y33792D03*
X51378Y32390D03*
Y33792D03*
X51772Y32390D03*
Y33792D03*
X52166Y32390D03*
Y33792D03*
X52559Y32390D03*
Y33792D03*
X52953Y32390D03*
Y33792D03*
X53347Y32390D03*
Y33792D03*
X53740Y32390D03*
Y33792D03*
X54134Y32390D03*
Y33792D03*
X54528Y32390D03*
Y33792D03*
X54921Y32390D03*
Y33792D03*
X55315Y32390D03*
Y33792D03*
X55709Y32390D03*
Y33792D03*
X56103Y32390D03*
Y33792D03*
X56496Y32390D03*
Y33792D03*
X56890Y32390D03*
Y33792D03*
D02*
D79*
X90807Y26323D03*
X91792D03*
X92579D03*
X93563D03*
D02*
D80*
X89599Y24914D03*
X94772D03*
D02*
D81*
X59636Y59666D03*
Y62284D03*
X60069Y38918D03*
Y41536D03*
X60561Y59666D03*
Y62284D03*
X60994Y38918D03*
Y41536D03*
X64105Y50768D03*
X64892Y47756D03*
X65030Y50768D03*
X65817Y47756D03*
D02*
D82*
X8012Y24006D03*
Y31093D03*
X8209Y24006D03*
Y31093D03*
X8406Y24006D03*
Y31093D03*
X8603Y24006D03*
Y31093D03*
X8799Y24006D03*
Y31093D03*
X8996Y24006D03*
Y31093D03*
X9193Y24006D03*
Y31093D03*
X9390Y24006D03*
Y31093D03*
X9587Y24006D03*
Y31093D03*
X9784Y24006D03*
Y31093D03*
X9981Y24006D03*
Y31093D03*
X10177Y24006D03*
Y31093D03*
X10374Y24006D03*
Y31093D03*
X10571Y24006D03*
Y31093D03*
X10768Y24006D03*
Y31093D03*
X10965Y24006D03*
Y31093D03*
X11162Y24006D03*
Y31093D03*
X11358Y24006D03*
Y31093D03*
X11555Y24006D03*
Y31093D03*
X11752Y24006D03*
Y31093D03*
X11949Y24006D03*
Y31093D03*
X12146Y24006D03*
Y31093D03*
X12343Y24006D03*
Y31093D03*
X12540Y24006D03*
Y31093D03*
X12736Y24006D03*
Y31093D03*
X12933Y24006D03*
Y31093D03*
X13130Y24006D03*
Y31093D03*
X13327Y24006D03*
Y31093D03*
X13524Y24006D03*
Y31093D03*
X13721Y24006D03*
Y31093D03*
X13918Y24006D03*
Y31093D03*
X14114Y24006D03*
Y31093D03*
X14311Y24006D03*
Y31093D03*
X14508Y24006D03*
Y31093D03*
X14705Y24006D03*
Y31093D03*
X14902Y24006D03*
Y31093D03*
X15099Y24006D03*
Y31093D03*
X15295Y24006D03*
Y31093D03*
X15492Y24006D03*
Y31093D03*
X15689Y24006D03*
Y31093D03*
D02*
D83*
X7185Y22786D03*
Y29872D03*
X16516Y22786D03*
Y29872D03*
D02*
D84*
X93957Y61693D03*
Y62599D03*
Y63504D03*
X101634Y61693D03*
Y62599D03*
Y63504D03*
D02*
D85*
X96004Y62599D03*
X103681D03*
X0Y0D02*
M02*
