G04 GENERATED BY PULSONIX 11.0 GERBER.DLL 8466*
G04 #@! TF.GenerationSoftware,Pulsonix,Pulsonix,11.0.8467*
G04 #@! TF.CreationDate,2021-12-19T21:00:55+00:00*
G04 #@! TF.Part,Single*
%FSLAX24Y24*%
%LPD*%
%MOIN*%
G04 #@! TF.FileFunction,AssemblyDrawing,Top*
G04 #@! TF.FilePolarity,Positive*
G04 #@! TA.AperFunction,Profile*
%ADD10C,0.0001*%
G04 #@! TA.AperFunction,Material*
%ADD11C,0.0047*%
%ADD12C,0.0010*%
G04 #@! TD.AperFunction*
X0Y0D02*
D02*
D10*
X2362Y20079D02*
X45669D01*
Y3544D01*
G75*
G03*
X46831Y2362I1172J-10D01*
G01*
X60217D01*
G75*
G03*
X61418Y3563I0J1201D01*
G01*
Y20079D01*
X104725D01*
Y73229D01*
X2362D01*
Y20079D01*
D02*
D11*
X21049Y34177D02*
X22101D01*
Y33776D01*
X21049D01*
Y34177D01*
Y36855D02*
X22101D01*
Y36453D01*
X21049D01*
Y36855D01*
Y39532D02*
X22101D01*
Y39130D01*
X21049D01*
Y39532D01*
X21128Y54138D02*
X22179D01*
Y53736D01*
X21128D01*
Y54138D01*
Y56894D02*
X22179D01*
Y56492D01*
X21128D01*
Y56894D01*
Y59650D02*
X22179D01*
Y59248D01*
X21128D01*
Y59650D01*
X21689Y71412D02*
X29689D01*
Y67762D01*
X21689D01*
Y71412D01*
X25217Y37473D02*
X25717Y37973D01*
X25217D02*
X26752D01*
Y36044D01*
X25217D01*
Y37973D01*
Y43496D02*
X25717Y43996D01*
X25217D02*
X26752D01*
Y42067D01*
X25217D01*
Y43996D01*
X25774Y26973D02*
X26825D01*
Y26571D01*
X25774D01*
Y26973D01*
Y29729D02*
X26825D01*
Y29327D01*
X25774D01*
Y29729D01*
Y32484D02*
X26825D01*
Y32083D01*
X25774D01*
Y32484D01*
X28327Y55492D02*
X28701Y55866D01*
X28327D02*
X28957D01*
Y54725D01*
X28327D01*
Y55866D01*
X32441Y35630D02*
X32815Y36004D01*
X32441D02*
X33071D01*
Y34862D01*
X32441D01*
Y36004D01*
X32461Y41831D02*
X32835Y42205D01*
X32461D02*
X33091D01*
Y41063D01*
X32461D01*
Y42205D01*
X34705Y22677D02*
X41004D01*
Y21221D01*
X34705D01*
Y22677D01*
X46797Y56776D02*
X47849D01*
Y56374D01*
X46797D01*
Y56776D01*
X46817Y59453D02*
X47868D01*
Y59051D01*
X46817D01*
Y59453D01*
X48878Y50839D02*
X49378Y51339D01*
X48878D02*
X50414D01*
Y49410D01*
X48878D01*
Y51339D01*
X50788Y47087D02*
X56299D01*
Y42677D01*
X50788D01*
Y47087D01*
X51049Y59453D02*
X52101D01*
Y59051D01*
X51049D01*
Y59453D01*
X53018Y53252D02*
X54069D01*
Y52851D01*
X53018D01*
Y53252D01*
X54711Y59453D02*
X55762D01*
Y59051D01*
X54711D01*
Y59453D01*
X56319Y50858D02*
X56819Y51358D01*
X56319D02*
X57855D01*
Y49429D01*
X56319D01*
Y51358D01*
X59297Y65142D02*
X60349D01*
Y64740D01*
X59297D01*
Y65142D01*
X61299Y43760D02*
X59764D01*
Y45689D01*
X61299D01*
Y43760D01*
Y44260D02*
X60799Y43760D01*
X63268Y61882D02*
X63768Y62382D01*
X63268D02*
X64803D01*
Y60453D01*
X63268D01*
Y62382D01*
X63406Y55868D02*
X63906Y56368D01*
X63406D02*
X64941D01*
Y52963D01*
X63406D01*
Y56368D01*
X64961Y67540D02*
X59449D01*
Y71949D01*
X64961D01*
Y67540D01*
X67191Y42721D02*
X68242D01*
Y42319D01*
X67191D01*
Y42721D01*
X67512Y71471D02*
X78512D01*
Y67821D01*
X67512D01*
Y71471D01*
X68372Y53744D02*
X69423D01*
Y53343D01*
X68372D01*
Y53744D01*
Y56500D02*
X69423D01*
Y56099D01*
X68372D01*
Y56500D01*
X70886Y47965D02*
X71386Y48465D01*
X70886D02*
X72421D01*
Y46536D01*
X70886D01*
Y48465D01*
X75459Y47445D02*
X76510D01*
Y47044D01*
X75459D01*
Y47445D01*
X75610Y42542D02*
X76110Y43042D01*
X75610D02*
X77146D01*
Y39636D01*
X75610D01*
Y43042D01*
X79396Y45477D02*
X80447D01*
Y45075D01*
X79396D01*
Y45477D01*
X81044Y71471D02*
X96044D01*
Y67821D01*
X81044D01*
Y71471D01*
X87421Y33229D02*
X87795Y33603D01*
X87421D02*
X88051D01*
Y32461D01*
X87421D01*
Y33603D01*
X90813Y58862D02*
X91864D01*
Y58461D01*
X90813D01*
Y58862D01*
X94356Y56106D02*
X95408D01*
Y55705D01*
X94356D01*
Y56106D01*
Y58862D02*
X95408D01*
Y58461D01*
X94356D01*
Y58862D01*
X97717Y38918D02*
Y34154D01*
X103937D01*
Y38918D01*
X97717D01*
X98091Y25276D02*
X103603D01*
Y20866D01*
X98091D01*
Y25276D01*
X102992Y71969D02*
Y66142D01*
X99449D01*
Y71969D01*
X102992D01*
X103459Y58969D02*
Y49969D01*
X99809D01*
Y58969D01*
X103459D01*
X103937Y43012D02*
X98110D01*
Y46555D01*
X103937D01*
Y43012D01*
D02*
D12*
X6831Y21309D02*
X16870D01*
Y23888D01*
X6831D01*
Y21309D01*
Y28396D02*
X16870D01*
Y30975D01*
X6831D01*
Y28396D01*
X21260Y62786D02*
X22047D01*
Y62294D01*
X21260D01*
Y62786D01*
X21969Y41585D02*
X21181D01*
Y42077D01*
X21969D01*
Y41585D01*
Y44321D02*
X21181D01*
Y44813D01*
X21969D01*
Y44321D01*
X25276Y40266D02*
X26063D01*
Y39774D01*
X25276D01*
Y40266D01*
X25315Y46290D02*
X26103D01*
Y45797D01*
X25315D01*
Y46290D01*
X28406Y58179D02*
X29193D01*
Y57687D01*
X28406D01*
Y58179D01*
X28484Y60482D02*
X29272D01*
Y59990D01*
X28484D01*
Y60482D01*
Y62805D02*
X29272D01*
Y62313D01*
X28484D01*
Y62805D01*
Y65128D02*
X29272D01*
Y64636D01*
X28484D01*
Y65128D01*
X29311Y36979D02*
X30099D01*
Y36486D01*
X29311D01*
Y36979D01*
Y39301D02*
X30099D01*
Y38809D01*
X29311D01*
Y39301D01*
Y43022D02*
X30099D01*
Y42530D01*
X29311D01*
Y43022D01*
Y45640D02*
X30099D01*
Y45148D01*
X29311D01*
Y45640D01*
X31949Y54341D02*
X32736D01*
Y53849D01*
X31949D01*
Y54341D01*
Y56703D02*
X32736D01*
Y56211D01*
X31949D01*
Y56703D01*
X32540Y38317D02*
X33327D01*
Y37825D01*
X32540D01*
Y38317D01*
X32559Y44518D02*
X33347D01*
Y44026D01*
X32559D01*
Y44518D01*
X32603Y58894D02*
Y71894D01*
X34603D01*
Y58894D01*
X32603D01*
X35099Y54341D02*
X35886D01*
Y53849D01*
X35099D01*
Y54341D01*
Y56703D02*
X35886D01*
Y56211D01*
X35099D01*
Y56703D01*
X39823Y53849D02*
X39036D01*
Y54341D01*
X39823D01*
Y53849D01*
Y56211D02*
X39036D01*
Y56703D01*
X39823D01*
Y56211D01*
X41618Y58894D02*
Y71894D01*
X43618D01*
Y58894D01*
X41618D01*
X44547Y53849D02*
X43760D01*
Y54341D01*
X44547D01*
Y53849D01*
Y56211D02*
X43760D01*
Y56703D01*
X44547D01*
Y56211D01*
X48414Y71772D02*
Y61772D01*
X47414D01*
Y71772D01*
X48414D01*
X50827Y53160D02*
X50040D01*
Y53652D01*
X50827D01*
Y53160D01*
X52973Y50384D02*
X53760D01*
Y49892D01*
X52973D01*
Y50384D01*
X56339Y53652D02*
X57126D01*
Y53160D01*
X56339D01*
Y53652D01*
X56406Y71772D02*
Y61772D01*
X55406D01*
Y71772D01*
X56406D01*
X58268Y10482D02*
X59055D01*
Y9990D01*
X58268D01*
Y10482D01*
X59705Y59912D02*
X60492D01*
Y59419D01*
X59705D01*
Y59912D01*
Y62530D02*
X60492D01*
Y62038D01*
X59705D01*
Y62530D01*
X59744Y47982D02*
X60532D01*
Y47490D01*
X59744D01*
Y47982D01*
X60138Y39164D02*
X60925D01*
Y38671D01*
X60138D01*
Y39164D01*
X60925Y41290D02*
X60138D01*
Y41782D01*
X60925D01*
Y41290D01*
X63386Y36073D02*
X64173D01*
Y35581D01*
X63386D01*
Y36073D01*
Y64675D02*
X64173D01*
Y64183D01*
X63386D01*
Y64675D01*
X63544Y58652D02*
X64331D01*
Y58160D01*
X63544D01*
Y58652D01*
X64173Y51014D02*
X64961D01*
Y50522D01*
X64173D01*
Y51014D01*
X65748Y47510D02*
X64961D01*
Y48002D01*
X65748D01*
Y47510D01*
X67717Y45522D02*
X68504D01*
Y45030D01*
X67717D01*
Y45522D01*
X68465Y23051D02*
X72481D01*
Y21260D01*
X68465D01*
Y23051D01*
X68504Y59301D02*
X69292D01*
Y58809D01*
X68504D01*
Y59301D01*
Y61664D02*
X69292D01*
Y61171D01*
X68504D01*
Y61664D01*
X70965Y50758D02*
X71752D01*
Y50266D01*
X70965D01*
Y50758D01*
X72362Y40010D02*
X73150D01*
Y39518D01*
X72362D01*
Y40010D01*
Y42294D02*
X73150D01*
Y41801D01*
X72362D01*
Y42294D01*
X72461Y35384D02*
X73248D01*
Y34892D01*
X72461D01*
Y35384D01*
Y37707D02*
X73248D01*
Y37215D01*
X72461D01*
Y37707D01*
X73071Y44105D02*
X72284D01*
Y44597D01*
X73071D01*
Y44105D01*
X75571Y37106D02*
X77461D01*
Y35729D01*
X75571D01*
Y37106D01*
X79685Y42038D02*
X80473D01*
Y41545D01*
X79685D01*
Y42038D01*
X80473Y39223D02*
X79685D01*
Y39715D01*
X80473D01*
Y39223D01*
X88091Y29813D02*
X88878D01*
Y29321D01*
X88091D01*
Y29813D01*
X89606Y20866D02*
X94764D01*
Y26378D01*
X89606D01*
Y20866D01*
X90370Y39114D02*
Y39626D01*
X91520D01*
Y39114D01*
X90370D01*
X90746D02*
X90370Y39490D01*
X90748Y61782D02*
X91536D01*
Y61290D01*
X90748D01*
Y61782D01*
Y64065D02*
X91536D01*
Y63573D01*
X90748D01*
Y64065D01*
X91122Y32923D02*
X90335D01*
Y33416D01*
X91122D01*
Y32923D01*
X91339Y36368D02*
X90551D01*
Y36860D01*
X91339D01*
Y36368D01*
X91886Y45020D02*
Y45532D01*
X93036D01*
Y45020D01*
X91886D01*
X92262D02*
X91886Y45396D01*
X92835Y42313D02*
X92047D01*
Y42805D01*
X92835D01*
Y42313D01*
X93051Y29016D02*
X91319D01*
Y31142D01*
X93051D01*
Y29016D01*
Y29272D02*
X92795Y29016D01*
X93599Y39114D02*
Y39626D01*
X94748D01*
Y39114D01*
X93599D01*
X93701Y36860D02*
X94488D01*
Y36368D01*
X93701D01*
Y36860D01*
X93973Y39114D02*
X93599Y39488D01*
X94292Y62973D02*
X95197Y63878D01*
X94292D02*
X95669D01*
Y61319D01*
X94292D01*
Y63878D01*
X94858Y45020D02*
Y45532D01*
X96008D01*
Y45020D01*
X94858D01*
X95040Y42805D02*
X95827D01*
Y42313D01*
X95040D01*
Y42805D01*
X95232Y45020D02*
X94858Y45394D01*
X98425Y61782D02*
X99213D01*
Y61290D01*
X98425D01*
Y61782D01*
Y64065D02*
X99213D01*
Y63573D01*
X98425D01*
Y64065D01*
X101969Y62973D02*
X102874Y63878D01*
X101969D02*
X103347D01*
Y61319D01*
X101969D01*
Y63878D01*
X0Y0D02*
M02*
