G04 GENERATED BY PULSONIX 11.0 GERBER.DLL 8466*
G04 #@! TF.GenerationSoftware,Pulsonix,Pulsonix,11.0.8467*
G04 #@! TF.CreationDate,2021-12-19T21:00:55+00:00*
G04 #@! TF.Part,Single*
%FSLAX24Y24*%
%LPD*%
%MOIN*%
G04 #@! TF.FileFunction,Paste,Top*
G04 #@! TF.FilePolarity,Positive*
G04 #@! TA.AperFunction,SMDPad,CuDef*
%ADD98R,0.0591X0.0256*%
%ADD99R,0.0984X0.0236*%
%ADD100R,0.1969X0.0984*%
%ADD101R,0.0315X0.0512*%
%ADD102R,0.0827X0.1181*%
G04 #@! TA.AperFunction,TestPad*
%ADD103R,0.1350X0.0701*%
G04 #@! TA.AperFunction,SMDPad,CuDef*
%ADD104R,0.0472X0.0236*%
%ADD105R,0.0500X0.2000*%
%ADD106R,0.0551X0.1772*%
%ADD107R,0.2000X0.0500*%
%ADD108R,0.0610X0.0276*%
%ADD109R,0.1102X0.0965*%
%ADD110R,0.0965X0.1102*%
%ADD111R,0.0750X0.0402*%
%ADD112R,0.0874X0.0402*%
%ADD113R,0.0374X0.0551*%
%ADD114R,0.0581X0.0177*%
%ADD115R,0.0402X0.0579*%
%ADD116R,0.0118X0.0394*%
%ADD117R,0.0650X0.0512*%
%ADD118R,0.0512X0.0787*%
%ADD119R,0.0709X0.0787*%
%ADD120R,0.0236X0.0492*%
%ADD121R,0.0236X0.0512*%
%ADD122R,0.0220X0.0949*%
%ADD123R,0.0441X0.1134*%
%ADD124R,0.0453X0.0453*%
%ADD125R,0.0118X0.0472*%
%ADD126R,0.0945X0.0945*%
%ADD127R,0.1083X0.0374*%
%ADD128R,0.1083X0.1280*%
G04 #@! TD.AperFunction*
X0Y0D02*
D02*
D98*
X63110Y53166D03*
Y53666D03*
Y54166D03*
Y54666D03*
Y55166D03*
Y55666D03*
Y56166D03*
X65236Y53166D03*
Y53666D03*
Y54166D03*
Y54666D03*
Y55166D03*
Y55666D03*
Y56166D03*
X75315Y39839D03*
Y40339D03*
Y40839D03*
Y41339D03*
Y41839D03*
Y42339D03*
Y42839D03*
X77441Y39839D03*
Y40339D03*
Y40839D03*
Y41339D03*
Y41839D03*
Y42339D03*
Y42839D03*
D02*
D99*
X97335Y35797D03*
Y36290D03*
Y36782D03*
Y37274D03*
D02*
D100*
X100236Y33878D03*
Y39193D03*
D02*
D101*
X35886Y22736D03*
X36378D03*
X36870D03*
X37362D03*
X37855D03*
X38347D03*
X38839D03*
X39331D03*
X39823D03*
D02*
D102*
X34882Y21654D03*
X40827D03*
D02*
D103*
X21575Y33977D03*
Y36654D03*
Y39331D03*
X21654Y53937D03*
Y56693D03*
Y59449D03*
X26299Y26772D03*
Y29528D03*
Y32284D03*
X47323Y56575D03*
X47343Y59252D03*
X51575D03*
X53544Y53051D03*
X55236Y59252D03*
X59823Y64941D03*
X67717Y42520D03*
X68898Y53544D03*
Y56299D03*
X75984Y47244D03*
X79921Y45276D03*
X91339Y58662D03*
X94882Y55906D03*
Y58662D03*
D02*
D104*
X28150Y54921D03*
Y55295D03*
Y55669D03*
X29134Y54921D03*
Y55669D03*
X32264Y35059D03*
Y35433D03*
Y35807D03*
X32284Y41260D03*
Y41634D03*
Y42008D03*
X33248Y35059D03*
Y35807D03*
X33268Y41260D03*
Y42008D03*
X87244Y32658D03*
Y33032D03*
Y33406D03*
X88229Y32658D03*
Y33406D03*
D02*
D105*
X23689Y68236D03*
Y70937D03*
X24689Y68236D03*
Y70937D03*
X25689Y68236D03*
Y70937D03*
X26689Y68236D03*
Y70937D03*
X27689Y68236D03*
Y70937D03*
X69512Y68295D03*
Y70996D03*
X70512Y68295D03*
Y70996D03*
X71512Y68295D03*
Y70996D03*
X72512Y68295D03*
Y70996D03*
X73512Y68295D03*
Y70996D03*
X74512Y68295D03*
Y70996D03*
X75512Y68295D03*
Y70996D03*
X76512Y68295D03*
Y70996D03*
X83044Y68295D03*
Y70996D03*
X84044Y68295D03*
Y70996D03*
X85044Y68295D03*
Y70996D03*
X86044Y68295D03*
Y70996D03*
X87044Y68295D03*
Y70996D03*
X88044Y68295D03*
Y70996D03*
X89044Y68295D03*
Y70996D03*
X90044Y68295D03*
Y70996D03*
X91044Y68295D03*
Y70996D03*
X92044Y68295D03*
Y70996D03*
X93044Y68295D03*
Y70996D03*
X94044Y68295D03*
Y70996D03*
D02*
D106*
X52559Y46280D03*
X54528D03*
X61221Y68347D03*
X63189D03*
X99862Y24469D03*
X101831D03*
D02*
D107*
X100284Y51969D03*
Y52969D03*
Y53969D03*
Y54969D03*
Y55969D03*
Y56969D03*
X102984Y51969D03*
Y52969D03*
Y53969D03*
Y54969D03*
Y55969D03*
Y56969D03*
D02*
D108*
X24912Y36258D03*
Y36758D03*
Y37258D03*
Y37758D03*
Y42282D03*
Y42782D03*
Y43282D03*
Y43782D03*
X27057Y36258D03*
Y36758D03*
Y37258D03*
Y37758D03*
Y42282D03*
Y42782D03*
Y43282D03*
Y43782D03*
X48573Y49624D03*
Y50124D03*
Y50624D03*
Y51124D03*
X50719Y49624D03*
Y50124D03*
Y50624D03*
Y51124D03*
X56014Y49644D03*
Y50144D03*
Y50644D03*
Y51144D03*
X58160Y49644D03*
Y50144D03*
Y50644D03*
Y51144D03*
X59459Y43975D03*
Y44475D03*
Y44975D03*
Y45475D03*
X61605Y43975D03*
Y44475D03*
Y44975D03*
Y45475D03*
X62963Y60668D03*
Y61168D03*
Y61668D03*
Y62168D03*
X65108Y60668D03*
Y61168D03*
Y61668D03*
Y62168D03*
X70581Y46750D03*
Y47250D03*
Y47750D03*
Y48250D03*
X72727Y46750D03*
Y47250D03*
Y47750D03*
Y48250D03*
D02*
D109*
X99567Y42530D03*
Y47038D03*
X101969Y42530D03*
Y47038D03*
D02*
D110*
X98967Y67599D03*
Y70000D03*
X103475Y67599D03*
Y70000D03*
D02*
D111*
X47214Y71272D03*
X47215Y63272D03*
Y65272D03*
Y67272D03*
Y69272D03*
X48612Y62272D03*
Y64272D03*
Y66272D03*
Y68272D03*
X48613Y70272D03*
X55206Y71272D03*
X55207Y63272D03*
Y65272D03*
Y67272D03*
Y69272D03*
X56605Y62272D03*
Y64272D03*
Y66272D03*
Y68272D03*
X56605Y70272D03*
D02*
D112*
X32490Y59394D03*
Y60394D03*
Y61394D03*
Y62394D03*
Y63394D03*
Y64394D03*
Y65394D03*
Y66394D03*
Y67394D03*
Y68394D03*
Y69394D03*
Y70394D03*
Y71394D03*
X34715Y59394D03*
Y60394D03*
Y61394D03*
Y62394D03*
Y63394D03*
Y64394D03*
Y65394D03*
Y66394D03*
Y67394D03*
Y68394D03*
Y69394D03*
Y70394D03*
Y71394D03*
X41506Y59394D03*
Y60394D03*
Y61394D03*
Y62394D03*
Y63394D03*
Y64394D03*
Y65394D03*
Y66394D03*
Y67394D03*
Y68394D03*
Y69394D03*
Y70394D03*
Y71394D03*
X43731Y59394D03*
Y60394D03*
Y61394D03*
Y62394D03*
Y63394D03*
Y64394D03*
Y65394D03*
Y66394D03*
Y67394D03*
Y68394D03*
Y69394D03*
Y70394D03*
Y71394D03*
D02*
D113*
X21201Y41831D03*
Y44567D03*
X21280Y62540D03*
X21949Y41831D03*
Y44567D03*
X22028Y62540D03*
X28504Y60236D03*
Y62559D03*
Y64882D03*
X29252Y60236D03*
Y62559D03*
Y64882D03*
X29331Y36732D03*
Y39055D03*
Y42776D03*
Y45394D03*
X30079Y36732D03*
Y39055D03*
Y42776D03*
Y45394D03*
X31969Y54095D03*
Y56457D03*
X32717Y54095D03*
Y56457D03*
X35118Y54095D03*
Y56457D03*
X35866Y54095D03*
Y56457D03*
X39055Y54095D03*
Y56457D03*
X39803Y54095D03*
Y56457D03*
X43780Y54095D03*
Y56457D03*
X44528Y54095D03*
Y56457D03*
X50059Y53406D03*
X50807D03*
X52992Y50138D03*
X53740D03*
X58288Y10236D03*
X59036D03*
X63406Y35827D03*
X64154D03*
X67736Y45276D03*
X68484D03*
X68524Y59055D03*
Y61418D03*
X69272Y59055D03*
Y61418D03*
X72303Y44351D03*
X72481Y35138D03*
Y37461D03*
X73051Y44351D03*
X73229Y35138D03*
Y37461D03*
X79705Y39469D03*
Y41792D03*
X80453Y39469D03*
Y41792D03*
X90571Y36614D03*
X91319D03*
X92067Y42559D03*
X92815D03*
X93721Y36614D03*
X94469D03*
X95059Y42559D03*
X95807D03*
D02*
D114*
X91029Y29311D03*
Y29567D03*
Y29823D03*
Y30079D03*
Y30335D03*
Y30591D03*
Y30847D03*
X93342Y29311D03*
Y29567D03*
Y29823D03*
Y30079D03*
Y30335D03*
Y30591D03*
Y30847D03*
D02*
D115*
X25355Y40020D03*
X25394Y46044D03*
X25984Y40020D03*
X26024Y46044D03*
X28484Y57933D03*
X29114D03*
X32618Y38071D03*
X32638Y44272D03*
X33248Y38071D03*
X33268Y44272D03*
X56418Y53406D03*
X57047D03*
X59823Y47736D03*
X60453D03*
X63465Y64429D03*
X63622Y58406D03*
X64095Y64429D03*
X64252Y58406D03*
X71044Y50512D03*
X71673D03*
X72441Y39764D03*
Y42047D03*
X73071Y39764D03*
Y42047D03*
X88169Y29567D03*
X88799D03*
X90414Y33169D03*
X90827Y61536D03*
Y63819D03*
X91044Y33169D03*
X91457Y61536D03*
Y63819D03*
X98504Y61536D03*
Y63819D03*
X99134Y61536D03*
Y63819D03*
D02*
D116*
X69587Y23150D03*
X69784D03*
X69981D03*
X70177D03*
X70374D03*
X70571D03*
X70768D03*
X70965D03*
X71162D03*
X71358D03*
D02*
D117*
X68691Y22402D03*
X72254D03*
D02*
D118*
X76016Y35669D03*
X77016D03*
D02*
D119*
X76516Y37166D03*
D02*
D120*
X90569Y38957D03*
X90945Y39784D03*
X91321Y38957D03*
X92085Y44862D03*
X92461Y45689D03*
X92837Y44862D03*
D02*
D121*
X93799Y38957D03*
X94173Y39784D03*
X94547Y38957D03*
X95059Y44862D03*
X95433Y45689D03*
X95807Y44862D03*
D02*
D122*
X50197Y32390D03*
Y33792D03*
X50591Y32390D03*
Y33792D03*
X50984Y32390D03*
Y33792D03*
X51378Y32390D03*
Y33792D03*
X51772Y32390D03*
Y33792D03*
X52166Y32390D03*
Y33792D03*
X52559Y32390D03*
Y33792D03*
X52953Y32390D03*
Y33792D03*
X53347Y32390D03*
Y33792D03*
X53740Y32390D03*
Y33792D03*
X54134Y32390D03*
Y33792D03*
X54528Y32390D03*
Y33792D03*
X54921Y32390D03*
Y33792D03*
X55315Y32390D03*
Y33792D03*
X55709Y32390D03*
Y33792D03*
X56103Y32390D03*
Y33792D03*
X56496Y32390D03*
Y33792D03*
X56890Y32390D03*
Y33792D03*
D02*
D123*
X90807Y26323D03*
X91792D03*
X92579D03*
X93563D03*
D02*
D124*
X59636Y59666D03*
Y62284D03*
X60069Y38918D03*
Y41536D03*
X60561Y59666D03*
Y62284D03*
X60994Y38918D03*
Y41536D03*
X64105Y50768D03*
X64892Y47756D03*
X65030Y50768D03*
X65817Y47756D03*
D02*
D125*
X8012Y24006D03*
Y31093D03*
X8209Y24006D03*
Y31093D03*
X8406Y24006D03*
Y31093D03*
X8603Y24006D03*
Y31093D03*
X8799Y24006D03*
Y31093D03*
X8996Y24006D03*
Y31093D03*
X9193Y24006D03*
Y31093D03*
X9390Y24006D03*
Y31093D03*
X9587Y24006D03*
Y31093D03*
X9784Y24006D03*
Y31093D03*
X9981Y24006D03*
Y31093D03*
X10177Y24006D03*
Y31093D03*
X10374Y24006D03*
Y31093D03*
X10571Y24006D03*
Y31093D03*
X10768Y24006D03*
Y31093D03*
X10965Y24006D03*
Y31093D03*
X11162Y24006D03*
Y31093D03*
X11358Y24006D03*
Y31093D03*
X11555Y24006D03*
Y31093D03*
X11752Y24006D03*
Y31093D03*
X11949Y24006D03*
Y31093D03*
X12146Y24006D03*
Y31093D03*
X12343Y24006D03*
Y31093D03*
X12540Y24006D03*
Y31093D03*
X12736Y24006D03*
Y31093D03*
X12933Y24006D03*
Y31093D03*
X13130Y24006D03*
Y31093D03*
X13327Y24006D03*
Y31093D03*
X13524Y24006D03*
Y31093D03*
X13721Y24006D03*
Y31093D03*
X13918Y24006D03*
Y31093D03*
X14114Y24006D03*
Y31093D03*
X14311Y24006D03*
Y31093D03*
X14508Y24006D03*
Y31093D03*
X14705Y24006D03*
Y31093D03*
X14902Y24006D03*
Y31093D03*
X15099Y24006D03*
Y31093D03*
X15295Y24006D03*
Y31093D03*
X15492Y24006D03*
Y31093D03*
X15689Y24006D03*
Y31093D03*
D02*
D126*
X7185Y22786D03*
Y29872D03*
X16516Y22786D03*
Y29872D03*
D02*
D127*
X93957Y61693D03*
Y62599D03*
Y63504D03*
X101634Y61693D03*
Y62599D03*
Y63504D03*
D02*
D128*
X96004Y62599D03*
X103681D03*
X0Y0D02*
M02*
