G04 GENERATED BY PULSONIX 11.0 GERBER.DLL 8466*
G04 #@! TF.GenerationSoftware,Pulsonix,Pulsonix,11.0.8467*
G04 #@! TF.CreationDate,2021-12-19T21:00:54+00:00*
G04 #@! TF.Part,Single*
%FSLAX24Y24*%
%LPD*%
%MOIN*%
G04 #@! TF.FileFunction,Plated,1,4,PTH*
G04 #@! TF.FilePolarity,Positive*
%ADD90C,0.0984*%
%ADD92C,0.0551*%
%ADD93C,0.0748*%
%ADD94C,0.0669*%
%ADD95C,0.0500*%
%ADD131C,0.0157*%
%ADD132C,0.0315*%
%ADD133C,0.0906*%
G04 #@! TD.AperFunction*
X0Y0D02*
D02*
D90*
X46851Y3544D03*
X60236D03*
D02*
D92*
X100453Y35453D03*
Y37618D03*
D02*
D93*
X51063Y44252D03*
X56024D03*
X59725Y70374D03*
X64685D03*
X98366Y22441D03*
X99937Y44784D03*
X101221Y67969D03*
X103327Y22441D03*
D02*
D94*
X101221Y70000D03*
X101969Y44784D03*
D02*
D95*
X47914Y62772D03*
Y70772D03*
X55906Y62772D03*
Y70772D03*
D02*
D131*
X3436Y53888D03*
X4196Y26907D03*
X4423Y69585D03*
X4461Y39740D03*
X4834Y59275D03*
X5113Y33124D03*
X5290Y34973D03*
X5509Y23921D03*
X5694Y57808D03*
X6063Y46297D03*
X6429Y65765D03*
X6943Y61966D03*
X7047Y42134D03*
X7121Y35710D03*
X7294Y67598D03*
X7425Y50830D03*
X8406Y25197D03*
X8996Y23524D03*
Y31595D03*
X9581Y46592D03*
X9667Y33026D03*
X10187Y41580D03*
X10451Y64862D03*
X10711Y21336D03*
X11162Y35295D03*
Y37953D03*
X11752Y23524D03*
Y31595D03*
X11925Y53835D03*
X12100Y40373D03*
X12473Y70134D03*
X12599Y66190D03*
X12742Y32722D03*
X12838Y43258D03*
X12933Y23524D03*
Y31575D03*
X13701Y55645D03*
X14083Y46856D03*
X15295Y23524D03*
Y31614D03*
X15689Y23524D03*
Y31595D03*
X15944Y43011D03*
X15945Y25197D03*
X16352Y58374D03*
X16625Y66930D03*
X16978Y61784D03*
X17473Y33670D03*
X18488Y69586D03*
X18574Y31092D03*
X18730Y50210D03*
X19094Y51967D03*
X19523Y25531D03*
X19638Y46674D03*
X19772Y64780D03*
X19854Y40186D03*
X20339Y62875D03*
X20409Y27702D03*
X20669Y41831D03*
Y44567D03*
X20916Y32864D03*
X22559Y62540D03*
X22630Y52990D03*
X22795Y56693D03*
X22815Y53937D03*
X22838Y58057D03*
X22884Y24153D03*
X22990Y70009D03*
X23209Y70925D03*
X23347Y33977D03*
Y36752D03*
Y39331D03*
X23721Y29528D03*
X23809Y59849D03*
X24095Y26772D03*
X24218Y35984D03*
X24277Y72653D03*
X24843Y26772D03*
Y29528D03*
X24862Y40020D03*
X24882Y46044D03*
Y56697D03*
X24902Y52421D03*
X24912Y35689D03*
Y41713D03*
X25464Y25720D03*
X25773Y30718D03*
X25847Y50748D03*
X25984Y40630D03*
X26024Y46654D03*
X26358Y39331D03*
X26398Y53937D03*
X26932Y41179D03*
X27362Y62540D03*
X27402Y46346D03*
X27559Y54921D03*
X27648Y23894D03*
X27697Y36752D03*
X28032Y45394D03*
X28071Y37264D03*
X28169Y70925D03*
X28324Y30459D03*
X28484Y57343D03*
X28799Y45394D03*
X28922Y65857D03*
X29134Y58544D03*
X29189Y52736D03*
X29478Y58802D03*
X29666Y44095D03*
X29784Y46929D03*
Y60236D03*
Y62559D03*
Y64882D03*
X30079Y37362D03*
Y38445D03*
X30199Y40146D03*
X30295Y51516D03*
X30591Y42795D03*
X30610Y45394D03*
X30629Y46129D03*
X30671Y68869D03*
X31319Y35433D03*
Y42323D03*
X31497Y22485D03*
X31673Y35807D03*
X31997Y27909D03*
X32264Y34488D03*
X32284Y40689D03*
X32618Y37481D03*
X32638Y43662D03*
X33071Y63898D03*
X33248Y38662D03*
X33268Y44862D03*
X33838Y47583D03*
X34173Y35807D03*
X34576Y57240D03*
X34766Y24384D03*
X35277Y46038D03*
X35319Y28723D03*
X35374Y69390D03*
Y70394D03*
Y71398D03*
X35630Y23484D03*
X35667Y33533D03*
X35886Y22225D03*
X36004Y23858D03*
X36103Y63898D03*
X36116Y66364D03*
X36378Y24606D03*
X36870Y24232D03*
X37315Y68579D03*
X38347Y23484D03*
X38839Y23858D03*
X40197Y24606D03*
X40571Y24232D03*
X41213Y26264D03*
X42183Y51373D03*
X42444Y30798D03*
X42460Y41754D03*
X43797Y50188D03*
X44074Y45298D03*
X44092Y24202D03*
X44148Y72651D03*
X44469Y70414D03*
Y71398D03*
X44905Y36097D03*
X46118Y22846D03*
X46337Y56822D03*
X46340Y15248D03*
X46934Y71843D03*
X47003Y40922D03*
X47073Y36321D03*
X47529Y30310D03*
X47553Y42817D03*
X47566Y49185D03*
X47933Y49626D03*
X48409Y26217D03*
X48615Y71052D03*
X48694Y53463D03*
X49252Y59252D03*
X49547Y53406D03*
X49617Y11573D03*
X49626Y70276D03*
X50197Y11811D03*
Y31496D03*
X50270Y15484D03*
X50555Y39559D03*
X50583Y62481D03*
X50984Y11614D03*
Y34646D03*
X51378Y11811D03*
Y34843D03*
X51586Y4950D03*
X51655Y43605D03*
X51772Y11614D03*
X51961Y47298D03*
X52136Y64641D03*
X52166Y11811D03*
Y31496D03*
X52234Y25784D03*
X52559Y11614D03*
X52781Y58433D03*
X52883Y53849D03*
X52953Y11811D03*
Y31496D03*
X53169Y44975D03*
X53322Y35593D03*
X53347Y11614D03*
X53680Y44551D03*
X53740Y11831D03*
Y31496D03*
X54134Y11614D03*
Y31299D03*
X54190Y54013D03*
X54528Y11811D03*
Y31496D03*
Y47855D03*
X54949Y61915D03*
X55193Y10824D03*
X55315Y11614D03*
Y31496D03*
Y34646D03*
X55374Y49646D03*
X55480Y37645D03*
X55709Y11811D03*
Y34843D03*
X55925Y53406D03*
X55985Y65758D03*
X56103Y11614D03*
Y34646D03*
X56496Y11811D03*
Y34843D03*
X56890Y11614D03*
Y34646D03*
X56923Y70834D03*
X56987Y6683D03*
X56988Y57028D03*
X57134Y57845D03*
X57224Y47766D03*
X57540Y53406D03*
X58511Y12157D03*
X58603Y5702D03*
X58726Y17050D03*
X58765Y66823D03*
X59036Y50144D03*
X59090Y22719D03*
X59154Y39370D03*
X59331Y47736D03*
X59636Y58957D03*
X60356Y29395D03*
X60428Y70707D03*
X60851Y50801D03*
X60945Y47736D03*
X61111Y26484D03*
X61221Y66732D03*
X61653Y56534D03*
X62264Y45473D03*
X62343Y60668D03*
X62481Y53166D03*
Y54173D03*
Y54666D03*
X62708Y32536D03*
X62825Y25203D03*
X62973Y64410D03*
X63130Y58386D03*
X63314Y59812D03*
X63707Y43036D03*
X64253Y24726D03*
X64311Y34281D03*
X64508Y46673D03*
X64587Y64429D03*
X64666Y35807D03*
X64744Y58386D03*
X65151Y38344D03*
X65180Y67812D03*
X65276Y46673D03*
X65847Y53666D03*
X65866Y54173D03*
X65945Y60788D03*
X66437Y58406D03*
X66720Y21138D03*
X67736Y53662D03*
X68524Y58406D03*
Y60788D03*
X68599Y69606D03*
X68714Y55576D03*
X68812Y67261D03*
X68923Y27445D03*
X69097Y34611D03*
X69272Y58406D03*
Y60788D03*
X69508Y69764D03*
X69685Y31890D03*
X69784Y22697D03*
X69961Y66339D03*
X70473Y28347D03*
X70512Y66339D03*
Y69764D03*
X71044Y49902D03*
X71162Y44475D03*
X71184Y33732D03*
X71299Y46750D03*
X71516Y69764D03*
X71772Y44351D03*
X71929Y42047D03*
X71949Y39764D03*
X72166Y50492D03*
X72266Y53075D03*
X72520Y69764D03*
X73021Y23151D03*
X73504Y69764D03*
X73583Y42047D03*
X73739Y38494D03*
X74528Y69764D03*
X74666Y40847D03*
Y41839D03*
X74843Y35650D03*
X75000Y56693D03*
Y60197D03*
X75237Y33520D03*
X75469Y59231D03*
X75512Y69764D03*
X76201Y65000D03*
X76490Y21988D03*
X76516Y69764D03*
X76539Y27891D03*
X77877Y38614D03*
X78091Y39839D03*
Y41839D03*
X78110Y35669D03*
X78169Y57579D03*
X78272Y53713D03*
X78371Y33651D03*
X78504Y40847D03*
X78682Y49384D03*
X79523Y64846D03*
X79941Y43858D03*
X80345Y26763D03*
X80453Y38839D03*
Y41162D03*
X81673Y32933D03*
X81720Y62669D03*
X82047Y29390D03*
X82303Y54232D03*
X82360Y57104D03*
X82677Y56693D03*
X83051Y69784D03*
X83733Y60942D03*
X83740Y60236D03*
X84036Y69784D03*
X84525Y38128D03*
X84646Y63780D03*
X85020Y69784D03*
X85737Y66655D03*
X86024Y69784D03*
X86044Y55276D03*
X86488Y56519D03*
X86673Y32658D03*
X87028Y69784D03*
X87233Y26929D03*
X87520Y46851D03*
Y65748D03*
X87658Y29567D03*
X87851Y38997D03*
X88051Y69784D03*
X88272Y24149D03*
X88740Y46870D03*
X88799Y28977D03*
X89055Y69784D03*
X89067Y37184D03*
X89114Y64784D03*
X90040Y69784D03*
X90044Y65748D03*
X90141Y63944D03*
X90414Y32579D03*
X90577Y42551D03*
X91024Y69784D03*
X91044Y66280D03*
X91319Y38366D03*
X91457Y33169D03*
X91496Y54232D03*
X91555Y55276D03*
X91821Y55805D03*
X91851Y36614D03*
X92011Y47478D03*
X92047Y69784D03*
X92081Y50589D03*
X92618Y58662D03*
X92837Y44272D03*
X92952Y25131D03*
X93032Y69784D03*
X93092Y46238D03*
X93347Y42559D03*
X93563Y25512D03*
X93678Y33922D03*
X93957Y29567D03*
Y30591D03*
X94044Y69784D03*
X95564Y22999D03*
X96129Y21221D03*
X96162Y55906D03*
X97677Y70000D03*
X97780Y47111D03*
X97938Y67342D03*
X98437Y27318D03*
X98557Y68616D03*
X98615Y44365D03*
X98975Y37366D03*
X100706Y58099D03*
X101660Y40177D03*
X101752Y51969D03*
Y52973D03*
Y53957D03*
Y54961D03*
Y55965D03*
X101769Y50237D03*
X102138Y66370D03*
X102984Y57599D03*
X103698Y71905D03*
X103716Y25492D03*
X104080Y35824D03*
D02*
D132*
X90551Y60807D03*
X90571Y63071D03*
X90807Y27697D03*
X92106Y63819D03*
X92914Y63504D03*
X93957Y60689D03*
X95335Y40906D03*
X96260Y46437D03*
X98209Y36782D03*
X98229Y60788D03*
Y63071D03*
X99784Y63819D03*
X99862Y26162D03*
X100591Y63504D03*
X101634Y60689D03*
X101831Y26162D03*
X101969Y48327D03*
X103445Y64941D03*
D02*
D133*
X89599Y24914D03*
X94772D03*
X0Y0D02*
M02*
