G04 GENERATED BY PULSONIX 11.0 GERBER.DLL 8466*
G04 #@! TF.GenerationSoftware,Pulsonix,Pulsonix,11.0.8467*
G04 #@! TF.CreationDate,2021-12-19T21:00:55+00:00*
G04 #@! TF.Part,Single*
%FSLAX24Y24*%
%LPD*%
%MOIN*%
G04 #@! TF.FileFunction,AssemblyDrawing,Bot*
G04 #@! TF.FilePolarity,Positive*
G04 #@! TA.AperFunction,Profile*
%ADD10C,0.0001*%
G04 #@! TA.AperFunction,Material*
%ADD11C,0.0047*%
G04 #@! TD.AperFunction*
X0Y0D02*
D02*
D10*
X2362Y20079D02*
X45669D01*
Y3544D01*
G75*
G03*
X46831Y2362I1172J-10D01*
G01*
X60217D01*
G75*
G03*
X61418Y3563I0J1201D01*
G01*
Y20079D01*
X104725D01*
Y73229D01*
X2362D01*
Y20079D01*
D02*
D11*
X57146Y36949D02*
X52303D01*
Y37855D01*
X57146D01*
Y36949D01*
Y40492D02*
X52303D01*
Y41398D01*
X57146D01*
Y40492D01*
X78012Y27894D02*
X73169D01*
Y28799D01*
X78012D01*
Y27894D01*
Y31437D02*
X73169D01*
Y32343D01*
X78012D01*
Y31437D01*
X80768Y56240D02*
X75925D01*
Y57146D01*
X80768D01*
Y56240D01*
Y59784D02*
X75925D01*
Y60689D01*
X80768D01*
Y59784D01*
Y63327D02*
X75925D01*
Y64232D01*
X80768D01*
Y63327D01*
X0Y0D02*
M02*
