G04 GENERATED BY PULSONIX 11.0 GERBER.DLL 8466*
G04 #@! TF.GenerationSoftware,Pulsonix,Pulsonix,11.0.8467*
G04 #@! TF.CreationDate,2021-12-19T21:00:55+00:00*
G04 #@! TF.Part,Single*
%FSLAX24Y24*%
%LPD*%
%MOIN*%
G04 #@! TF.FileFunction,Paste,Bot*
G04 #@! TF.FilePolarity,Positive*
G04 #@! TA.AperFunction,SMDPad,CuDef*
%ADD91R,0.0945X0.1102*%
%ADD96R,0.0240X0.0539*%
G04 #@! TD.AperFunction*
X0Y0D02*
D02*
D91*
X52579Y37402D03*
Y40945D03*
X56870Y37402D03*
Y40945D03*
X73445Y28347D03*
Y31890D03*
X76201Y56693D03*
Y60236D03*
Y63780D03*
X77736Y28347D03*
Y31890D03*
X80492Y56693D03*
Y60236D03*
Y63780D03*
D02*
D96*
X50197Y12559D03*
Y13819D03*
X50591Y12559D03*
Y13819D03*
X50984Y12559D03*
Y13819D03*
X51378Y12559D03*
Y13819D03*
X51772Y12559D03*
Y13819D03*
X52166Y12559D03*
Y13819D03*
X52559Y12559D03*
Y13819D03*
X52953Y12559D03*
Y13819D03*
X53347Y12559D03*
Y13819D03*
X53740Y12559D03*
Y13819D03*
X54134Y12559D03*
Y13819D03*
X54528Y12559D03*
Y13819D03*
X54921Y12559D03*
Y13819D03*
X55315Y12559D03*
Y13819D03*
X55709Y12559D03*
Y13819D03*
X56103Y12559D03*
Y13819D03*
X56496Y12559D03*
Y13819D03*
X56890Y12559D03*
Y13819D03*
X0Y0D02*
M02*
