G04 GENERATED BY PULSONIX 11.0 GERBER.DLL 8466*
G04 #@! TF.GenerationSoftware,Pulsonix,Pulsonix,11.0.8467*
G04 #@! TF.CreationDate,2021-12-19T21:00:55+00:00*
G04 #@! TF.Part,Single*
%FSLAX24Y24*%
%LPD*%
%MOIN*%
G04 #@! TF.FileFunction,Copper,L2,Inr*
G04 #@! TF.FilePolarity,Negative*
G04 #@! TA.AperFunction,Profile*
%ADD131C,0.0788*%
G04 #@! TA.AperFunction,ViaPad*
%ADD132C,0.0551*%
%ADD133C,0.0748*%
G04 #@! TD.AperFunction*
%ADD134C,0.0001*%
G04 #@! TA.AperFunction,ComponentPad*
%ADD135C,0.1594*%
G04 #@! TD.AperFunction*
%ADD136C,0.0788*%
G04 #@! TD.AperFunction*
X0Y0D02*
D02*
D131*
X2362Y20079D02*
X45669D01*
Y3544D01*
G75*
G03*
X46831Y2362I1172J-10D01*
G01*
X60217D01*
G75*
G03*
X61418Y3563I0J1201D01*
G01*
Y20079D01*
X104725D01*
Y73229D01*
X2362D01*
Y20079D01*
D02*
D132*
X8406Y25197D03*
X15945D03*
X20669Y41831D03*
Y44567D03*
X22559Y62540D03*
X22795Y56693D03*
X22815Y53937D03*
X23347Y33977D03*
Y36752D03*
Y39331D03*
X23721Y29528D03*
X24095Y26772D03*
X24843D03*
Y29528D03*
X24882Y56697D03*
X25984Y40630D03*
X26024Y46654D03*
X26358Y39331D03*
X26398Y53937D03*
X27362Y62540D03*
X27697Y36752D03*
X28032Y45394D03*
X28071Y37264D03*
X28799Y45394D03*
X29134Y58544D03*
X29784Y60236D03*
Y62559D03*
Y64882D03*
X30079Y37362D03*
Y38445D03*
X30591Y42795D03*
X30610Y45394D03*
X31319Y35433D03*
Y42323D03*
X31673Y35807D03*
X33071Y63898D03*
X33248Y38662D03*
X33268Y44862D03*
X34173Y35807D03*
X35630Y23484D03*
X36004Y23858D03*
X36103Y63898D03*
X36378Y24606D03*
X36870Y24232D03*
X38347Y23484D03*
X38839Y23858D03*
X40197Y24606D03*
X40571Y24232D03*
X49252Y59252D03*
X49547Y53406D03*
X50984Y11614D03*
Y34646D03*
X51378Y11811D03*
Y34843D03*
X51772Y11614D03*
X52559D03*
X53169Y44975D03*
X53347Y11614D03*
X54134D03*
Y31299D03*
X55315Y34646D03*
X55709Y11811D03*
Y34843D03*
X56103Y11614D03*
Y34646D03*
X56496Y11811D03*
Y34843D03*
X56890Y11614D03*
Y34646D03*
X56988Y57028D03*
X57540Y53406D03*
X59036Y50144D03*
X59636Y58957D03*
X60945Y47736D03*
X62481Y53166D03*
X64508Y46673D03*
X64587Y64429D03*
X64666Y35807D03*
X64744Y58386D03*
X65276Y46673D03*
X65847Y53666D03*
X65945Y60788D03*
X66437Y58406D03*
X67736Y53662D03*
X68524Y58406D03*
Y60788D03*
X69272Y58406D03*
Y60788D03*
X69685Y31890D03*
X69961Y66339D03*
X70473Y28347D03*
X70512Y66339D03*
X71772Y44351D03*
X72166Y50492D03*
X73583Y42047D03*
X74666Y40847D03*
Y41839D03*
X74843Y35650D03*
X75000Y56693D03*
Y60197D03*
X76201Y65000D03*
X78091Y39839D03*
X78504Y40847D03*
X79941Y43858D03*
X80453Y41162D03*
X81673Y32933D03*
X82047Y29390D03*
X82303Y54232D03*
X82677Y56693D03*
X83740Y60236D03*
X84646Y63780D03*
X86044Y55276D03*
X87520Y46851D03*
Y65748D03*
X88740Y46870D03*
X88799Y28977D03*
X89114Y64784D03*
X90044Y65748D03*
X90414Y32579D03*
X91044Y66280D03*
X91496Y54232D03*
X91555Y55276D03*
X92618Y58662D03*
D02*
D133*
X90807Y27697D03*
X92106Y63819D03*
X93957Y60689D03*
X95335Y40906D03*
X96260Y46437D03*
X99784Y63819D03*
X99862Y26162D03*
X101634Y60689D03*
X103445Y64941D03*
D02*
D134*
X46240Y3544D02*
G36*
X46240Y3544D02*
G75*
G03*
X47461I611J0D01*
G01*
G75*
G03*
X46240I-610J0D01*
G01*
G37*
X47545Y62772D02*
G36*
X47545Y62772D02*
G75*
G03*
X48282I369J0D01*
G01*
G75*
G03*
X47545I-368J0D01*
G01*
G37*
Y70772D02*
G36*
X47545Y70772D02*
G75*
G03*
X48282I369J0D01*
G01*
G75*
G03*
X47545I-368J0D01*
G01*
G37*
X50571Y44252D02*
G36*
X50571Y44252D02*
G75*
G03*
X51555I492J0D01*
G01*
G75*
G03*
X50571I-492J0D01*
G01*
G37*
X55532D02*
G36*
X55532Y44252D02*
G75*
G03*
X56516I492J0D01*
G01*
G75*
G03*
X55532I-492J0D01*
G01*
G37*
X55538Y62772D02*
G36*
X55538Y62772D02*
G75*
G03*
X56274I368J0D01*
G01*
G75*
G03*
X55538I-368J0D01*
G01*
G37*
Y70772D02*
G36*
X55538Y70772D02*
G75*
G03*
X56274I368J0D01*
G01*
G75*
G03*
X55538I-368J0D01*
G01*
G37*
X59232Y70374D02*
G36*
X59232Y70374D02*
G75*
G03*
X60217I493J0D01*
G01*
G75*
G03*
X59232I-492J0D01*
G01*
G37*
X59626Y3544D02*
G36*
X59626Y3544D02*
G75*
G03*
X60847I611J0D01*
G01*
G75*
G03*
X59626I-610J0D01*
G01*
G37*
X64193Y70374D02*
G36*
X64193Y70374D02*
G75*
G03*
X65177I492J0D01*
G01*
G75*
G03*
X64193I-492J0D01*
G01*
G37*
X97874Y22441D02*
G36*
X97874Y22441D02*
G75*
G03*
X98858I492J0D01*
G01*
G75*
G03*
X97874I-492J0D01*
G01*
G37*
X99445Y44784D02*
G36*
X99445Y44784D02*
G75*
G03*
X100429I492J0D01*
G01*
G75*
G03*
X99445I-492J0D01*
G01*
G37*
X100059Y35453D02*
G36*
X100059Y35453D02*
G75*
G03*
X100847I394J0D01*
G01*
G75*
G03*
X100059I-394J0D01*
G01*
G37*
Y37618D02*
G36*
X100059Y37618D02*
G75*
G03*
X100847I394J0D01*
G01*
G75*
G03*
X100059I-394J0D01*
G01*
G37*
X100729Y67969D02*
G36*
X100729Y67969D02*
G75*
G03*
X101713I492J0D01*
G01*
G75*
G03*
X100729I-492J0D01*
G01*
G37*
X100768Y70000D02*
G36*
X100768Y70000D02*
G75*
G03*
X101673I453J0D01*
G01*
G75*
G03*
X100768I-452J0D01*
G01*
G37*
X101516Y44784D02*
G36*
X101516Y44784D02*
G75*
G03*
X102421I453J0D01*
G01*
G75*
G03*
X101516I-452J0D01*
G01*
G37*
X102835Y22441D02*
G36*
X102835Y22441D02*
G75*
G03*
X103819I492J0D01*
G01*
G75*
G03*
X102835I-492J0D01*
G01*
G37*
D02*
D135*
X89599Y24914D03*
X94772D03*
D02*
D136*
X2362Y20079D02*
X45669D01*
Y3544D01*
G75*
G03*
X46831Y2362I1172J-10D01*
G01*
X60217D01*
G75*
G03*
X61418Y3563I0J1201D01*
G01*
Y20079D01*
X104725D01*
Y73229D01*
X2362D01*
Y20079D01*
X0Y0D02*
M02*
