G04 GENERATED BY PULSONIX 11.0 GERBER.DLL 8466*
G04 #@! TF.GenerationSoftware,Pulsonix,Pulsonix,11.0.8467*
G04 #@! TF.CreationDate,2021-12-19T21:00:55+00:00*
G04 #@! TF.Part,Single*
%FSLAX24Y24*%
%LPD*%
%MOIN*%
G04 #@! TF.FileFunction,Legend,Bot*
G04 #@! TF.FilePolarity,Positive*
G04 #@! TA.AperFunction,Profile*
%ADD10C,0.0001*%
G04 #@! TD.AperFunction*
%ADD134C,0.0001*%
G04 #@! TA.AperFunction,Material*
%ADD137C,0.0079*%
G04 #@! TD.AperFunction*
%ADD138C,0.0050*%
G04 #@! TA.AperFunction,Material*
%ADD139C,0.0197*%
G04 #@! TD.AperFunction*
%ADD140C,0.0039*%
G04 #@! TD.AperFunction*
X0Y0D02*
D02*
D10*
X2362Y20079D02*
X45669D01*
Y3544D01*
G75*
G03*
X46831Y2362I1172J-10D01*
G01*
X60217D01*
G75*
G03*
X61418Y3563I0J1201D01*
G01*
Y20079D01*
X104725D01*
Y73229D01*
X2362D01*
Y20079D01*
D02*
D134*
X18383Y67894D02*
Y67882D01*
X18384Y67873D01*
X18386Y67865D01*
X18388Y67859D01*
X18391Y67853D01*
X18395Y67850D01*
X18400Y67848D01*
X18405Y67847D01*
X18766D01*
X18772Y67848D01*
X18779Y67849D01*
X18786Y67852D01*
X18792Y67857D01*
X18799Y67862D01*
X18802Y67870D01*
X18805Y67879D01*
X18806Y67891D01*
Y68646D01*
X18805Y68651D01*
X18803Y68654D01*
X18799Y68658D01*
X18794Y68661D01*
X18787Y68663D01*
X18777Y68664D01*
X18766Y68665D01*
X18751Y68666D01*
X18737Y68665D01*
X18725Y68664D01*
X18716Y68663D01*
X18709Y68661D01*
X18703Y68658D01*
X18699Y68654D01*
X18698Y68651D01*
X18697Y68646D01*
Y67941D01*
X18405D01*
X18400Y67940D01*
X18395Y67938D01*
X18391Y67935D01*
X18388Y67930D01*
X18386Y67923D01*
X18384Y67915D01*
X18383Y67905D01*
Y67894D01*
G36*
X18383Y67894D02*
Y67882D01*
X18384Y67873D01*
X18386Y67865D01*
X18388Y67859D01*
X18391Y67853D01*
X18395Y67850D01*
X18400Y67848D01*
X18405Y67847D01*
X18766D01*
X18772Y67848D01*
X18779Y67849D01*
X18786Y67852D01*
X18792Y67857D01*
X18799Y67862D01*
X18802Y67870D01*
X18805Y67879D01*
X18806Y67891D01*
Y68646D01*
X18805Y68651D01*
X18803Y68654D01*
X18799Y68658D01*
X18794Y68661D01*
X18787Y68663D01*
X18777Y68664D01*
X18766Y68665D01*
X18751Y68666D01*
X18737Y68665D01*
X18725Y68664D01*
X18716Y68663D01*
X18709Y68661D01*
X18703Y68658D01*
X18699Y68654D01*
X18698Y68651D01*
X18697Y68646D01*
Y67941D01*
X18405D01*
X18400Y67940D01*
X18395Y67938D01*
X18391Y67935D01*
X18388Y67930D01*
X18386Y67923D01*
X18384Y67915D01*
X18383Y67905D01*
Y67894D01*
G37*
X17826Y68075D02*
X17827Y68048D01*
X17831Y68022D01*
X17837Y67996D01*
X17847Y67973D01*
X17858Y67952D01*
X17872Y67932D01*
X17888Y67914D01*
X17906Y67897D01*
X17925Y67882D01*
X17947Y67870D01*
X17969Y67859D01*
X17994Y67850D01*
X18020Y67843D01*
X18047Y67839D01*
X18074Y67835D01*
X18103Y67835D01*
X18124Y67835D01*
X18143Y67836D01*
X18161Y67839D01*
X18179Y67842D01*
X18196Y67845D01*
X18212Y67849D01*
X18227Y67854D01*
X18241Y67859D01*
X18254Y67863D01*
X18267Y67869D01*
X18277Y67874D01*
X18287Y67879D01*
X18296Y67884D01*
X18303Y67889D01*
X18309Y67893D01*
X18313Y67897D01*
X18320Y67905D01*
X18323Y67916D01*
X18325Y67922D01*
X18327Y67930D01*
X18327Y67938D01*
Y67948D01*
Y67960D01*
X18326Y67971D01*
X18324Y67978D01*
X18322Y67985D01*
X18320Y67990D01*
X18316Y67993D01*
X18312Y67995D01*
X18307Y67995D01*
X18302Y67995D01*
X18297Y67992D01*
X18290Y67989D01*
X18282Y67985D01*
X18273Y67979D01*
X18263Y67973D01*
X18253Y67968D01*
X18241Y67962D01*
X18227Y67955D01*
X18213Y67949D01*
X18197Y67943D01*
X18180Y67938D01*
X18161Y67933D01*
X18142Y67929D01*
X18120Y67928D01*
X18098Y67927D01*
X18080Y67928D01*
X18064Y67929D01*
X18048Y67932D01*
X18034Y67936D01*
X18019Y67942D01*
X18006Y67948D01*
X17994Y67955D01*
X17983Y67963D01*
X17973Y67972D01*
X17964Y67982D01*
X17957Y67994D01*
X17950Y68006D01*
X17945Y68019D01*
X17942Y68033D01*
X17940Y68048D01*
X17939Y68064D01*
X17940Y68080D01*
X17943Y68095D01*
X17947Y68110D01*
X17954Y68123D01*
X17964Y68135D01*
X17973Y68146D01*
X17984Y68156D01*
X17997Y68166D01*
X18010Y68175D01*
X18024Y68184D01*
X18039Y68192D01*
X18055Y68200D01*
X18089Y68215D01*
X18123Y68231D01*
X18157Y68248D01*
X18190Y68267D01*
X18207Y68278D01*
X18222Y68288D01*
X18236Y68300D01*
X18250Y68313D01*
X18262Y68327D01*
X18273Y68342D01*
X18283Y68358D01*
X18291Y68375D01*
X18298Y68394D01*
X18303Y68414D01*
X18307Y68437D01*
X18307Y68461D01*
X18306Y68485D01*
X18303Y68509D01*
X18297Y68531D01*
X18289Y68551D01*
X18279Y68571D01*
X18267Y68588D01*
X18253Y68604D01*
X18237Y68619D01*
X18220Y68631D01*
X18201Y68643D01*
X18180Y68652D01*
X18158Y68660D01*
X18135Y68667D01*
X18111Y68671D01*
X18086Y68674D01*
X18060Y68674D01*
X18033Y68673D01*
X18005Y68670D01*
X17979Y68664D01*
X17954Y68657D01*
X17930Y68649D01*
X17911Y68640D01*
X17902Y68635D01*
X17895Y68631D01*
X17890Y68627D01*
X17886Y68624D01*
X17881Y68619D01*
X17877Y68614D01*
X17876Y68611D01*
X17874Y68606D01*
X17874Y68600D01*
X17873Y68593D01*
X17872Y68584D01*
Y68574D01*
Y68563D01*
X17873Y68553D01*
X17874Y68545D01*
X17876Y68538D01*
X17878Y68533D01*
X17881Y68530D01*
X17885Y68528D01*
X17889Y68527D01*
X17893Y68528D01*
X17898Y68529D01*
X17904Y68531D01*
X17911Y68535D01*
X17919Y68540D01*
X17927Y68544D01*
X17937Y68550D01*
X17947Y68555D01*
X17958Y68561D01*
X17970Y68566D01*
X17984Y68571D01*
X17998Y68575D01*
X18013Y68579D01*
X18029Y68582D01*
X18046Y68584D01*
X18064Y68584D01*
X18080Y68584D01*
X18096Y68582D01*
X18110Y68579D01*
X18123Y68575D01*
X18135Y68571D01*
X18146Y68564D01*
X18156Y68558D01*
X18164Y68551D01*
X18172Y68543D01*
X18179Y68534D01*
X18184Y68525D01*
X18189Y68515D01*
X18193Y68504D01*
X18195Y68494D01*
X18197Y68482D01*
X18197Y68471D01*
X18197Y68454D01*
X18193Y68439D01*
X18188Y68425D01*
X18181Y68412D01*
X18173Y68400D01*
X18163Y68389D01*
X18152Y68378D01*
X18140Y68368D01*
X18126Y68359D01*
X18112Y68351D01*
X18097Y68342D01*
X18080Y68334D01*
X18012Y68302D01*
X17977Y68285D01*
X17944Y68267D01*
X17927Y68257D01*
X17912Y68246D01*
X17897Y68234D01*
X17884Y68221D01*
X17872Y68208D01*
X17861Y68193D01*
X17851Y68177D01*
X17842Y68160D01*
X17835Y68141D01*
X17830Y68121D01*
X17827Y68099D01*
X17826Y68075D01*
G36*
X17826Y68075D02*
X17827Y68048D01*
X17831Y68022D01*
X17837Y67996D01*
X17847Y67973D01*
X17858Y67952D01*
X17872Y67932D01*
X17888Y67914D01*
X17906Y67897D01*
X17925Y67882D01*
X17947Y67870D01*
X17969Y67859D01*
X17994Y67850D01*
X18020Y67843D01*
X18047Y67839D01*
X18074Y67835D01*
X18103Y67835D01*
X18124Y67835D01*
X18143Y67836D01*
X18161Y67839D01*
X18179Y67842D01*
X18196Y67845D01*
X18212Y67849D01*
X18227Y67854D01*
X18241Y67859D01*
X18254Y67863D01*
X18267Y67869D01*
X18277Y67874D01*
X18287Y67879D01*
X18296Y67884D01*
X18303Y67889D01*
X18309Y67893D01*
X18313Y67897D01*
X18320Y67905D01*
X18323Y67916D01*
X18325Y67922D01*
X18327Y67930D01*
X18327Y67938D01*
Y67948D01*
Y67960D01*
X18326Y67971D01*
X18324Y67978D01*
X18322Y67985D01*
X18320Y67990D01*
X18316Y67993D01*
X18312Y67995D01*
X18307Y67995D01*
X18302Y67995D01*
X18297Y67992D01*
X18290Y67989D01*
X18282Y67985D01*
X18273Y67979D01*
X18263Y67973D01*
X18253Y67968D01*
X18241Y67962D01*
X18227Y67955D01*
X18213Y67949D01*
X18197Y67943D01*
X18180Y67938D01*
X18161Y67933D01*
X18142Y67929D01*
X18120Y67928D01*
X18098Y67927D01*
X18080Y67928D01*
X18064Y67929D01*
X18048Y67932D01*
X18034Y67936D01*
X18019Y67942D01*
X18006Y67948D01*
X17994Y67955D01*
X17983Y67963D01*
X17973Y67972D01*
X17964Y67982D01*
X17957Y67994D01*
X17950Y68006D01*
X17945Y68019D01*
X17942Y68033D01*
X17940Y68048D01*
X17939Y68064D01*
X17940Y68080D01*
X17943Y68095D01*
X17947Y68110D01*
X17954Y68123D01*
X17964Y68135D01*
X17973Y68146D01*
X17984Y68156D01*
X17997Y68166D01*
X18010Y68175D01*
X18024Y68184D01*
X18039Y68192D01*
X18055Y68200D01*
X18089Y68215D01*
X18123Y68231D01*
X18157Y68248D01*
X18190Y68267D01*
X18207Y68278D01*
X18222Y68288D01*
X18236Y68300D01*
X18250Y68313D01*
X18262Y68327D01*
X18273Y68342D01*
X18283Y68358D01*
X18291Y68375D01*
X18298Y68394D01*
X18303Y68414D01*
X18307Y68437D01*
X18307Y68461D01*
X18306Y68485D01*
X18303Y68509D01*
X18297Y68531D01*
X18289Y68551D01*
X18279Y68571D01*
X18267Y68588D01*
X18253Y68604D01*
X18237Y68619D01*
X18220Y68631D01*
X18201Y68643D01*
X18180Y68652D01*
X18158Y68660D01*
X18135Y68667D01*
X18111Y68671D01*
X18086Y68674D01*
X18060Y68674D01*
X18033Y68673D01*
X18005Y68670D01*
X17979Y68664D01*
X17954Y68657D01*
X17930Y68649D01*
X17911Y68640D01*
X17902Y68635D01*
X17895Y68631D01*
X17890Y68627D01*
X17886Y68624D01*
X17881Y68619D01*
X17877Y68614D01*
X17876Y68611D01*
X17874Y68606D01*
X17874Y68600D01*
X17873Y68593D01*
X17872Y68584D01*
Y68574D01*
Y68563D01*
X17873Y68553D01*
X17874Y68545D01*
X17876Y68538D01*
X17878Y68533D01*
X17881Y68530D01*
X17885Y68528D01*
X17889Y68527D01*
X17893Y68528D01*
X17898Y68529D01*
X17904Y68531D01*
X17911Y68535D01*
X17919Y68540D01*
X17927Y68544D01*
X17937Y68550D01*
X17947Y68555D01*
X17958Y68561D01*
X17970Y68566D01*
X17984Y68571D01*
X17998Y68575D01*
X18013Y68579D01*
X18029Y68582D01*
X18046Y68584D01*
X18064Y68584D01*
X18080Y68584D01*
X18096Y68582D01*
X18110Y68579D01*
X18123Y68575D01*
X18135Y68571D01*
X18146Y68564D01*
X18156Y68558D01*
X18164Y68551D01*
X18172Y68543D01*
X18179Y68534D01*
X18184Y68525D01*
X18189Y68515D01*
X18193Y68504D01*
X18195Y68494D01*
X18197Y68482D01*
X18197Y68471D01*
X18197Y68454D01*
X18193Y68439D01*
X18188Y68425D01*
X18181Y68412D01*
X18173Y68400D01*
X18163Y68389D01*
X18152Y68378D01*
X18140Y68368D01*
X18126Y68359D01*
X18112Y68351D01*
X18097Y68342D01*
X18080Y68334D01*
X18012Y68302D01*
X17977Y68285D01*
X17944Y68267D01*
X17927Y68257D01*
X17912Y68246D01*
X17897Y68234D01*
X17884Y68221D01*
X17872Y68208D01*
X17861Y68193D01*
X17851Y68177D01*
X17842Y68160D01*
X17835Y68141D01*
X17830Y68121D01*
X17827Y68099D01*
X17826Y68075D01*
G37*
X17233D02*
X17235Y68048D01*
X17238Y68022D01*
X17245Y67996D01*
X17254Y67973D01*
X17265Y67952D01*
X17279Y67932D01*
X17295Y67914D01*
X17313Y67897D01*
X17332Y67882D01*
X17354Y67870D01*
X17376Y67859D01*
X17401Y67850D01*
X17427Y67843D01*
X17454Y67839D01*
X17481Y67835D01*
X17510Y67835D01*
X17531Y67835D01*
X17550Y67836D01*
X17568Y67839D01*
X17586Y67842D01*
X17603Y67845D01*
X17619Y67849D01*
X17634Y67854D01*
X17648Y67859D01*
X17661Y67863D01*
X17674Y67869D01*
X17684Y67874D01*
X17694Y67879D01*
X17703Y67884D01*
X17710Y67889D01*
X17716Y67893D01*
X17721Y67897D01*
X17727Y67905D01*
X17731Y67916D01*
X17732Y67922D01*
X17734Y67930D01*
X17734Y67938D01*
Y67948D01*
Y67960D01*
X17733Y67971D01*
X17731Y67978D01*
X17729Y67985D01*
X17727Y67990D01*
X17723Y67993D01*
X17719Y67995D01*
X17714Y67995D01*
X17709Y67995D01*
X17704Y67992D01*
X17697Y67989D01*
X17689Y67985D01*
X17681Y67979D01*
X17671Y67973D01*
X17660Y67968D01*
X17648Y67962D01*
X17634Y67955D01*
X17620Y67949D01*
X17604Y67943D01*
X17588Y67938D01*
X17568Y67933D01*
X17549Y67929D01*
X17528Y67928D01*
X17505Y67927D01*
X17488Y67928D01*
X17471Y67929D01*
X17455Y67932D01*
X17441Y67936D01*
X17426Y67942D01*
X17413Y67948D01*
X17401Y67955D01*
X17390Y67963D01*
X17380Y67972D01*
X17371Y67982D01*
X17364Y67994D01*
X17358Y68006D01*
X17352Y68019D01*
X17349Y68033D01*
X17347Y68048D01*
X17346Y68064D01*
X17347Y68080D01*
X17350Y68095D01*
X17355Y68110D01*
X17361Y68123D01*
X17371Y68135D01*
X17380Y68146D01*
X17391Y68156D01*
X17404Y68166D01*
X17417Y68175D01*
X17431Y68184D01*
X17446Y68192D01*
X17462Y68200D01*
X17496Y68215D01*
X17530Y68231D01*
X17564Y68248D01*
X17598Y68267D01*
X17614Y68278D01*
X17629Y68288D01*
X17643Y68300D01*
X17657Y68313D01*
X17669Y68327D01*
X17680Y68342D01*
X17690Y68358D01*
X17698Y68375D01*
X17705Y68394D01*
X17711Y68414D01*
X17714Y68437D01*
X17714Y68461D01*
X17713Y68485D01*
X17710Y68509D01*
X17704Y68531D01*
X17696Y68551D01*
X17686Y68571D01*
X17674Y68588D01*
X17660Y68604D01*
X17644Y68619D01*
X17627Y68631D01*
X17608Y68643D01*
X17588Y68652D01*
X17565Y68660D01*
X17542Y68667D01*
X17518Y68671D01*
X17493Y68674D01*
X17467Y68674D01*
X17440Y68673D01*
X17412Y68670D01*
X17386Y68664D01*
X17361Y68657D01*
X17338Y68649D01*
X17318Y68640D01*
X17309Y68635D01*
X17302Y68631D01*
X17297Y68627D01*
X17293Y68624D01*
X17288Y68619D01*
X17285Y68614D01*
X17283Y68611D01*
X17282Y68606D01*
X17281Y68600D01*
X17280Y68593D01*
X17279Y68584D01*
Y68574D01*
Y68563D01*
X17280Y68553D01*
X17282Y68545D01*
X17283Y68538D01*
X17285Y68533D01*
X17288Y68530D01*
X17292Y68528D01*
X17296Y68527D01*
X17300Y68528D01*
X17305Y68529D01*
X17311Y68531D01*
X17318Y68535D01*
X17326Y68540D01*
X17335Y68544D01*
X17344Y68550D01*
X17355Y68555D01*
X17365Y68561D01*
X17378Y68566D01*
X17391Y68571D01*
X17405Y68575D01*
X17420Y68579D01*
X17436Y68582D01*
X17453Y68584D01*
X17471Y68584D01*
X17488Y68584D01*
X17503Y68582D01*
X17517Y68579D01*
X17530Y68575D01*
X17542Y68571D01*
X17553Y68564D01*
X17563Y68558D01*
X17571Y68551D01*
X17579Y68543D01*
X17586Y68534D01*
X17591Y68525D01*
X17596Y68515D01*
X17600Y68504D01*
X17602Y68494D01*
X17604Y68482D01*
X17604Y68471D01*
X17604Y68454D01*
X17601Y68439D01*
X17595Y68425D01*
X17588Y68412D01*
X17580Y68400D01*
X17571Y68389D01*
X17559Y68378D01*
X17547Y68368D01*
X17533Y68359D01*
X17519Y68351D01*
X17504Y68342D01*
X17487Y68334D01*
X17419Y68302D01*
X17385Y68285D01*
X17351Y68267D01*
X17335Y68257D01*
X17319Y68246D01*
X17305Y68234D01*
X17292Y68221D01*
X17279Y68208D01*
X17268Y68193D01*
X17258Y68177D01*
X17249Y68160D01*
X17242Y68141D01*
X17237Y68121D01*
X17234Y68099D01*
X17233Y68075D01*
G36*
X17233Y68075D02*
X17235Y68048D01*
X17238Y68022D01*
X17245Y67996D01*
X17254Y67973D01*
X17265Y67952D01*
X17279Y67932D01*
X17295Y67914D01*
X17313Y67897D01*
X17332Y67882D01*
X17354Y67870D01*
X17376Y67859D01*
X17401Y67850D01*
X17427Y67843D01*
X17454Y67839D01*
X17481Y67835D01*
X17510Y67835D01*
X17531Y67835D01*
X17550Y67836D01*
X17568Y67839D01*
X17586Y67842D01*
X17603Y67845D01*
X17619Y67849D01*
X17634Y67854D01*
X17648Y67859D01*
X17661Y67863D01*
X17674Y67869D01*
X17684Y67874D01*
X17694Y67879D01*
X17703Y67884D01*
X17710Y67889D01*
X17716Y67893D01*
X17721Y67897D01*
X17727Y67905D01*
X17731Y67916D01*
X17732Y67922D01*
X17734Y67930D01*
X17734Y67938D01*
Y67948D01*
Y67960D01*
X17733Y67971D01*
X17731Y67978D01*
X17729Y67985D01*
X17727Y67990D01*
X17723Y67993D01*
X17719Y67995D01*
X17714Y67995D01*
X17709Y67995D01*
X17704Y67992D01*
X17697Y67989D01*
X17689Y67985D01*
X17681Y67979D01*
X17671Y67973D01*
X17660Y67968D01*
X17648Y67962D01*
X17634Y67955D01*
X17620Y67949D01*
X17604Y67943D01*
X17588Y67938D01*
X17568Y67933D01*
X17549Y67929D01*
X17528Y67928D01*
X17505Y67927D01*
X17488Y67928D01*
X17471Y67929D01*
X17455Y67932D01*
X17441Y67936D01*
X17426Y67942D01*
X17413Y67948D01*
X17401Y67955D01*
X17390Y67963D01*
X17380Y67972D01*
X17371Y67982D01*
X17364Y67994D01*
X17358Y68006D01*
X17352Y68019D01*
X17349Y68033D01*
X17347Y68048D01*
X17346Y68064D01*
X17347Y68080D01*
X17350Y68095D01*
X17355Y68110D01*
X17361Y68123D01*
X17371Y68135D01*
X17380Y68146D01*
X17391Y68156D01*
X17404Y68166D01*
X17417Y68175D01*
X17431Y68184D01*
X17446Y68192D01*
X17462Y68200D01*
X17496Y68215D01*
X17530Y68231D01*
X17564Y68248D01*
X17598Y68267D01*
X17614Y68278D01*
X17629Y68288D01*
X17643Y68300D01*
X17657Y68313D01*
X17669Y68327D01*
X17680Y68342D01*
X17690Y68358D01*
X17698Y68375D01*
X17705Y68394D01*
X17711Y68414D01*
X17714Y68437D01*
X17714Y68461D01*
X17713Y68485D01*
X17710Y68509D01*
X17704Y68531D01*
X17696Y68551D01*
X17686Y68571D01*
X17674Y68588D01*
X17660Y68604D01*
X17644Y68619D01*
X17627Y68631D01*
X17608Y68643D01*
X17588Y68652D01*
X17565Y68660D01*
X17542Y68667D01*
X17518Y68671D01*
X17493Y68674D01*
X17467Y68674D01*
X17440Y68673D01*
X17412Y68670D01*
X17386Y68664D01*
X17361Y68657D01*
X17338Y68649D01*
X17318Y68640D01*
X17309Y68635D01*
X17302Y68631D01*
X17297Y68627D01*
X17293Y68624D01*
X17288Y68619D01*
X17285Y68614D01*
X17283Y68611D01*
X17282Y68606D01*
X17281Y68600D01*
X17280Y68593D01*
X17279Y68584D01*
Y68574D01*
Y68563D01*
X17280Y68553D01*
X17282Y68545D01*
X17283Y68538D01*
X17285Y68533D01*
X17288Y68530D01*
X17292Y68528D01*
X17296Y68527D01*
X17300Y68528D01*
X17305Y68529D01*
X17311Y68531D01*
X17318Y68535D01*
X17326Y68540D01*
X17335Y68544D01*
X17344Y68550D01*
X17355Y68555D01*
X17365Y68561D01*
X17378Y68566D01*
X17391Y68571D01*
X17405Y68575D01*
X17420Y68579D01*
X17436Y68582D01*
X17453Y68584D01*
X17471Y68584D01*
X17488Y68584D01*
X17503Y68582D01*
X17517Y68579D01*
X17530Y68575D01*
X17542Y68571D01*
X17553Y68564D01*
X17563Y68558D01*
X17571Y68551D01*
X17579Y68543D01*
X17586Y68534D01*
X17591Y68525D01*
X17596Y68515D01*
X17600Y68504D01*
X17602Y68494D01*
X17604Y68482D01*
X17604Y68471D01*
X17604Y68454D01*
X17601Y68439D01*
X17595Y68425D01*
X17588Y68412D01*
X17580Y68400D01*
X17571Y68389D01*
X17559Y68378D01*
X17547Y68368D01*
X17533Y68359D01*
X17519Y68351D01*
X17504Y68342D01*
X17487Y68334D01*
X17419Y68302D01*
X17385Y68285D01*
X17351Y68267D01*
X17335Y68257D01*
X17319Y68246D01*
X17305Y68234D01*
X17292Y68221D01*
X17279Y68208D01*
X17268Y68193D01*
X17258Y68177D01*
X17249Y68160D01*
X17242Y68141D01*
X17237Y68121D01*
X17234Y68099D01*
X17233Y68075D01*
G37*
X16655Y67894D02*
Y67882D01*
X16656Y67873D01*
X16658Y67865D01*
X16660Y67859D01*
X16663Y67853D01*
X16667Y67850D01*
X16672Y67848D01*
X16677Y67847D01*
X17038D01*
X17045Y67848D01*
X17052Y67849D01*
X17059Y67852D01*
X17065Y67857D01*
X17071Y67862D01*
X17075Y67870D01*
X17077Y67879D01*
X17078Y67891D01*
Y68646D01*
X17077Y68651D01*
X17075Y68654D01*
X17072Y68658D01*
X17066Y68661D01*
X17059Y68663D01*
X17049Y68664D01*
X17038Y68665D01*
X17023Y68666D01*
X17009Y68665D01*
X16997Y68664D01*
X16988Y68663D01*
X16981Y68661D01*
X16975Y68658D01*
X16972Y68654D01*
X16970Y68651D01*
X16969Y68646D01*
Y67941D01*
X16677D01*
X16672Y67940D01*
X16667Y67938D01*
X16663Y67935D01*
X16660Y67930D01*
X16658Y67923D01*
X16656Y67915D01*
X16655Y67905D01*
Y67894D01*
G36*
X16655Y67894D02*
Y67882D01*
X16656Y67873D01*
X16658Y67865D01*
X16660Y67859D01*
X16663Y67853D01*
X16667Y67850D01*
X16672Y67848D01*
X16677Y67847D01*
X17038D01*
X17045Y67848D01*
X17052Y67849D01*
X17059Y67852D01*
X17065Y67857D01*
X17071Y67862D01*
X17075Y67870D01*
X17077Y67879D01*
X17078Y67891D01*
Y68646D01*
X17077Y68651D01*
X17075Y68654D01*
X17072Y68658D01*
X17066Y68661D01*
X17059Y68663D01*
X17049Y68664D01*
X17038Y68665D01*
X17023Y68666D01*
X17009Y68665D01*
X16997Y68664D01*
X16988Y68663D01*
X16981Y68661D01*
X16975Y68658D01*
X16972Y68654D01*
X16970Y68651D01*
X16969Y68646D01*
Y67941D01*
X16677D01*
X16672Y67940D01*
X16667Y67938D01*
X16663Y67935D01*
X16660Y67930D01*
X16658Y67923D01*
X16656Y67915D01*
X16655Y67905D01*
Y67894D01*
G37*
X16538Y67696D02*
X16541Y67688D01*
X16545Y67682D01*
X16549Y67678D01*
X16555Y67675D01*
X16563Y67673D01*
X16571Y67672D01*
X16581Y67670D01*
X16593D01*
X16607Y67671D01*
X16619Y67672D01*
X16629Y67675D01*
X16636Y67679D01*
X16639Y67683D01*
X16643Y67689D01*
Y67696D01*
X16639Y67703D01*
X16259Y68747D01*
X16256Y68755D01*
X16252Y68761D01*
X16247Y68764D01*
X16242Y68768D01*
X16235Y68770D01*
X16227Y68772D01*
X16216Y68773D01*
X16203D01*
X16190Y68772D01*
X16178Y68770D01*
X16169Y68768D01*
X16162Y68764D01*
X16157Y68761D01*
X16155Y68754D01*
Y68747D01*
X16157Y68740D01*
X16538Y67696D01*
G36*
X16538Y67696D02*
X16541Y67688D01*
X16545Y67682D01*
X16549Y67678D01*
X16555Y67675D01*
X16563Y67673D01*
X16571Y67672D01*
X16581Y67670D01*
X16593D01*
X16607Y67671D01*
X16619Y67672D01*
X16629Y67675D01*
X16636Y67679D01*
X16639Y67683D01*
X16643Y67689D01*
Y67696D01*
X16639Y67703D01*
X16259Y68747D01*
X16256Y68755D01*
X16252Y68761D01*
X16247Y68764D01*
X16242Y68768D01*
X16235Y68770D01*
X16227Y68772D01*
X16216Y68773D01*
X16203D01*
X16190Y68772D01*
X16178Y68770D01*
X16169Y68768D01*
X16162Y68764D01*
X16157Y68761D01*
X16155Y68754D01*
Y68747D01*
X16157Y68740D01*
X16538Y67696D01*
G37*
X15564Y67894D02*
Y67883D01*
X15565Y67873D01*
X15567Y67865D01*
X15570Y67859D01*
X15573Y67853D01*
X15578Y67850D01*
X15582Y67848D01*
X15588Y67847D01*
X16038D01*
X16047Y67848D01*
X16053Y67849D01*
X16060Y67852D01*
X16065Y67856D01*
X16069Y67862D01*
X16072Y67871D01*
X16073Y67882D01*
X16074Y67895D01*
Y67906D01*
X16073Y67916D01*
X16072Y67925D01*
X16069Y67933D01*
X16065Y67940D01*
X16061Y67948D01*
X16055Y67955D01*
X16048Y67963D01*
X15885Y68131D01*
X15858Y68159D01*
X15834Y68185D01*
X15813Y68211D01*
X15794Y68235D01*
X15778Y68257D01*
X15764Y68278D01*
X15752Y68299D01*
X15741Y68318D01*
X15733Y68337D01*
X15726Y68354D01*
X15721Y68371D01*
X15717Y68387D01*
X15713Y68417D01*
X15711Y68445D01*
X15712Y68458D01*
X15714Y68471D01*
X15717Y68484D01*
X15721Y68496D01*
X15725Y68508D01*
X15731Y68519D01*
X15739Y68529D01*
X15747Y68538D01*
X15756Y68548D01*
X15766Y68555D01*
X15777Y68561D01*
X15790Y68567D01*
X15804Y68572D01*
X15818Y68575D01*
X15834Y68577D01*
X15850Y68578D01*
X15869Y68577D01*
X15887Y68575D01*
X15905Y68572D01*
X15921Y68567D01*
X15937Y68562D01*
X15950Y68557D01*
X15964Y68551D01*
X15977Y68544D01*
X15988Y68538D01*
X15998Y68532D01*
X16008Y68527D01*
X16017Y68521D01*
X16024Y68517D01*
X16030Y68513D01*
X16036Y68511D01*
X16040Y68511D01*
X16044Y68511D01*
X16048Y68513D01*
X16051Y68516D01*
X16054Y68521D01*
X16056Y68528D01*
X16057Y68536D01*
X16059Y68547D01*
Y68559D01*
Y68567D01*
X16058Y68575D01*
X16057Y68582D01*
X16056Y68587D01*
X16052Y68597D01*
X16048Y68602D01*
X16042Y68607D01*
X16037Y68611D01*
X16031Y68616D01*
X16024Y68621D01*
X16016Y68626D01*
X16006Y68631D01*
X15995Y68637D01*
X15983Y68643D01*
X15969Y68648D01*
X15940Y68658D01*
X15907Y68667D01*
X15890Y68670D01*
X15873Y68672D01*
X15854Y68674D01*
X15837Y68674D01*
X15807Y68674D01*
X15781Y68670D01*
X15756Y68665D01*
X15733Y68657D01*
X15711Y68648D01*
X15692Y68637D01*
X15674Y68626D01*
X15659Y68612D01*
X15645Y68597D01*
X15634Y68581D01*
X15623Y68563D01*
X15615Y68544D01*
X15609Y68525D01*
X15604Y68504D01*
X15601Y68484D01*
X15601Y68463D01*
X15601Y68443D01*
X15602Y68424D01*
X15604Y68404D01*
X15608Y68384D01*
X15612Y68365D01*
X15618Y68345D01*
X15627Y68323D01*
X15637Y68301D01*
X15649Y68278D01*
X15664Y68254D01*
X15682Y68228D01*
X15701Y68201D01*
X15713Y68187D01*
X15724Y68172D01*
X15737Y68157D01*
X15751Y68142D01*
X15765Y68125D01*
X15781Y68109D01*
X15797Y68092D01*
X15814Y68074D01*
X15944Y67939D01*
X15588D01*
X15583Y67938D01*
X15578Y67936D01*
X15574Y67933D01*
X15571Y67928D01*
X15568Y67922D01*
X15565Y67914D01*
X15564Y67905D01*
Y67894D01*
G36*
X15564Y67894D02*
Y67883D01*
X15565Y67873D01*
X15567Y67865D01*
X15570Y67859D01*
X15573Y67853D01*
X15578Y67850D01*
X15582Y67848D01*
X15588Y67847D01*
X16038D01*
X16047Y67848D01*
X16053Y67849D01*
X16060Y67852D01*
X16065Y67856D01*
X16069Y67862D01*
X16072Y67871D01*
X16073Y67882D01*
X16074Y67895D01*
Y67906D01*
X16073Y67916D01*
X16072Y67925D01*
X16069Y67933D01*
X16065Y67940D01*
X16061Y67948D01*
X16055Y67955D01*
X16048Y67963D01*
X15885Y68131D01*
X15858Y68159D01*
X15834Y68185D01*
X15813Y68211D01*
X15794Y68235D01*
X15778Y68257D01*
X15764Y68278D01*
X15752Y68299D01*
X15741Y68318D01*
X15733Y68337D01*
X15726Y68354D01*
X15721Y68371D01*
X15717Y68387D01*
X15713Y68417D01*
X15711Y68445D01*
X15712Y68458D01*
X15714Y68471D01*
X15717Y68484D01*
X15721Y68496D01*
X15725Y68508D01*
X15731Y68519D01*
X15739Y68529D01*
X15747Y68538D01*
X15756Y68548D01*
X15766Y68555D01*
X15777Y68561D01*
X15790Y68567D01*
X15804Y68572D01*
X15818Y68575D01*
X15834Y68577D01*
X15850Y68578D01*
X15869Y68577D01*
X15887Y68575D01*
X15905Y68572D01*
X15921Y68567D01*
X15937Y68562D01*
X15950Y68557D01*
X15964Y68551D01*
X15977Y68544D01*
X15988Y68538D01*
X15998Y68532D01*
X16008Y68527D01*
X16017Y68521D01*
X16024Y68517D01*
X16030Y68513D01*
X16036Y68511D01*
X16040Y68511D01*
X16044Y68511D01*
X16048Y68513D01*
X16051Y68516D01*
X16054Y68521D01*
X16056Y68528D01*
X16057Y68536D01*
X16059Y68547D01*
Y68559D01*
Y68567D01*
X16058Y68575D01*
X16057Y68582D01*
X16056Y68587D01*
X16052Y68597D01*
X16048Y68602D01*
X16042Y68607D01*
X16037Y68611D01*
X16031Y68616D01*
X16024Y68621D01*
X16016Y68626D01*
X16006Y68631D01*
X15995Y68637D01*
X15983Y68643D01*
X15969Y68648D01*
X15940Y68658D01*
X15907Y68667D01*
X15890Y68670D01*
X15873Y68672D01*
X15854Y68674D01*
X15837Y68674D01*
X15807Y68674D01*
X15781Y68670D01*
X15756Y68665D01*
X15733Y68657D01*
X15711Y68648D01*
X15692Y68637D01*
X15674Y68626D01*
X15659Y68612D01*
X15645Y68597D01*
X15634Y68581D01*
X15623Y68563D01*
X15615Y68544D01*
X15609Y68525D01*
X15604Y68504D01*
X15601Y68484D01*
X15601Y68463D01*
X15601Y68443D01*
X15602Y68424D01*
X15604Y68404D01*
X15608Y68384D01*
X15612Y68365D01*
X15618Y68345D01*
X15627Y68323D01*
X15637Y68301D01*
X15649Y68278D01*
X15664Y68254D01*
X15682Y68228D01*
X15701Y68201D01*
X15713Y68187D01*
X15724Y68172D01*
X15737Y68157D01*
X15751Y68142D01*
X15765Y68125D01*
X15781Y68109D01*
X15797Y68092D01*
X15814Y68074D01*
X15944Y67939D01*
X15588D01*
X15583Y67938D01*
X15578Y67936D01*
X15574Y67933D01*
X15571Y67928D01*
X15568Y67922D01*
X15565Y67914D01*
X15564Y67905D01*
Y67894D01*
G37*
X14883Y68256D02*
X14884Y68211D01*
X14887Y68167D01*
X14892Y68125D01*
X14898Y68085D01*
X14906Y68048D01*
X14918Y68013D01*
X14931Y67981D01*
X14947Y67952D01*
X14956Y67938D01*
X14965Y67925D01*
X14975Y67913D01*
X14987Y67902D01*
X14999Y67892D01*
X15011Y67882D01*
X15023Y67873D01*
X15037Y67865D01*
X15051Y67858D01*
X15066Y67852D01*
X15082Y67846D01*
X15098Y67842D01*
X15116Y67839D01*
X15135Y67836D01*
X15154Y67835D01*
X15174Y67835D01*
X15192Y67835D01*
X15211Y67836D01*
X15228Y67839D01*
X15245Y67842D01*
X15260Y67845D01*
X15275Y67850D01*
X15289Y67855D01*
X15303Y67862D01*
X15316Y67869D01*
X15328Y67878D01*
X15339Y67886D01*
X15351Y67896D01*
X15361Y67906D01*
X15370Y67918D01*
X15379Y67930D01*
X15388Y67943D01*
X15395Y67956D01*
X15402Y67971D01*
X15409Y67986D01*
X15415Y68002D01*
X15421Y68019D01*
X15425Y68036D01*
X15433Y68074D01*
X15439Y68115D01*
X15444Y68158D01*
X15446Y68204D01*
X15447Y68252D01*
X15446Y68298D01*
X15443Y68342D01*
X15438Y68384D01*
X15431Y68424D01*
X15423Y68461D01*
X15411Y68496D01*
X15398Y68528D01*
X15382Y68558D01*
X15374Y68571D01*
X15365Y68584D01*
X15354Y68596D01*
X15343Y68607D01*
X15331Y68617D01*
X15319Y68627D01*
X15307Y68636D01*
X15293Y68644D01*
X15279Y68651D01*
X15264Y68657D01*
X15248Y68662D01*
X15231Y68667D01*
X15214Y68670D01*
X15196Y68672D01*
X15177Y68674D01*
X15157Y68674D01*
X15138Y68674D01*
X15120Y68673D01*
X15102Y68671D01*
X15086Y68667D01*
X15070Y68664D01*
X15055Y68659D01*
X15041Y68654D01*
X15027Y68647D01*
X15014Y68640D01*
X15002Y68631D01*
X14991Y68623D01*
X14979Y68613D01*
X14969Y68602D01*
X14959Y68591D01*
X14951Y68579D01*
X14942Y68566D01*
X14928Y68538D01*
X14915Y68507D01*
X14909Y68490D01*
X14905Y68472D01*
X14900Y68454D01*
X14897Y68435D01*
X14891Y68394D01*
X14886Y68351D01*
X14884Y68305D01*
X14883Y68256D01*
X14994Y68249D02*
Y68278D01*
X14995Y68307D01*
X14996Y68333D01*
X14999Y68358D01*
X15001Y68382D01*
X15004Y68404D01*
X15007Y68424D01*
X15012Y68444D01*
X15015Y68462D01*
X15021Y68478D01*
X15027Y68494D01*
X15033Y68508D01*
X15040Y68521D01*
X15048Y68532D01*
X15057Y68543D01*
X15065Y68552D01*
X15075Y68560D01*
X15086Y68567D01*
X15097Y68573D01*
X15109Y68577D01*
X15122Y68581D01*
X15135Y68583D01*
X15148Y68584D01*
X15163Y68585D01*
X15176Y68584D01*
X15189Y68584D01*
X15201Y68581D01*
X15212Y68579D01*
X15222Y68575D01*
X15232Y68571D01*
X15241Y68566D01*
X15251Y68560D01*
X15266Y68546D01*
X15280Y68530D01*
X15292Y68511D01*
X15303Y68491D01*
X15311Y68468D01*
X15319Y68443D01*
X15325Y68416D01*
X15329Y68388D01*
X15332Y68357D01*
X15335Y68326D01*
X15335Y68294D01*
X15336Y68260D01*
Y68238D01*
X15335Y68216D01*
X15335Y68195D01*
X15334Y68175D01*
X15332Y68157D01*
X15331Y68138D01*
X15329Y68122D01*
X15327Y68105D01*
X15321Y68075D01*
X15315Y68047D01*
X15306Y68022D01*
X15297Y68001D01*
X15286Y67982D01*
X15273Y67966D01*
X15260Y67952D01*
X15245Y67942D01*
X15228Y67934D01*
X15209Y67929D01*
X15189Y67925D01*
X15167Y67924D01*
X15150Y67925D01*
X15134Y67927D01*
X15119Y67930D01*
X15105Y67935D01*
X15092Y67942D01*
X15080Y67949D01*
X15069Y67958D01*
X15059Y67968D01*
X15050Y67978D01*
X15042Y67991D01*
X15034Y68004D01*
X15027Y68018D01*
X15022Y68033D01*
X15016Y68049D01*
X15011Y68066D01*
X15007Y68084D01*
X15001Y68122D01*
X14999Y68141D01*
X14997Y68161D01*
X14995Y68205D01*
X14994Y68249D01*
X14883Y68255D02*
G36*
X14883Y68255D02*
X14884Y68211D01*
X14887Y68167D01*
X14892Y68125D01*
X14898Y68085D01*
X14906Y68048D01*
X14918Y68013D01*
X14931Y67981D01*
X14947Y67952D01*
X14956Y67938D01*
X14965Y67925D01*
X14975Y67913D01*
X14987Y67902D01*
X14999Y67892D01*
X15011Y67882D01*
X15023Y67873D01*
X15037Y67865D01*
X15051Y67858D01*
X15066Y67852D01*
X15082Y67846D01*
X15098Y67842D01*
X15116Y67839D01*
X15135Y67836D01*
X15154Y67835D01*
X15174Y67835D01*
X15192Y67835D01*
X15211Y67836D01*
X15228Y67839D01*
X15245Y67842D01*
X15260Y67845D01*
X15275Y67850D01*
X15289Y67855D01*
X15303Y67862D01*
X15316Y67869D01*
X15328Y67878D01*
X15339Y67886D01*
X15351Y67896D01*
X15361Y67906D01*
X15370Y67918D01*
X15379Y67930D01*
X15388Y67943D01*
X15395Y67956D01*
X15402Y67971D01*
X15409Y67986D01*
X15415Y68002D01*
X15421Y68019D01*
X15425Y68036D01*
X15433Y68074D01*
X15439Y68115D01*
X15444Y68158D01*
X15446Y68204D01*
X15447Y68252D01*
X15447Y68255D01*
X15336D01*
Y68238D01*
X15335Y68216D01*
X15335Y68195D01*
X15334Y68175D01*
X15332Y68157D01*
X15331Y68138D01*
X15329Y68122D01*
X15327Y68105D01*
X15321Y68075D01*
X15315Y68047D01*
X15306Y68022D01*
X15297Y68001D01*
X15286Y67982D01*
X15273Y67966D01*
X15260Y67952D01*
X15245Y67942D01*
X15228Y67934D01*
X15209Y67929D01*
X15189Y67925D01*
X15167Y67924D01*
X15150Y67925D01*
X15134Y67927D01*
X15119Y67930D01*
X15105Y67935D01*
X15092Y67942D01*
X15080Y67949D01*
X15069Y67958D01*
X15059Y67968D01*
X15050Y67978D01*
X15042Y67991D01*
X15034Y68004D01*
X15027Y68018D01*
X15022Y68033D01*
X15016Y68049D01*
X15011Y68066D01*
X15007Y68084D01*
X15001Y68122D01*
X14999Y68141D01*
X14997Y68161D01*
X14995Y68205D01*
X14994Y68249D01*
Y68255D01*
X14883D01*
G37*
X14883Y68256D02*
G36*
X14883Y68256D02*
X14883Y68255D01*
X14994D01*
Y68278D01*
X14995Y68307D01*
X14996Y68333D01*
X14999Y68358D01*
X15001Y68382D01*
X15004Y68404D01*
X15007Y68424D01*
X15012Y68444D01*
X15015Y68462D01*
X15021Y68478D01*
X15027Y68494D01*
X15033Y68508D01*
X15040Y68521D01*
X15048Y68532D01*
X15057Y68543D01*
X15065Y68552D01*
X15075Y68560D01*
X15086Y68567D01*
X15097Y68573D01*
X15109Y68577D01*
X15122Y68581D01*
X15135Y68583D01*
X15148Y68584D01*
X15163Y68585D01*
X15176Y68584D01*
X15189Y68584D01*
X15201Y68581D01*
X15212Y68579D01*
X15222Y68575D01*
X15232Y68571D01*
X15241Y68566D01*
X15251Y68560D01*
X15266Y68546D01*
X15280Y68530D01*
X15292Y68511D01*
X15303Y68491D01*
X15311Y68468D01*
X15319Y68443D01*
X15325Y68416D01*
X15329Y68388D01*
X15332Y68357D01*
X15335Y68326D01*
X15335Y68294D01*
X15336Y68260D01*
Y68255D01*
X15447D01*
X15446Y68298D01*
X15443Y68342D01*
X15438Y68384D01*
X15431Y68424D01*
X15423Y68461D01*
X15411Y68496D01*
X15398Y68528D01*
X15382Y68558D01*
X15374Y68571D01*
X15365Y68584D01*
X15354Y68596D01*
X15343Y68607D01*
X15331Y68617D01*
X15319Y68627D01*
X15307Y68636D01*
X15293Y68644D01*
X15279Y68651D01*
X15264Y68657D01*
X15248Y68662D01*
X15231Y68667D01*
X15214Y68670D01*
X15196Y68672D01*
X15177Y68674D01*
X15157Y68674D01*
X15138Y68674D01*
X15120Y68673D01*
X15102Y68671D01*
X15086Y68667D01*
X15070Y68664D01*
X15055Y68659D01*
X15041Y68654D01*
X15027Y68647D01*
X15014Y68640D01*
X15002Y68631D01*
X14991Y68623D01*
X14979Y68613D01*
X14969Y68602D01*
X14959Y68591D01*
X14951Y68579D01*
X14942Y68566D01*
X14928Y68538D01*
X14915Y68507D01*
X14909Y68490D01*
X14905Y68472D01*
X14900Y68454D01*
X14897Y68435D01*
X14891Y68394D01*
X14886Y68351D01*
X14884Y68305D01*
X14883Y68256D01*
G37*
X14256Y67894D02*
Y67883D01*
X14258Y67873D01*
X14260Y67865D01*
X14263Y67859D01*
X14266Y67853D01*
X14270Y67850D01*
X14275Y67848D01*
X14280Y67847D01*
X14731D01*
X14739Y67848D01*
X14746Y67849D01*
X14752Y67852D01*
X14758Y67856D01*
X14762Y67862D01*
X14765Y67871D01*
X14766Y67882D01*
X14767Y67895D01*
Y67906D01*
X14766Y67916D01*
X14765Y67925D01*
X14762Y67933D01*
X14758Y67940D01*
X14754Y67948D01*
X14748Y67955D01*
X14741Y67963D01*
X14578Y68131D01*
X14551Y68159D01*
X14527Y68185D01*
X14506Y68211D01*
X14487Y68235D01*
X14471Y68257D01*
X14456Y68278D01*
X14445Y68299D01*
X14434Y68318D01*
X14426Y68337D01*
X14419Y68354D01*
X14413Y68371D01*
X14410Y68387D01*
X14406Y68417D01*
X14404Y68445D01*
X14405Y68458D01*
X14406Y68471D01*
X14409Y68484D01*
X14413Y68496D01*
X14418Y68508D01*
X14424Y68519D01*
X14432Y68529D01*
X14439Y68538D01*
X14449Y68548D01*
X14459Y68555D01*
X14470Y68561D01*
X14483Y68567D01*
X14496Y68572D01*
X14511Y68575D01*
X14526Y68577D01*
X14543Y68578D01*
X14562Y68577D01*
X14580Y68575D01*
X14598Y68572D01*
X14614Y68567D01*
X14629Y68562D01*
X14643Y68557D01*
X14657Y68551D01*
X14669Y68544D01*
X14681Y68538D01*
X14691Y68532D01*
X14701Y68527D01*
X14709Y68521D01*
X14716Y68517D01*
X14723Y68513D01*
X14729Y68511D01*
X14732Y68511D01*
X14737Y68511D01*
X14741Y68513D01*
X14744Y68516D01*
X14747Y68521D01*
X14749Y68528D01*
X14750Y68536D01*
X14752Y68547D01*
Y68559D01*
Y68567D01*
X14751Y68575D01*
X14750Y68582D01*
X14749Y68587D01*
X14745Y68597D01*
X14741Y68602D01*
X14735Y68607D01*
X14730Y68611D01*
X14724Y68616D01*
X14717Y68621D01*
X14709Y68626D01*
X14699Y68631D01*
X14688Y68637D01*
X14676Y68643D01*
X14662Y68648D01*
X14632Y68658D01*
X14600Y68667D01*
X14583Y68670D01*
X14566Y68672D01*
X14547Y68674D01*
X14529Y68674D01*
X14500Y68674D01*
X14473Y68670D01*
X14449Y68665D01*
X14426Y68657D01*
X14404Y68648D01*
X14385Y68637D01*
X14367Y68626D01*
X14352Y68612D01*
X14338Y68597D01*
X14326Y68581D01*
X14316Y68563D01*
X14308Y68544D01*
X14302Y68525D01*
X14297Y68504D01*
X14294Y68484D01*
X14293Y68463D01*
X14294Y68443D01*
X14295Y68424D01*
X14297Y68404D01*
X14300Y68384D01*
X14305Y68365D01*
X14311Y68345D01*
X14320Y68323D01*
X14330Y68301D01*
X14342Y68278D01*
X14357Y68254D01*
X14375Y68228D01*
X14394Y68201D01*
X14406Y68187D01*
X14417Y68172D01*
X14430Y68157D01*
X14443Y68142D01*
X14458Y68125D01*
X14473Y68109D01*
X14489Y68092D01*
X14507Y68074D01*
X14636Y67939D01*
X14281D01*
X14276Y67938D01*
X14271Y67936D01*
X14266Y67933D01*
X14263Y67928D01*
X14260Y67922D01*
X14258Y67914D01*
X14256Y67905D01*
Y67894D01*
G36*
X14256Y67894D02*
Y67883D01*
X14258Y67873D01*
X14260Y67865D01*
X14263Y67859D01*
X14266Y67853D01*
X14270Y67850D01*
X14275Y67848D01*
X14280Y67847D01*
X14731D01*
X14739Y67848D01*
X14746Y67849D01*
X14752Y67852D01*
X14758Y67856D01*
X14762Y67862D01*
X14765Y67871D01*
X14766Y67882D01*
X14767Y67895D01*
Y67906D01*
X14766Y67916D01*
X14765Y67925D01*
X14762Y67933D01*
X14758Y67940D01*
X14754Y67948D01*
X14748Y67955D01*
X14741Y67963D01*
X14578Y68131D01*
X14551Y68159D01*
X14527Y68185D01*
X14506Y68211D01*
X14487Y68235D01*
X14471Y68257D01*
X14456Y68278D01*
X14445Y68299D01*
X14434Y68318D01*
X14426Y68337D01*
X14419Y68354D01*
X14413Y68371D01*
X14410Y68387D01*
X14406Y68417D01*
X14404Y68445D01*
X14405Y68458D01*
X14406Y68471D01*
X14409Y68484D01*
X14413Y68496D01*
X14418Y68508D01*
X14424Y68519D01*
X14432Y68529D01*
X14439Y68538D01*
X14449Y68548D01*
X14459Y68555D01*
X14470Y68561D01*
X14483Y68567D01*
X14496Y68572D01*
X14511Y68575D01*
X14526Y68577D01*
X14543Y68578D01*
X14562Y68577D01*
X14580Y68575D01*
X14598Y68572D01*
X14614Y68567D01*
X14629Y68562D01*
X14643Y68557D01*
X14657Y68551D01*
X14669Y68544D01*
X14681Y68538D01*
X14691Y68532D01*
X14701Y68527D01*
X14709Y68521D01*
X14716Y68517D01*
X14723Y68513D01*
X14729Y68511D01*
X14732Y68511D01*
X14737Y68511D01*
X14741Y68513D01*
X14744Y68516D01*
X14747Y68521D01*
X14749Y68528D01*
X14750Y68536D01*
X14752Y68547D01*
Y68559D01*
Y68567D01*
X14751Y68575D01*
X14750Y68582D01*
X14749Y68587D01*
X14745Y68597D01*
X14741Y68602D01*
X14735Y68607D01*
X14730Y68611D01*
X14724Y68616D01*
X14717Y68621D01*
X14709Y68626D01*
X14699Y68631D01*
X14688Y68637D01*
X14676Y68643D01*
X14662Y68648D01*
X14632Y68658D01*
X14600Y68667D01*
X14583Y68670D01*
X14566Y68672D01*
X14547Y68674D01*
X14529Y68674D01*
X14500Y68674D01*
X14473Y68670D01*
X14449Y68665D01*
X14426Y68657D01*
X14404Y68648D01*
X14385Y68637D01*
X14367Y68626D01*
X14352Y68612D01*
X14338Y68597D01*
X14326Y68581D01*
X14316Y68563D01*
X14308Y68544D01*
X14302Y68525D01*
X14297Y68504D01*
X14294Y68484D01*
X14293Y68463D01*
X14294Y68443D01*
X14295Y68424D01*
X14297Y68404D01*
X14300Y68384D01*
X14305Y68365D01*
X14311Y68345D01*
X14320Y68323D01*
X14330Y68301D01*
X14342Y68278D01*
X14357Y68254D01*
X14375Y68228D01*
X14394Y68201D01*
X14406Y68187D01*
X14417Y68172D01*
X14430Y68157D01*
X14443Y68142D01*
X14458Y68125D01*
X14473Y68109D01*
X14489Y68092D01*
X14507Y68074D01*
X14636Y67939D01*
X14281D01*
X14276Y67938D01*
X14271Y67936D01*
X14266Y67933D01*
X14263Y67928D01*
X14260Y67922D01*
X14258Y67914D01*
X14256Y67905D01*
Y67894D01*
G37*
X13601Y67890D02*
X13602Y67879D01*
X13603Y67869D01*
X13605Y67862D01*
X13608Y67856D01*
X13611Y67852D01*
X13615Y67849D01*
X13620Y67848D01*
X13624Y67847D01*
X14050D01*
X14054Y67848D01*
X14058Y67849D01*
X14062Y67852D01*
X14066Y67856D01*
X14069Y67862D01*
X14071Y67869D01*
X14072Y67879D01*
X14073Y67890D01*
X14072Y67900D01*
X14071Y67909D01*
X14069Y67917D01*
X14066Y67923D01*
X14063Y67928D01*
X14059Y67931D01*
X14055Y67933D01*
X14050Y67934D01*
X13880D01*
Y68554D01*
X14037Y68461D01*
X14048Y68455D01*
X14057Y68453D01*
X14063D01*
X14068Y68456D01*
X14072Y68461D01*
X14074Y68469D01*
X14075Y68480D01*
X14076Y68493D01*
Y68503D01*
X14075Y68511D01*
X14073Y68518D01*
X14072Y68524D01*
X14070Y68529D01*
X14067Y68533D01*
X14063Y68537D01*
X14057Y68541D01*
X13870Y68661D01*
X13864Y68664D01*
X13859Y68665D01*
X13854Y68666D01*
X13847Y68667D01*
X13840Y68668D01*
X13832D01*
X13822D01*
X13808Y68667D01*
X13797Y68667D01*
X13787Y68665D01*
X13780Y68664D01*
X13776Y68661D01*
X13773Y68657D01*
X13772Y68654D01*
X13771Y68651D01*
Y67934D01*
X13624D01*
X13619Y67933D01*
X13614Y67931D01*
X13611Y67928D01*
X13607Y67923D01*
X13604Y67917D01*
X13603Y67909D01*
X13601Y67900D01*
Y67890D01*
G36*
X13601Y67890D02*
X13602Y67879D01*
X13603Y67869D01*
X13605Y67862D01*
X13608Y67856D01*
X13611Y67852D01*
X13615Y67849D01*
X13620Y67848D01*
X13624Y67847D01*
X14050D01*
X14054Y67848D01*
X14058Y67849D01*
X14062Y67852D01*
X14066Y67856D01*
X14069Y67862D01*
X14071Y67869D01*
X14072Y67879D01*
X14073Y67890D01*
X14072Y67900D01*
X14071Y67909D01*
X14069Y67917D01*
X14066Y67923D01*
X14063Y67928D01*
X14059Y67931D01*
X14055Y67933D01*
X14050Y67934D01*
X13880D01*
Y68554D01*
X14037Y68461D01*
X14048Y68455D01*
X14057Y68453D01*
X14063D01*
X14068Y68456D01*
X14072Y68461D01*
X14074Y68469D01*
X14075Y68480D01*
X14076Y68493D01*
Y68503D01*
X14075Y68511D01*
X14073Y68518D01*
X14072Y68524D01*
X14070Y68529D01*
X14067Y68533D01*
X14063Y68537D01*
X14057Y68541D01*
X13870Y68661D01*
X13864Y68664D01*
X13859Y68665D01*
X13854Y68666D01*
X13847Y68667D01*
X13840Y68668D01*
X13832D01*
X13822D01*
X13808Y68667D01*
X13797Y68667D01*
X13787Y68665D01*
X13780Y68664D01*
X13776Y68661D01*
X13773Y68657D01*
X13772Y68654D01*
X13771Y68651D01*
Y67934D01*
X13624D01*
X13619Y67933D01*
X13614Y67931D01*
X13611Y67928D01*
X13607Y67923D01*
X13604Y67917D01*
X13603Y67909D01*
X13601Y67900D01*
Y67890D01*
G37*
X12948D02*
X12948Y67879D01*
X12949Y67869D01*
X12952Y67862D01*
X12955Y67856D01*
X12958Y67852D01*
X12962Y67849D01*
X12966Y67848D01*
X12970Y67847D01*
X13396D01*
X13401Y67848D01*
X13404Y67849D01*
X13408Y67852D01*
X13412Y67856D01*
X13415Y67862D01*
X13418Y67869D01*
X13418Y67879D01*
X13419Y67890D01*
X13418Y67900D01*
X13418Y67909D01*
X13415Y67917D01*
X13412Y67923D01*
X13409Y67928D01*
X13405Y67931D01*
X13401Y67933D01*
X13396Y67934D01*
X13226D01*
Y68554D01*
X13384Y68461D01*
X13394Y68455D01*
X13403Y68453D01*
X13409D01*
X13414Y68456D01*
X13418Y68461D01*
X13421Y68469D01*
X13421Y68480D01*
X13422Y68493D01*
Y68503D01*
X13421Y68511D01*
X13420Y68518D01*
X13418Y68524D01*
X13416Y68529D01*
X13413Y68533D01*
X13409Y68537D01*
X13404Y68541D01*
X13216Y68661D01*
X13210Y68664D01*
X13205Y68665D01*
X13200Y68666D01*
X13194Y68667D01*
X13187Y68668D01*
X13178D01*
X13168D01*
X13155Y68667D01*
X13143Y68667D01*
X13134Y68665D01*
X13127Y68664D01*
X13122Y68661D01*
X13119Y68657D01*
X13118Y68654D01*
X13118Y68651D01*
Y67934D01*
X12970D01*
X12965Y67933D01*
X12961Y67931D01*
X12957Y67928D01*
X12954Y67923D01*
X12951Y67917D01*
X12949Y67909D01*
X12948Y67900D01*
Y67890D01*
G36*
X12948Y67890D02*
X12948Y67879D01*
X12949Y67869D01*
X12952Y67862D01*
X12955Y67856D01*
X12958Y67852D01*
X12962Y67849D01*
X12966Y67848D01*
X12970Y67847D01*
X13396D01*
X13401Y67848D01*
X13404Y67849D01*
X13408Y67852D01*
X13412Y67856D01*
X13415Y67862D01*
X13418Y67869D01*
X13418Y67879D01*
X13419Y67890D01*
X13418Y67900D01*
X13418Y67909D01*
X13415Y67917D01*
X13412Y67923D01*
X13409Y67928D01*
X13405Y67931D01*
X13401Y67933D01*
X13396Y67934D01*
X13226D01*
Y68554D01*
X13384Y68461D01*
X13394Y68455D01*
X13403Y68453D01*
X13409D01*
X13414Y68456D01*
X13418Y68461D01*
X13421Y68469D01*
X13421Y68480D01*
X13422Y68493D01*
Y68503D01*
X13421Y68511D01*
X13420Y68518D01*
X13418Y68524D01*
X13416Y68529D01*
X13413Y68533D01*
X13409Y68537D01*
X13404Y68541D01*
X13216Y68661D01*
X13210Y68664D01*
X13205Y68665D01*
X13200Y68666D01*
X13194Y68667D01*
X13187Y68668D01*
X13178D01*
X13168D01*
X13155Y68667D01*
X13143Y68667D01*
X13134Y68665D01*
X13127Y68664D01*
X13122Y68661D01*
X13119Y68657D01*
X13118Y68654D01*
X13118Y68651D01*
Y67934D01*
X12970D01*
X12965Y67933D01*
X12961Y67931D01*
X12957Y67928D01*
X12954Y67923D01*
X12951Y67917D01*
X12949Y67909D01*
X12948Y67900D01*
Y67890D01*
G37*
X12294D02*
X12295Y67879D01*
X12296Y67869D01*
X12298Y67862D01*
X12301Y67856D01*
X12304Y67852D01*
X12308Y67849D01*
X12313Y67848D01*
X12316Y67847D01*
X12742D01*
X12747Y67848D01*
X12751Y67849D01*
X12755Y67852D01*
X12759Y67856D01*
X12762Y67862D01*
X12764Y67869D01*
X12765Y67879D01*
X12765Y67890D01*
X12765Y67900D01*
X12764Y67909D01*
X12762Y67917D01*
X12759Y67923D01*
X12755Y67928D01*
X12752Y67931D01*
X12748Y67933D01*
X12742Y67934D01*
X12572D01*
Y68554D01*
X12730Y68461D01*
X12741Y68455D01*
X12749Y68453D01*
X12755D01*
X12761Y68456D01*
X12765Y68461D01*
X12767Y68469D01*
X12768Y68480D01*
X12769Y68493D01*
Y68503D01*
X12768Y68511D01*
X12766Y68518D01*
X12765Y68524D01*
X12762Y68529D01*
X12759Y68533D01*
X12755Y68537D01*
X12750Y68541D01*
X12562Y68661D01*
X12556Y68664D01*
X12552Y68665D01*
X12546Y68666D01*
X12540Y68667D01*
X12533Y68668D01*
X12525D01*
X12515D01*
X12501Y68667D01*
X12489Y68667D01*
X12480Y68665D01*
X12473Y68664D01*
X12469Y68661D01*
X12466Y68657D01*
X12465Y68654D01*
X12464Y68651D01*
Y67934D01*
X12316D01*
X12312Y67933D01*
X12307Y67931D01*
X12303Y67928D01*
X12300Y67923D01*
X12297Y67917D01*
X12296Y67909D01*
X12294Y67900D01*
Y67890D01*
G36*
X12294Y67890D02*
X12295Y67879D01*
X12296Y67869D01*
X12298Y67862D01*
X12301Y67856D01*
X12304Y67852D01*
X12308Y67849D01*
X12313Y67848D01*
X12316Y67847D01*
X12742D01*
X12747Y67848D01*
X12751Y67849D01*
X12755Y67852D01*
X12759Y67856D01*
X12762Y67862D01*
X12764Y67869D01*
X12765Y67879D01*
X12765Y67890D01*
X12765Y67900D01*
X12764Y67909D01*
X12762Y67917D01*
X12759Y67923D01*
X12755Y67928D01*
X12752Y67931D01*
X12748Y67933D01*
X12742Y67934D01*
X12572D01*
Y68554D01*
X12730Y68461D01*
X12741Y68455D01*
X12749Y68453D01*
X12755D01*
X12761Y68456D01*
X12765Y68461D01*
X12767Y68469D01*
X12768Y68480D01*
X12769Y68493D01*
Y68503D01*
X12768Y68511D01*
X12766Y68518D01*
X12765Y68524D01*
X12762Y68529D01*
X12759Y68533D01*
X12755Y68537D01*
X12750Y68541D01*
X12562Y68661D01*
X12556Y68664D01*
X12552Y68665D01*
X12546Y68666D01*
X12540Y68667D01*
X12533Y68668D01*
X12525D01*
X12515D01*
X12501Y68667D01*
X12489Y68667D01*
X12480Y68665D01*
X12473Y68664D01*
X12469Y68661D01*
X12466Y68657D01*
X12465Y68654D01*
X12464Y68651D01*
Y67934D01*
X12316D01*
X12312Y67933D01*
X12307Y67931D01*
X12303Y67928D01*
X12300Y67923D01*
X12297Y67917D01*
X12296Y67909D01*
X12294Y67900D01*
Y67890D01*
G37*
X11642Y67894D02*
Y67883D01*
X11644Y67873D01*
X11645Y67865D01*
X11648Y67859D01*
X11651Y67853D01*
X11656Y67850D01*
X11661Y67848D01*
X11666Y67847D01*
X12116D01*
X12125Y67848D01*
X12132Y67849D01*
X12138Y67852D01*
X12143Y67856D01*
X12147Y67862D01*
X12150Y67871D01*
X12152Y67882D01*
X12153Y67895D01*
Y67906D01*
X12152Y67916D01*
X12150Y67925D01*
X12147Y67933D01*
X12143Y67940D01*
X12140Y67948D01*
X12133Y67955D01*
X12126Y67963D01*
X11963Y68131D01*
X11937Y68159D01*
X11913Y68185D01*
X11891Y68211D01*
X11873Y68235D01*
X11857Y68257D01*
X11842Y68278D01*
X11830Y68299D01*
X11820Y68318D01*
X11811Y68337D01*
X11804Y68354D01*
X11799Y68371D01*
X11796Y68387D01*
X11791Y68417D01*
X11790Y68445D01*
X11790Y68458D01*
X11792Y68471D01*
X11795Y68484D01*
X11799Y68496D01*
X11804Y68508D01*
X11810Y68519D01*
X11817Y68529D01*
X11825Y68538D01*
X11834Y68548D01*
X11844Y68555D01*
X11856Y68561D01*
X11868Y68567D01*
X11882Y68572D01*
X11897Y68575D01*
X11912Y68577D01*
X11928Y68578D01*
X11947Y68577D01*
X11966Y68575D01*
X11983Y68572D01*
X12000Y68567D01*
X12015Y68562D01*
X12029Y68557D01*
X12043Y68551D01*
X12055Y68544D01*
X12067Y68538D01*
X12077Y68532D01*
X12087Y68527D01*
X12095Y68521D01*
X12102Y68517D01*
X12109Y68513D01*
X12114Y68511D01*
X12118Y68511D01*
X12123Y68511D01*
X12126Y68513D01*
X12130Y68516D01*
X12133Y68521D01*
X12134Y68528D01*
X12136Y68536D01*
X12137Y68547D01*
Y68559D01*
Y68567D01*
X12136Y68575D01*
X12136Y68582D01*
X12134Y68587D01*
X12130Y68597D01*
X12126Y68602D01*
X12120Y68607D01*
X12116Y68611D01*
X12110Y68616D01*
X12103Y68621D01*
X12094Y68626D01*
X12084Y68631D01*
X12073Y68637D01*
X12061Y68643D01*
X12047Y68648D01*
X12018Y68658D01*
X11986Y68667D01*
X11969Y68670D01*
X11951Y68672D01*
X11933Y68674D01*
X11915Y68674D01*
X11886Y68674D01*
X11859Y68670D01*
X11834Y68665D01*
X11811Y68657D01*
X11790Y68648D01*
X11770Y68637D01*
X11753Y68626D01*
X11737Y68612D01*
X11724Y68597D01*
X11712Y68581D01*
X11701Y68563D01*
X11694Y68544D01*
X11687Y68525D01*
X11683Y68504D01*
X11680Y68484D01*
X11679Y68463D01*
X11680Y68443D01*
X11680Y68424D01*
X11683Y68404D01*
X11686Y68384D01*
X11690Y68365D01*
X11697Y68345D01*
X11705Y68323D01*
X11715Y68301D01*
X11727Y68278D01*
X11743Y68254D01*
X11760Y68228D01*
X11780Y68201D01*
X11791Y68187D01*
X11803Y68172D01*
X11816Y68157D01*
X11829Y68142D01*
X11844Y68125D01*
X11859Y68109D01*
X11875Y68092D01*
X11893Y68074D01*
X12022Y67939D01*
X11667D01*
X11661Y67938D01*
X11657Y67936D01*
X11652Y67933D01*
X11649Y67928D01*
X11646Y67922D01*
X11644Y67914D01*
X11642Y67905D01*
Y67894D01*
G36*
X11642Y67894D02*
Y67883D01*
X11644Y67873D01*
X11645Y67865D01*
X11648Y67859D01*
X11651Y67853D01*
X11656Y67850D01*
X11661Y67848D01*
X11666Y67847D01*
X12116D01*
X12125Y67848D01*
X12132Y67849D01*
X12138Y67852D01*
X12143Y67856D01*
X12147Y67862D01*
X12150Y67871D01*
X12152Y67882D01*
X12153Y67895D01*
Y67906D01*
X12152Y67916D01*
X12150Y67925D01*
X12147Y67933D01*
X12143Y67940D01*
X12140Y67948D01*
X12133Y67955D01*
X12126Y67963D01*
X11963Y68131D01*
X11937Y68159D01*
X11913Y68185D01*
X11891Y68211D01*
X11873Y68235D01*
X11857Y68257D01*
X11842Y68278D01*
X11830Y68299D01*
X11820Y68318D01*
X11811Y68337D01*
X11804Y68354D01*
X11799Y68371D01*
X11796Y68387D01*
X11791Y68417D01*
X11790Y68445D01*
X11790Y68458D01*
X11792Y68471D01*
X11795Y68484D01*
X11799Y68496D01*
X11804Y68508D01*
X11810Y68519D01*
X11817Y68529D01*
X11825Y68538D01*
X11834Y68548D01*
X11844Y68555D01*
X11856Y68561D01*
X11868Y68567D01*
X11882Y68572D01*
X11897Y68575D01*
X11912Y68577D01*
X11928Y68578D01*
X11947Y68577D01*
X11966Y68575D01*
X11983Y68572D01*
X12000Y68567D01*
X12015Y68562D01*
X12029Y68557D01*
X12043Y68551D01*
X12055Y68544D01*
X12067Y68538D01*
X12077Y68532D01*
X12087Y68527D01*
X12095Y68521D01*
X12102Y68517D01*
X12109Y68513D01*
X12114Y68511D01*
X12118Y68511D01*
X12123Y68511D01*
X12126Y68513D01*
X12130Y68516D01*
X12133Y68521D01*
X12134Y68528D01*
X12136Y68536D01*
X12137Y68547D01*
Y68559D01*
Y68567D01*
X12136Y68575D01*
X12136Y68582D01*
X12134Y68587D01*
X12130Y68597D01*
X12126Y68602D01*
X12120Y68607D01*
X12116Y68611D01*
X12110Y68616D01*
X12103Y68621D01*
X12094Y68626D01*
X12084Y68631D01*
X12073Y68637D01*
X12061Y68643D01*
X12047Y68648D01*
X12018Y68658D01*
X11986Y68667D01*
X11969Y68670D01*
X11951Y68672D01*
X11933Y68674D01*
X11915Y68674D01*
X11886Y68674D01*
X11859Y68670D01*
X11834Y68665D01*
X11811Y68657D01*
X11790Y68648D01*
X11770Y68637D01*
X11753Y68626D01*
X11737Y68612D01*
X11724Y68597D01*
X11712Y68581D01*
X11701Y68563D01*
X11694Y68544D01*
X11687Y68525D01*
X11683Y68504D01*
X11680Y68484D01*
X11679Y68463D01*
X11680Y68443D01*
X11680Y68424D01*
X11683Y68404D01*
X11686Y68384D01*
X11690Y68365D01*
X11697Y68345D01*
X11705Y68323D01*
X11715Y68301D01*
X11727Y68278D01*
X11743Y68254D01*
X11760Y68228D01*
X11780Y68201D01*
X11791Y68187D01*
X11803Y68172D01*
X11816Y68157D01*
X11829Y68142D01*
X11844Y68125D01*
X11859Y68109D01*
X11875Y68092D01*
X11893Y68074D01*
X12022Y67939D01*
X11667D01*
X11661Y67938D01*
X11657Y67936D01*
X11652Y67933D01*
X11649Y67928D01*
X11646Y67922D01*
X11644Y67914D01*
X11642Y67905D01*
Y67894D01*
G37*
X10995Y68079D02*
X10997Y68052D01*
X11000Y68026D01*
X11006Y68002D01*
X11015Y67978D01*
X11025Y67957D01*
X11038Y67937D01*
X11054Y67919D01*
X11071Y67902D01*
X11090Y67886D01*
X11111Y67873D01*
X11135Y67862D01*
X11161Y67852D01*
X11188Y67845D01*
X11218Y67839D01*
X11249Y67835D01*
X11282Y67835D01*
X11302D01*
X11321Y67836D01*
X11340Y67839D01*
X11358Y67842D01*
X11375Y67845D01*
X11392Y67849D01*
X11408Y67852D01*
X11421Y67857D01*
X11435Y67862D01*
X11447Y67866D01*
X11458Y67871D01*
X11468Y67876D01*
X11476Y67880D01*
X11482Y67884D01*
X11487Y67888D01*
X11491Y67890D01*
X11494Y67895D01*
X11497Y67899D01*
X11500Y67904D01*
X11502Y67909D01*
X11504Y67916D01*
X11505Y67925D01*
X11506Y67935D01*
Y67948D01*
Y67958D01*
X11504Y67966D01*
X11504Y67974D01*
X11501Y67978D01*
X11499Y67982D01*
X11496Y67985D01*
X11492Y67987D01*
X11488Y67988D01*
X11485Y67987D01*
X11480Y67985D01*
X11474Y67982D01*
X11465Y67978D01*
X11457Y67972D01*
X11446Y67967D01*
X11434Y67962D01*
X11421Y67955D01*
X11408Y67950D01*
X11393Y67945D01*
X11376Y67939D01*
X11359Y67934D01*
X11341Y67929D01*
X11321Y67926D01*
X11301Y67925D01*
X11279Y67924D01*
X11258Y67925D01*
X11239Y67926D01*
X11221Y67930D01*
X11205Y67935D01*
X11188Y67941D01*
X11175Y67948D01*
X11161Y67955D01*
X11150Y67965D01*
X11140Y67975D01*
X11131Y67986D01*
X11123Y67998D01*
X11117Y68011D01*
X11112Y68025D01*
X11109Y68039D01*
X11107Y68054D01*
X11106Y68069D01*
X11107Y68086D01*
X11110Y68102D01*
X11114Y68118D01*
X11120Y68132D01*
X11128Y68145D01*
X11138Y68158D01*
X11148Y68169D01*
X11161Y68180D01*
X11175Y68189D01*
X11191Y68198D01*
X11208Y68205D01*
X11228Y68211D01*
X11248Y68215D01*
X11270Y68218D01*
X11292Y68221D01*
X11317Y68221D01*
X11397D01*
X11402Y68222D01*
X11407Y68224D01*
X11411Y68227D01*
X11415Y68231D01*
X11419Y68237D01*
X11421Y68244D01*
X11423Y68254D01*
X11424Y68265D01*
X11423Y68276D01*
X11422Y68285D01*
X11420Y68292D01*
X11417Y68298D01*
X11413Y68301D01*
X11408Y68305D01*
X11404Y68306D01*
X11398Y68307D01*
X11328D01*
X11307Y68308D01*
X11288Y68309D01*
X11270Y68313D01*
X11253Y68318D01*
X11237Y68324D01*
X11222Y68331D01*
X11209Y68339D01*
X11197Y68348D01*
X11186Y68359D01*
X11176Y68371D01*
X11168Y68383D01*
X11161Y68397D01*
X11156Y68411D01*
X11152Y68427D01*
X11150Y68443D01*
X11149Y68460D01*
X11150Y68472D01*
X11151Y68484D01*
X11154Y68497D01*
X11158Y68508D01*
X11162Y68519D01*
X11168Y68530D01*
X11175Y68540D01*
X11182Y68548D01*
X11191Y68557D01*
X11201Y68564D01*
X11211Y68570D01*
X11224Y68575D01*
X11237Y68580D01*
X11251Y68583D01*
X11267Y68584D01*
X11283Y68585D01*
X11301Y68584D01*
X11318Y68582D01*
X11334Y68579D01*
X11350Y68574D01*
X11364Y68568D01*
X11378Y68563D01*
X11392Y68557D01*
X11404Y68551D01*
X11416Y68544D01*
X11426Y68538D01*
X11435Y68532D01*
X11444Y68527D01*
X11451Y68522D01*
X11458Y68518D01*
X11462Y68517D01*
X11466Y68516D01*
X11470D01*
X11474Y68518D01*
X11477Y68520D01*
X11480Y68524D01*
X11481Y68529D01*
X11483Y68537D01*
X11484Y68547D01*
Y68559D01*
Y68568D01*
X11483Y68576D01*
X11482Y68583D01*
X11481Y68588D01*
X11476Y68598D01*
X11473Y68603D01*
X11468Y68608D01*
X11464Y68612D01*
X11458Y68616D01*
X11451Y68621D01*
X11444Y68626D01*
X11434Y68631D01*
X11423Y68637D01*
X11411Y68643D01*
X11398Y68648D01*
X11384Y68654D01*
X11369Y68658D01*
X11354Y68663D01*
X11337Y68667D01*
X11318Y68670D01*
X11300Y68672D01*
X11281Y68674D01*
X11261Y68674D01*
X11234Y68674D01*
X11208Y68671D01*
X11184Y68666D01*
X11161Y68660D01*
X11141Y68652D01*
X11122Y68642D01*
X11105Y68631D01*
X11090Y68619D01*
X11077Y68605D01*
X11065Y68590D01*
X11055Y68573D01*
X11047Y68555D01*
X11041Y68536D01*
X11037Y68517D01*
X11034Y68495D01*
X11033Y68474D01*
X11034Y68454D01*
X11035Y68437D01*
X11038Y68419D01*
X11043Y68402D01*
X11048Y68386D01*
X11055Y68371D01*
X11064Y68357D01*
X11073Y68343D01*
X11083Y68331D01*
X11095Y68320D01*
X11107Y68309D01*
X11121Y68300D01*
X11135Y68291D01*
X11151Y68285D01*
X11168Y68279D01*
X11186Y68275D01*
Y68274D01*
X11165Y68271D01*
X11146Y68266D01*
X11127Y68260D01*
X11109Y68252D01*
X11092Y68244D01*
X11076Y68234D01*
X11062Y68222D01*
X11049Y68211D01*
X11037Y68198D01*
X11026Y68183D01*
X11017Y68168D01*
X11009Y68151D01*
X11003Y68135D01*
X10999Y68117D01*
X10996Y68098D01*
X10995Y68079D01*
G36*
X10995Y68079D02*
X10997Y68052D01*
X11000Y68026D01*
X11006Y68002D01*
X11015Y67978D01*
X11025Y67957D01*
X11038Y67937D01*
X11054Y67919D01*
X11071Y67902D01*
X11090Y67886D01*
X11111Y67873D01*
X11135Y67862D01*
X11161Y67852D01*
X11188Y67845D01*
X11218Y67839D01*
X11249Y67835D01*
X11282Y67835D01*
X11302D01*
X11321Y67836D01*
X11340Y67839D01*
X11358Y67842D01*
X11375Y67845D01*
X11392Y67849D01*
X11408Y67852D01*
X11421Y67857D01*
X11435Y67862D01*
X11447Y67866D01*
X11458Y67871D01*
X11468Y67876D01*
X11476Y67880D01*
X11482Y67884D01*
X11487Y67888D01*
X11491Y67890D01*
X11494Y67895D01*
X11497Y67899D01*
X11500Y67904D01*
X11502Y67909D01*
X11504Y67916D01*
X11505Y67925D01*
X11506Y67935D01*
Y67948D01*
Y67958D01*
X11504Y67966D01*
X11504Y67974D01*
X11501Y67978D01*
X11499Y67982D01*
X11496Y67985D01*
X11492Y67987D01*
X11488Y67988D01*
X11485Y67987D01*
X11480Y67985D01*
X11474Y67982D01*
X11465Y67978D01*
X11457Y67972D01*
X11446Y67967D01*
X11434Y67962D01*
X11421Y67955D01*
X11408Y67950D01*
X11393Y67945D01*
X11376Y67939D01*
X11359Y67934D01*
X11341Y67929D01*
X11321Y67926D01*
X11301Y67925D01*
X11279Y67924D01*
X11258Y67925D01*
X11239Y67926D01*
X11221Y67930D01*
X11205Y67935D01*
X11188Y67941D01*
X11175Y67948D01*
X11161Y67955D01*
X11150Y67965D01*
X11140Y67975D01*
X11131Y67986D01*
X11123Y67998D01*
X11117Y68011D01*
X11112Y68025D01*
X11109Y68039D01*
X11107Y68054D01*
X11106Y68069D01*
X11107Y68086D01*
X11110Y68102D01*
X11114Y68118D01*
X11120Y68132D01*
X11128Y68145D01*
X11138Y68158D01*
X11148Y68169D01*
X11161Y68180D01*
X11175Y68189D01*
X11191Y68198D01*
X11208Y68205D01*
X11228Y68211D01*
X11248Y68215D01*
X11270Y68218D01*
X11292Y68221D01*
X11317Y68221D01*
X11397D01*
X11402Y68222D01*
X11407Y68224D01*
X11411Y68227D01*
X11415Y68231D01*
X11419Y68237D01*
X11421Y68244D01*
X11423Y68254D01*
X11424Y68265D01*
X11423Y68276D01*
X11422Y68285D01*
X11420Y68292D01*
X11417Y68298D01*
X11413Y68301D01*
X11408Y68305D01*
X11404Y68306D01*
X11398Y68307D01*
X11328D01*
X11307Y68308D01*
X11288Y68309D01*
X11270Y68313D01*
X11253Y68318D01*
X11237Y68324D01*
X11222Y68331D01*
X11209Y68339D01*
X11197Y68348D01*
X11186Y68359D01*
X11176Y68371D01*
X11168Y68383D01*
X11161Y68397D01*
X11156Y68411D01*
X11152Y68427D01*
X11150Y68443D01*
X11149Y68460D01*
X11150Y68472D01*
X11151Y68484D01*
X11154Y68497D01*
X11158Y68508D01*
X11162Y68519D01*
X11168Y68530D01*
X11175Y68540D01*
X11182Y68548D01*
X11191Y68557D01*
X11201Y68564D01*
X11211Y68570D01*
X11224Y68575D01*
X11237Y68580D01*
X11251Y68583D01*
X11267Y68584D01*
X11283Y68585D01*
X11301Y68584D01*
X11318Y68582D01*
X11334Y68579D01*
X11350Y68574D01*
X11364Y68568D01*
X11378Y68563D01*
X11392Y68557D01*
X11404Y68551D01*
X11416Y68544D01*
X11426Y68538D01*
X11435Y68532D01*
X11444Y68527D01*
X11451Y68522D01*
X11458Y68518D01*
X11462Y68517D01*
X11466Y68516D01*
X11470D01*
X11474Y68518D01*
X11477Y68520D01*
X11480Y68524D01*
X11481Y68529D01*
X11483Y68537D01*
X11484Y68547D01*
Y68559D01*
Y68568D01*
X11483Y68576D01*
X11482Y68583D01*
X11481Y68588D01*
X11476Y68598D01*
X11473Y68603D01*
X11468Y68608D01*
X11464Y68612D01*
X11458Y68616D01*
X11451Y68621D01*
X11444Y68626D01*
X11434Y68631D01*
X11423Y68637D01*
X11411Y68643D01*
X11398Y68648D01*
X11384Y68654D01*
X11369Y68658D01*
X11354Y68663D01*
X11337Y68667D01*
X11318Y68670D01*
X11300Y68672D01*
X11281Y68674D01*
X11261Y68674D01*
X11234Y68674D01*
X11208Y68671D01*
X11184Y68666D01*
X11161Y68660D01*
X11141Y68652D01*
X11122Y68642D01*
X11105Y68631D01*
X11090Y68619D01*
X11077Y68605D01*
X11065Y68590D01*
X11055Y68573D01*
X11047Y68555D01*
X11041Y68536D01*
X11037Y68517D01*
X11034Y68495D01*
X11033Y68474D01*
X11034Y68454D01*
X11035Y68437D01*
X11038Y68419D01*
X11043Y68402D01*
X11048Y68386D01*
X11055Y68371D01*
X11064Y68357D01*
X11073Y68343D01*
X11083Y68331D01*
X11095Y68320D01*
X11107Y68309D01*
X11121Y68300D01*
X11135Y68291D01*
X11151Y68285D01*
X11168Y68279D01*
X11186Y68275D01*
Y68274D01*
X11165Y68271D01*
X11146Y68266D01*
X11127Y68260D01*
X11109Y68252D01*
X11092Y68244D01*
X11076Y68234D01*
X11062Y68222D01*
X11049Y68211D01*
X11037Y68198D01*
X11026Y68183D01*
X11017Y68168D01*
X11009Y68151D01*
X11003Y68135D01*
X10999Y68117D01*
X10996Y68098D01*
X10995Y68079D01*
G37*
X10811Y67696D02*
X10814Y67688D01*
X10818Y67682D01*
X10822Y67678D01*
X10828Y67675D01*
X10835Y67673D01*
X10844Y67672D01*
X10854Y67670D01*
X10866D01*
X10880Y67671D01*
X10892Y67672D01*
X10902Y67675D01*
X10908Y67679D01*
X10912Y67683D01*
X10915Y67689D01*
Y67696D01*
X10912Y67703D01*
X10532Y68747D01*
X10529Y68755D01*
X10525Y68761D01*
X10520Y68764D01*
X10515Y68768D01*
X10508Y68770D01*
X10499Y68772D01*
X10489Y68773D01*
X10476D01*
X10462Y68772D01*
X10451Y68770D01*
X10442Y68768D01*
X10435Y68764D01*
X10430Y68761D01*
X10428Y68754D01*
Y68747D01*
X10430Y68740D01*
X10811Y67696D01*
G36*
X10811Y67696D02*
X10814Y67688D01*
X10818Y67682D01*
X10822Y67678D01*
X10828Y67675D01*
X10835Y67673D01*
X10844Y67672D01*
X10854Y67670D01*
X10866D01*
X10880Y67671D01*
X10892Y67672D01*
X10902Y67675D01*
X10908Y67679D01*
X10912Y67683D01*
X10915Y67689D01*
Y67696D01*
X10912Y67703D01*
X10532Y68747D01*
X10529Y68755D01*
X10525Y68761D01*
X10520Y68764D01*
X10515Y68768D01*
X10508Y68770D01*
X10499Y68772D01*
X10489Y68773D01*
X10476D01*
X10462Y68772D01*
X10451Y68770D01*
X10442Y68768D01*
X10435Y68764D01*
X10430Y68761D01*
X10428Y68754D01*
Y68747D01*
X10430Y68740D01*
X10811Y67696D01*
G37*
X9810Y68256D02*
X9810Y68211D01*
X9813Y68167D01*
X9818Y68125D01*
X9824Y68085D01*
X9833Y68048D01*
X9844Y68013D01*
X9857Y67981D01*
X9873Y67952D01*
X9883Y67938D01*
X9892Y67925D01*
X9902Y67913D01*
X9913Y67902D01*
X9925Y67892D01*
X9937Y67882D01*
X9950Y67873D01*
X9963Y67865D01*
X9977Y67858D01*
X9993Y67852D01*
X10009Y67846D01*
X10025Y67842D01*
X10043Y67839D01*
X10061Y67836D01*
X10080Y67835D01*
X10100Y67835D01*
X10119Y67835D01*
X10137Y67836D01*
X10154Y67839D01*
X10171Y67842D01*
X10186Y67845D01*
X10202Y67850D01*
X10216Y67855D01*
X10229Y67862D01*
X10243Y67869D01*
X10254Y67878D01*
X10266Y67886D01*
X10277Y67896D01*
X10287Y67906D01*
X10296Y67918D01*
X10306Y67930D01*
X10314Y67943D01*
X10322Y67956D01*
X10329Y67971D01*
X10336Y67986D01*
X10342Y68002D01*
X10347Y68019D01*
X10352Y68036D01*
X10359Y68074D01*
X10366Y68115D01*
X10370Y68158D01*
X10373Y68204D01*
X10373Y68252D01*
X10373Y68298D01*
X10369Y68342D01*
X10365Y68384D01*
X10358Y68424D01*
X10349Y68461D01*
X10338Y68496D01*
X10325Y68528D01*
X10309Y68558D01*
X10300Y68571D01*
X10291Y68584D01*
X10280Y68596D01*
X10269Y68607D01*
X10258Y68617D01*
X10246Y68627D01*
X10233Y68636D01*
X10220Y68644D01*
X10206Y68651D01*
X10190Y68657D01*
X10174Y68662D01*
X10158Y68667D01*
X10140Y68670D01*
X10123Y68672D01*
X10103Y68674D01*
X10083Y68674D01*
X10065Y68674D01*
X10046Y68673D01*
X10029Y68671D01*
X10013Y68667D01*
X9997Y68664D01*
X9981Y68659D01*
X9967Y68654D01*
X9953Y68647D01*
X9940Y68640D01*
X9929Y68631D01*
X9917Y68623D01*
X9906Y68613D01*
X9896Y68602D01*
X9886Y68591D01*
X9877Y68579D01*
X9869Y68566D01*
X9854Y68538D01*
X9841Y68507D01*
X9836Y68490D01*
X9831Y68472D01*
X9827Y68454D01*
X9823Y68435D01*
X9817Y68394D01*
X9813Y68351D01*
X9810Y68305D01*
X9810Y68256D01*
X9920Y68249D02*
Y68278D01*
X9921Y68307D01*
X9923Y68333D01*
X9925Y68358D01*
X9927Y68382D01*
X9930Y68404D01*
X9933Y68424D01*
X9938Y68444D01*
X9942Y68462D01*
X9947Y68478D01*
X9953Y68494D01*
X9960Y68508D01*
X9967Y68521D01*
X9975Y68532D01*
X9983Y68543D01*
X9992Y68552D01*
X10002Y68560D01*
X10013Y68567D01*
X10023Y68573D01*
X10036Y68577D01*
X10048Y68581D01*
X10061Y68583D01*
X10075Y68584D01*
X10090Y68585D01*
X10103Y68584D01*
X10116Y68584D01*
X10127Y68581D01*
X10139Y68579D01*
X10149Y68575D01*
X10159Y68571D01*
X10168Y68566D01*
X10177Y68560D01*
X10193Y68546D01*
X10206Y68530D01*
X10219Y68511D01*
X10229Y68491D01*
X10238Y68468D01*
X10246Y68443D01*
X10251Y68416D01*
X10256Y68388D01*
X10259Y68357D01*
X10261Y68326D01*
X10262Y68294D01*
X10263Y68260D01*
Y68238D01*
X10262Y68216D01*
X10261Y68195D01*
X10260Y68175D01*
X10259Y68157D01*
X10257Y68138D01*
X10256Y68122D01*
X10253Y68105D01*
X10248Y68075D01*
X10241Y68047D01*
X10233Y68022D01*
X10223Y68001D01*
X10213Y67982D01*
X10200Y67966D01*
X10186Y67952D01*
X10171Y67942D01*
X10154Y67934D01*
X10136Y67929D01*
X10116Y67925D01*
X10093Y67924D01*
X10076Y67925D01*
X10060Y67927D01*
X10046Y67930D01*
X10032Y67935D01*
X10019Y67942D01*
X10007Y67949D01*
X9996Y67958D01*
X9986Y67968D01*
X9977Y67978D01*
X9968Y67991D01*
X9960Y68004D01*
X9953Y68018D01*
X9948Y68033D01*
X9943Y68049D01*
X9937Y68066D01*
X9933Y68084D01*
X9927Y68122D01*
X9925Y68141D01*
X9923Y68161D01*
X9921Y68205D01*
X9920Y68249D01*
X9810Y68255D02*
G36*
X9810Y68255D02*
X9810Y68211D01*
X9813Y68167D01*
X9818Y68125D01*
X9824Y68085D01*
X9833Y68048D01*
X9844Y68013D01*
X9857Y67981D01*
X9873Y67952D01*
X9883Y67938D01*
X9892Y67925D01*
X9902Y67913D01*
X9913Y67902D01*
X9925Y67892D01*
X9937Y67882D01*
X9950Y67873D01*
X9963Y67865D01*
X9977Y67858D01*
X9993Y67852D01*
X10009Y67846D01*
X10025Y67842D01*
X10043Y67839D01*
X10061Y67836D01*
X10080Y67835D01*
X10100Y67835D01*
X10119Y67835D01*
X10137Y67836D01*
X10154Y67839D01*
X10171Y67842D01*
X10186Y67845D01*
X10202Y67850D01*
X10216Y67855D01*
X10229Y67862D01*
X10243Y67869D01*
X10254Y67878D01*
X10266Y67886D01*
X10277Y67896D01*
X10287Y67906D01*
X10296Y67918D01*
X10306Y67930D01*
X10314Y67943D01*
X10322Y67956D01*
X10329Y67971D01*
X10336Y67986D01*
X10342Y68002D01*
X10347Y68019D01*
X10352Y68036D01*
X10359Y68074D01*
X10366Y68115D01*
X10370Y68158D01*
X10373Y68204D01*
X10373Y68252D01*
X10373Y68255D01*
X10263D01*
Y68238D01*
X10262Y68216D01*
X10261Y68195D01*
X10260Y68175D01*
X10259Y68157D01*
X10257Y68138D01*
X10256Y68122D01*
X10253Y68105D01*
X10248Y68075D01*
X10241Y68047D01*
X10233Y68022D01*
X10223Y68001D01*
X10213Y67982D01*
X10200Y67966D01*
X10186Y67952D01*
X10171Y67942D01*
X10154Y67934D01*
X10136Y67929D01*
X10116Y67925D01*
X10093Y67924D01*
X10076Y67925D01*
X10060Y67927D01*
X10046Y67930D01*
X10032Y67935D01*
X10019Y67942D01*
X10007Y67949D01*
X9996Y67958D01*
X9986Y67968D01*
X9977Y67978D01*
X9968Y67991D01*
X9960Y68004D01*
X9953Y68018D01*
X9948Y68033D01*
X9943Y68049D01*
X9937Y68066D01*
X9933Y68084D01*
X9927Y68122D01*
X9925Y68141D01*
X9923Y68161D01*
X9921Y68205D01*
X9920Y68249D01*
Y68255D01*
X9810D01*
G37*
X9810Y68256D02*
G36*
X9810Y68256D02*
X9810Y68255D01*
X9920D01*
Y68278D01*
X9921Y68307D01*
X9923Y68333D01*
X9925Y68358D01*
X9927Y68382D01*
X9930Y68404D01*
X9933Y68424D01*
X9938Y68444D01*
X9942Y68462D01*
X9947Y68478D01*
X9953Y68494D01*
X9960Y68508D01*
X9967Y68521D01*
X9975Y68532D01*
X9983Y68543D01*
X9992Y68552D01*
X10002Y68560D01*
X10013Y68567D01*
X10023Y68573D01*
X10036Y68577D01*
X10048Y68581D01*
X10061Y68583D01*
X10075Y68584D01*
X10090Y68585D01*
X10103Y68584D01*
X10116Y68584D01*
X10127Y68581D01*
X10139Y68579D01*
X10149Y68575D01*
X10159Y68571D01*
X10168Y68566D01*
X10177Y68560D01*
X10193Y68546D01*
X10206Y68530D01*
X10219Y68511D01*
X10229Y68491D01*
X10238Y68468D01*
X10246Y68443D01*
X10251Y68416D01*
X10256Y68388D01*
X10259Y68357D01*
X10261Y68326D01*
X10262Y68294D01*
X10263Y68260D01*
Y68255D01*
X10373D01*
X10373Y68298D01*
X10369Y68342D01*
X10365Y68384D01*
X10358Y68424D01*
X10349Y68461D01*
X10338Y68496D01*
X10325Y68528D01*
X10309Y68558D01*
X10300Y68571D01*
X10291Y68584D01*
X10280Y68596D01*
X10269Y68607D01*
X10258Y68617D01*
X10246Y68627D01*
X10233Y68636D01*
X10220Y68644D01*
X10206Y68651D01*
X10190Y68657D01*
X10174Y68662D01*
X10158Y68667D01*
X10140Y68670D01*
X10123Y68672D01*
X10103Y68674D01*
X10083Y68674D01*
X10065Y68674D01*
X10046Y68673D01*
X10029Y68671D01*
X10013Y68667D01*
X9997Y68664D01*
X9981Y68659D01*
X9967Y68654D01*
X9953Y68647D01*
X9940Y68640D01*
X9929Y68631D01*
X9917Y68623D01*
X9906Y68613D01*
X9896Y68602D01*
X9886Y68591D01*
X9877Y68579D01*
X9869Y68566D01*
X9854Y68538D01*
X9841Y68507D01*
X9836Y68490D01*
X9831Y68472D01*
X9827Y68454D01*
X9823Y68435D01*
X9817Y68394D01*
X9813Y68351D01*
X9810Y68305D01*
X9810Y68256D01*
G37*
X9181Y67890D02*
X9182Y67879D01*
X9183Y67869D01*
X9185Y67862D01*
X9188Y67856D01*
X9191Y67852D01*
X9195Y67849D01*
X9200Y67848D01*
X9204Y67847D01*
X9630D01*
X9634Y67848D01*
X9638Y67849D01*
X9642Y67852D01*
X9646Y67856D01*
X9649Y67862D01*
X9651Y67869D01*
X9652Y67879D01*
X9653Y67890D01*
X9652Y67900D01*
X9651Y67909D01*
X9649Y67917D01*
X9646Y67923D01*
X9643Y67928D01*
X9639Y67931D01*
X9635Y67933D01*
X9630Y67934D01*
X9460D01*
Y68554D01*
X9617Y68461D01*
X9628Y68455D01*
X9637Y68453D01*
X9643D01*
X9648Y68456D01*
X9652Y68461D01*
X9654Y68469D01*
X9655Y68480D01*
X9656Y68493D01*
Y68503D01*
X9655Y68511D01*
X9654Y68518D01*
X9652Y68524D01*
X9650Y68529D01*
X9647Y68533D01*
X9643Y68537D01*
X9637Y68541D01*
X9450Y68661D01*
X9444Y68664D01*
X9439Y68665D01*
X9434Y68666D01*
X9427Y68667D01*
X9421Y68668D01*
X9412D01*
X9402D01*
X9388Y68667D01*
X9377Y68667D01*
X9368Y68665D01*
X9361Y68664D01*
X9356Y68661D01*
X9353Y68657D01*
X9352Y68654D01*
X9351Y68651D01*
Y67934D01*
X9204D01*
X9199Y67933D01*
X9194Y67931D01*
X9191Y67928D01*
X9188Y67923D01*
X9184Y67917D01*
X9183Y67909D01*
X9181Y67900D01*
Y67890D01*
G36*
X9181Y67890D02*
X9182Y67879D01*
X9183Y67869D01*
X9185Y67862D01*
X9188Y67856D01*
X9191Y67852D01*
X9195Y67849D01*
X9200Y67848D01*
X9204Y67847D01*
X9630D01*
X9634Y67848D01*
X9638Y67849D01*
X9642Y67852D01*
X9646Y67856D01*
X9649Y67862D01*
X9651Y67869D01*
X9652Y67879D01*
X9653Y67890D01*
X9652Y67900D01*
X9651Y67909D01*
X9649Y67917D01*
X9646Y67923D01*
X9643Y67928D01*
X9639Y67931D01*
X9635Y67933D01*
X9630Y67934D01*
X9460D01*
Y68554D01*
X9617Y68461D01*
X9628Y68455D01*
X9637Y68453D01*
X9643D01*
X9648Y68456D01*
X9652Y68461D01*
X9654Y68469D01*
X9655Y68480D01*
X9656Y68493D01*
Y68503D01*
X9655Y68511D01*
X9654Y68518D01*
X9652Y68524D01*
X9650Y68529D01*
X9647Y68533D01*
X9643Y68537D01*
X9637Y68541D01*
X9450Y68661D01*
X9444Y68664D01*
X9439Y68665D01*
X9434Y68666D01*
X9427Y68667D01*
X9421Y68668D01*
X9412D01*
X9402D01*
X9388Y68667D01*
X9377Y68667D01*
X9368Y68665D01*
X9361Y68664D01*
X9356Y68661D01*
X9353Y68657D01*
X9352Y68654D01*
X9351Y68651D01*
Y67934D01*
X9204D01*
X9199Y67933D01*
X9194Y67931D01*
X9191Y67928D01*
X9188Y67923D01*
X9184Y67917D01*
X9183Y67909D01*
X9181Y67900D01*
Y67890D01*
G37*
X8174Y68081D02*
X8175Y68062D01*
X8176Y68044D01*
X8179Y68026D01*
X8184Y68010D01*
X8189Y67994D01*
X8196Y67979D01*
X8203Y67965D01*
X8211Y67952D01*
X8220Y67939D01*
X8231Y67927D01*
X8242Y67916D01*
X8254Y67906D01*
X8266Y67897D01*
X8280Y67889D01*
X8295Y67880D01*
X8310Y67873D01*
X8326Y67867D01*
X8343Y67862D01*
X8359Y67857D01*
X8376Y67854D01*
X8395Y67851D01*
X8415Y67849D01*
X8436Y67847D01*
X8459D01*
X8672D01*
X8679Y67848D01*
X8685Y67849D01*
X8692Y67852D01*
X8699Y67857D01*
X8705Y67862D01*
X8709Y67870D01*
X8711Y67879D01*
X8712Y67891D01*
Y68618D01*
X8711Y68629D01*
X8709Y68639D01*
X8705Y68647D01*
X8699Y68652D01*
X8692Y68657D01*
X8685Y68660D01*
X8679Y68661D01*
X8672Y68662D01*
X8486D01*
X8468D01*
X8451Y68661D01*
X8435Y68660D01*
X8419Y68658D01*
X8405Y68657D01*
X8391Y68654D01*
X8378Y68651D01*
X8366Y68648D01*
X8344Y68641D01*
X8323Y68631D01*
X8305Y68621D01*
X8289Y68607D01*
X8273Y68594D01*
X8261Y68578D01*
X8250Y68561D01*
X8241Y68543D01*
X8234Y68523D01*
X8229Y68502D01*
X8226Y68480D01*
X8226Y68456D01*
X8226Y68441D01*
X8227Y68428D01*
X8229Y68414D01*
X8233Y68401D01*
X8236Y68388D01*
X8241Y68375D01*
X8246Y68363D01*
X8253Y68351D01*
X8260Y68341D01*
X8269Y68331D01*
X8277Y68321D01*
X8287Y68311D01*
X8298Y68303D01*
X8309Y68296D01*
X8321Y68289D01*
X8334Y68283D01*
X8318Y68279D01*
X8302Y68274D01*
X8286Y68268D01*
X8272Y68260D01*
X8258Y68251D01*
X8245Y68241D01*
X8233Y68230D01*
X8221Y68218D01*
X8211Y68204D01*
X8202Y68189D01*
X8193Y68174D01*
X8186Y68157D01*
X8181Y68139D01*
X8177Y68121D01*
X8175Y68101D01*
X8174Y68081D01*
X8337Y68445D02*
X8338Y68460D01*
X8339Y68474D01*
X8342Y68486D01*
X8346Y68498D01*
X8350Y68510D01*
X8356Y68521D01*
X8362Y68531D01*
X8371Y68539D01*
X8380Y68547D01*
X8392Y68554D01*
X8403Y68560D01*
X8417Y68564D01*
X8432Y68568D01*
X8450Y68571D01*
X8470Y68573D01*
X8492Y68574D01*
X8604D01*
Y68310D01*
X8481D01*
X8461Y68311D01*
X8442Y68312D01*
X8426Y68316D01*
X8412Y68321D01*
X8400Y68327D01*
X8389Y68334D01*
X8379Y68341D01*
X8370Y68351D01*
X8362Y68360D01*
X8355Y68371D01*
X8349Y68382D01*
X8345Y68394D01*
X8342Y68406D01*
X8339Y68419D01*
X8338Y68432D01*
X8337Y68445D01*
X8288Y68075D02*
X8289Y68092D01*
X8291Y68108D01*
X8294Y68124D01*
X8299Y68138D01*
X8306Y68151D01*
X8314Y68164D01*
X8323Y68175D01*
X8333Y68185D01*
X8346Y68194D01*
X8359Y68201D01*
X8373Y68208D01*
X8389Y68214D01*
X8408Y68218D01*
X8428Y68221D01*
X8450Y68223D01*
X8474Y68224D01*
X8604D01*
Y67936D01*
X8446D01*
X8429Y67937D01*
X8412Y67938D01*
X8396Y67941D01*
X8382Y67945D01*
X8368Y67950D01*
X8356Y67956D01*
X8344Y67963D01*
X8333Y67971D01*
X8323Y67980D01*
X8314Y67991D01*
X8306Y68002D01*
X8300Y68015D01*
X8295Y68028D01*
X8291Y68042D01*
X8289Y68058D01*
X8288Y68075D01*
X8174Y68080D02*
G36*
X8174Y68080D02*
X8175Y68062D01*
X8176Y68044D01*
X8179Y68026D01*
X8184Y68010D01*
X8189Y67994D01*
X8196Y67979D01*
X8203Y67965D01*
X8211Y67952D01*
X8220Y67939D01*
X8231Y67927D01*
X8242Y67916D01*
X8254Y67906D01*
X8266Y67897D01*
X8280Y67889D01*
X8295Y67880D01*
X8310Y67873D01*
X8326Y67867D01*
X8343Y67862D01*
X8359Y67857D01*
X8376Y67854D01*
X8395Y67851D01*
X8415Y67849D01*
X8436Y67847D01*
X8459D01*
X8672D01*
X8679Y67848D01*
X8685Y67849D01*
X8692Y67852D01*
X8699Y67857D01*
X8705Y67862D01*
X8709Y67870D01*
X8711Y67879D01*
X8712Y67891D01*
Y68080D01*
X8604D01*
Y67936D01*
X8446D01*
X8429Y67937D01*
X8412Y67938D01*
X8396Y67941D01*
X8382Y67945D01*
X8368Y67950D01*
X8356Y67956D01*
X8344Y67963D01*
X8333Y67971D01*
X8323Y67980D01*
X8314Y67991D01*
X8306Y68002D01*
X8300Y68015D01*
X8295Y68028D01*
X8291Y68042D01*
X8289Y68058D01*
X8288Y68075D01*
X8288Y68080D01*
X8174D01*
G37*
X8174Y68081D02*
G36*
X8174Y68081D02*
X8174Y68080D01*
X8288D01*
X8289Y68092D01*
X8291Y68108D01*
X8294Y68124D01*
X8299Y68138D01*
X8306Y68151D01*
X8314Y68164D01*
X8323Y68175D01*
X8333Y68185D01*
X8346Y68194D01*
X8359Y68201D01*
X8373Y68208D01*
X8389Y68214D01*
X8408Y68218D01*
X8428Y68221D01*
X8450Y68223D01*
X8474Y68224D01*
X8604D01*
Y68080D01*
X8712D01*
Y68442D01*
X8604D01*
Y68310D01*
X8481D01*
X8461Y68311D01*
X8442Y68312D01*
X8426Y68316D01*
X8412Y68321D01*
X8400Y68327D01*
X8389Y68334D01*
X8379Y68341D01*
X8370Y68351D01*
X8362Y68360D01*
X8355Y68371D01*
X8349Y68382D01*
X8345Y68394D01*
X8342Y68406D01*
X8339Y68419D01*
X8338Y68432D01*
X8337Y68442D01*
X8226D01*
X8226Y68441D01*
X8227Y68428D01*
X8229Y68414D01*
X8233Y68401D01*
X8236Y68388D01*
X8241Y68375D01*
X8246Y68363D01*
X8253Y68351D01*
X8260Y68341D01*
X8269Y68331D01*
X8277Y68321D01*
X8287Y68311D01*
X8298Y68303D01*
X8309Y68296D01*
X8321Y68289D01*
X8334Y68283D01*
X8318Y68279D01*
X8302Y68274D01*
X8286Y68268D01*
X8272Y68260D01*
X8258Y68251D01*
X8245Y68241D01*
X8233Y68230D01*
X8221Y68218D01*
X8211Y68204D01*
X8202Y68189D01*
X8193Y68174D01*
X8186Y68157D01*
X8181Y68139D01*
X8177Y68121D01*
X8175Y68101D01*
X8174Y68081D01*
G37*
X8226Y68456D02*
G36*
X8226Y68456D02*
X8226Y68442D01*
X8337D01*
X8337Y68445D01*
X8338Y68460D01*
X8339Y68474D01*
X8342Y68486D01*
X8346Y68498D01*
X8350Y68510D01*
X8356Y68521D01*
X8362Y68531D01*
X8371Y68539D01*
X8380Y68547D01*
X8392Y68554D01*
X8403Y68560D01*
X8417Y68564D01*
X8432Y68568D01*
X8450Y68571D01*
X8470Y68573D01*
X8492Y68574D01*
X8604D01*
Y68442D01*
X8712D01*
Y68618D01*
X8711Y68629D01*
X8709Y68639D01*
X8705Y68647D01*
X8699Y68652D01*
X8692Y68657D01*
X8685Y68660D01*
X8679Y68661D01*
X8672Y68662D01*
X8486D01*
X8468D01*
X8451Y68661D01*
X8435Y68660D01*
X8419Y68658D01*
X8405Y68657D01*
X8391Y68654D01*
X8378Y68651D01*
X8366Y68648D01*
X8344Y68641D01*
X8323Y68631D01*
X8305Y68621D01*
X8289Y68607D01*
X8273Y68594D01*
X8261Y68578D01*
X8250Y68561D01*
X8241Y68543D01*
X8234Y68523D01*
X8229Y68502D01*
X8226Y68480D01*
X8226Y68456D01*
G37*
X7534Y67890D02*
X7535Y67879D01*
X7536Y67869D01*
X7538Y67862D01*
X7541Y67856D01*
X7544Y67852D01*
X7548Y67849D01*
X7553Y67848D01*
X7557Y67847D01*
X7983D01*
X7987Y67848D01*
X7991Y67849D01*
X7995Y67852D01*
X7999Y67856D01*
X8002Y67862D01*
X8004Y67869D01*
X8005Y67879D01*
X8006Y67890D01*
X8005Y67900D01*
X8004Y67909D01*
X8002Y67917D01*
X7999Y67923D01*
X7996Y67928D01*
X7992Y67931D01*
X7988Y67933D01*
X7983Y67934D01*
X7813D01*
Y68554D01*
X7970Y68461D01*
X7981Y68455D01*
X7990Y68453D01*
X7996D01*
X8001Y68456D01*
X8005Y68461D01*
X8007Y68469D01*
X8008Y68480D01*
X8009Y68493D01*
Y68503D01*
X8008Y68511D01*
X8006Y68518D01*
X8005Y68524D01*
X8003Y68529D01*
X8000Y68533D01*
X7996Y68537D01*
X7990Y68541D01*
X7803Y68661D01*
X7797Y68664D01*
X7792Y68665D01*
X7787Y68666D01*
X7780Y68667D01*
X7773Y68668D01*
X7765D01*
X7755D01*
X7741Y68667D01*
X7730Y68667D01*
X7720Y68665D01*
X7714Y68664D01*
X7709Y68661D01*
X7706Y68657D01*
X7705Y68654D01*
X7704Y68651D01*
Y67934D01*
X7557D01*
X7552Y67933D01*
X7547Y67931D01*
X7544Y67928D01*
X7540Y67923D01*
X7537Y67917D01*
X7536Y67909D01*
X7534Y67900D01*
Y67890D01*
G36*
X7534Y67890D02*
X7535Y67879D01*
X7536Y67869D01*
X7538Y67862D01*
X7541Y67856D01*
X7544Y67852D01*
X7548Y67849D01*
X7553Y67848D01*
X7557Y67847D01*
X7983D01*
X7987Y67848D01*
X7991Y67849D01*
X7995Y67852D01*
X7999Y67856D01*
X8002Y67862D01*
X8004Y67869D01*
X8005Y67879D01*
X8006Y67890D01*
X8005Y67900D01*
X8004Y67909D01*
X8002Y67917D01*
X7999Y67923D01*
X7996Y67928D01*
X7992Y67931D01*
X7988Y67933D01*
X7983Y67934D01*
X7813D01*
Y68554D01*
X7970Y68461D01*
X7981Y68455D01*
X7990Y68453D01*
X7996D01*
X8001Y68456D01*
X8005Y68461D01*
X8007Y68469D01*
X8008Y68480D01*
X8009Y68493D01*
Y68503D01*
X8008Y68511D01*
X8006Y68518D01*
X8005Y68524D01*
X8003Y68529D01*
X8000Y68533D01*
X7996Y68537D01*
X7990Y68541D01*
X7803Y68661D01*
X7797Y68664D01*
X7792Y68665D01*
X7787Y68666D01*
X7780Y68667D01*
X7773Y68668D01*
X7765D01*
X7755D01*
X7741Y68667D01*
X7730Y68667D01*
X7720Y68665D01*
X7714Y68664D01*
X7709Y68661D01*
X7706Y68657D01*
X7705Y68654D01*
X7704Y68651D01*
Y67934D01*
X7557D01*
X7552Y67933D01*
X7547Y67931D01*
X7544Y67928D01*
X7540Y67923D01*
X7537Y67917D01*
X7536Y67909D01*
X7534Y67900D01*
Y67890D01*
G37*
X18047Y70143D02*
X18048Y70114D01*
X18051Y70087D01*
X18055Y70061D01*
X18062Y70037D01*
X18070Y70012D01*
X18079Y69990D01*
X18091Y69969D01*
X18102Y69949D01*
X18116Y69930D01*
X18132Y69912D01*
X18149Y69896D01*
X18167Y69881D01*
X18185Y69867D01*
X18206Y69854D01*
X18228Y69842D01*
X18251Y69831D01*
X18274Y69822D01*
X18300Y69814D01*
X18325Y69807D01*
X18350Y69802D01*
X18378Y69798D01*
X18408Y69794D01*
X18439Y69792D01*
X18474D01*
X18793D01*
X18804Y69793D01*
X18814Y69796D01*
X18824Y69800D01*
X18834Y69807D01*
X18843Y69815D01*
X18849Y69827D01*
X18852Y69840D01*
X18853Y69858D01*
Y70949D01*
X18852Y70965D01*
X18849Y70980D01*
X18843Y70992D01*
X18834Y71000D01*
X18824Y71007D01*
X18814Y71011D01*
X18804Y71014D01*
X18793Y71015D01*
X18515D01*
X18488D01*
X18462Y71014D01*
X18438Y71011D01*
X18415Y71009D01*
X18393Y71007D01*
X18372Y71003D01*
X18353Y70999D01*
X18335Y70994D01*
X18302Y70982D01*
X18271Y70969D01*
X18243Y70952D01*
X18219Y70933D01*
X18196Y70912D01*
X18177Y70889D01*
X18161Y70864D01*
X18147Y70836D01*
X18137Y70806D01*
X18130Y70775D01*
X18126Y70741D01*
X18124Y70706D01*
X18126Y70684D01*
X18127Y70663D01*
X18130Y70642D01*
X18135Y70623D01*
X18141Y70603D01*
X18147Y70584D01*
X18155Y70566D01*
X18166Y70549D01*
X18176Y70533D01*
X18189Y70518D01*
X18202Y70503D01*
X18217Y70489D01*
X18233Y70476D01*
X18249Y70466D01*
X18267Y70455D01*
X18287Y70446D01*
X18263Y70440D01*
X18239Y70432D01*
X18215Y70423D01*
X18194Y70411D01*
X18173Y70398D01*
X18153Y70383D01*
X18135Y70366D01*
X18117Y70348D01*
X18102Y70327D01*
X18089Y70305D01*
X18076Y70282D01*
X18066Y70257D01*
X18057Y70230D01*
X18052Y70203D01*
X18048Y70173D01*
X18047Y70143D01*
X18292Y70689D02*
X18293Y70711D01*
X18295Y70732D01*
X18299Y70751D01*
X18304Y70769D01*
X18311Y70786D01*
X18319Y70802D01*
X18330Y70817D01*
X18342Y70830D01*
X18356Y70842D01*
X18373Y70852D01*
X18391Y70861D01*
X18412Y70868D01*
X18435Y70874D01*
X18461Y70879D01*
X18491Y70881D01*
X18523Y70882D01*
X18692D01*
Y70486D01*
X18507D01*
X18477Y70488D01*
X18450Y70490D01*
X18425Y70496D01*
X18405Y70503D01*
X18386Y70512D01*
X18370Y70522D01*
X18354Y70534D01*
X18341Y70548D01*
X18329Y70561D01*
X18318Y70578D01*
X18310Y70595D01*
X18303Y70612D01*
X18299Y70631D01*
X18295Y70650D01*
X18293Y70670D01*
X18292Y70689D01*
X18218Y70133D02*
X18219Y70160D01*
X18222Y70184D01*
X18227Y70207D01*
X18235Y70229D01*
X18245Y70249D01*
X18257Y70267D01*
X18271Y70285D01*
X18286Y70300D01*
X18304Y70312D01*
X18324Y70324D01*
X18346Y70334D01*
X18370Y70342D01*
X18398Y70349D01*
X18428Y70354D01*
X18461Y70356D01*
X18497Y70357D01*
X18692D01*
Y69926D01*
X18455D01*
X18429Y69927D01*
X18403Y69929D01*
X18380Y69933D01*
X18358Y69939D01*
X18338Y69947D01*
X18319Y69956D01*
X18302Y69966D01*
X18286Y69978D01*
X18271Y69992D01*
X18257Y70008D01*
X18245Y70024D01*
X18236Y70043D01*
X18228Y70063D01*
X18222Y70085D01*
X18219Y70108D01*
X18218Y70133D01*
X18047Y70142D02*
G36*
X18047Y70142D02*
X18048Y70114D01*
X18051Y70087D01*
X18055Y70061D01*
X18062Y70037D01*
X18070Y70012D01*
X18079Y69990D01*
X18091Y69969D01*
X18102Y69949D01*
X18116Y69930D01*
X18132Y69912D01*
X18149Y69896D01*
X18167Y69881D01*
X18185Y69867D01*
X18206Y69854D01*
X18228Y69842D01*
X18251Y69831D01*
X18274Y69822D01*
X18300Y69814D01*
X18325Y69807D01*
X18350Y69802D01*
X18378Y69798D01*
X18408Y69794D01*
X18439Y69792D01*
X18474D01*
X18793D01*
X18804Y69793D01*
X18814Y69796D01*
X18824Y69800D01*
X18834Y69807D01*
X18843Y69815D01*
X18849Y69827D01*
X18852Y69840D01*
X18853Y69858D01*
Y70142D01*
X18692D01*
Y69926D01*
X18455D01*
X18429Y69927D01*
X18403Y69929D01*
X18380Y69933D01*
X18358Y69939D01*
X18338Y69947D01*
X18319Y69956D01*
X18302Y69966D01*
X18286Y69978D01*
X18271Y69992D01*
X18257Y70008D01*
X18245Y70024D01*
X18236Y70043D01*
X18228Y70063D01*
X18222Y70085D01*
X18219Y70108D01*
X18218Y70133D01*
X18218Y70142D01*
X18047D01*
G37*
X18047Y70143D02*
G36*
X18047Y70143D02*
X18047Y70142D01*
X18218D01*
X18219Y70160D01*
X18222Y70184D01*
X18227Y70207D01*
X18235Y70229D01*
X18245Y70249D01*
X18257Y70267D01*
X18271Y70285D01*
X18286Y70300D01*
X18304Y70312D01*
X18324Y70324D01*
X18346Y70334D01*
X18370Y70342D01*
X18398Y70349D01*
X18428Y70354D01*
X18461Y70356D01*
X18497Y70357D01*
X18692D01*
Y70142D01*
X18853D01*
Y70684D01*
X18692D01*
Y70486D01*
X18507D01*
X18477Y70488D01*
X18450Y70490D01*
X18425Y70496D01*
X18405Y70503D01*
X18386Y70512D01*
X18370Y70522D01*
X18354Y70534D01*
X18341Y70548D01*
X18329Y70561D01*
X18318Y70578D01*
X18310Y70595D01*
X18303Y70612D01*
X18299Y70631D01*
X18295Y70650D01*
X18293Y70670D01*
X18292Y70684D01*
X18125D01*
X18126Y70684D01*
X18127Y70663D01*
X18130Y70642D01*
X18135Y70623D01*
X18141Y70603D01*
X18147Y70584D01*
X18155Y70566D01*
X18166Y70549D01*
X18176Y70533D01*
X18189Y70518D01*
X18202Y70503D01*
X18217Y70489D01*
X18233Y70476D01*
X18249Y70466D01*
X18267Y70455D01*
X18287Y70446D01*
X18263Y70440D01*
X18239Y70432D01*
X18215Y70423D01*
X18194Y70411D01*
X18173Y70398D01*
X18153Y70383D01*
X18135Y70366D01*
X18117Y70348D01*
X18102Y70327D01*
X18089Y70305D01*
X18076Y70282D01*
X18066Y70257D01*
X18057Y70230D01*
X18052Y70203D01*
X18048Y70173D01*
X18047Y70143D01*
G37*
X18124Y70706D02*
G36*
X18124Y70706D02*
X18125Y70684D01*
X18292D01*
X18292Y70689D01*
X18293Y70711D01*
X18295Y70732D01*
X18299Y70751D01*
X18304Y70769D01*
X18311Y70786D01*
X18319Y70802D01*
X18330Y70817D01*
X18342Y70830D01*
X18356Y70842D01*
X18373Y70852D01*
X18391Y70861D01*
X18412Y70868D01*
X18435Y70874D01*
X18461Y70879D01*
X18491Y70881D01*
X18523Y70882D01*
X18692D01*
Y70684D01*
X18853D01*
Y70949D01*
X18852Y70965D01*
X18849Y70980D01*
X18843Y70992D01*
X18834Y71000D01*
X18824Y71007D01*
X18814Y71011D01*
X18804Y71014D01*
X18793Y71015D01*
X18515D01*
X18488D01*
X18462Y71014D01*
X18438Y71011D01*
X18415Y71009D01*
X18393Y71007D01*
X18372Y71003D01*
X18353Y70999D01*
X18335Y70994D01*
X18302Y70982D01*
X18271Y70969D01*
X18243Y70952D01*
X18219Y70933D01*
X18196Y70912D01*
X18177Y70889D01*
X18161Y70864D01*
X18147Y70836D01*
X18137Y70806D01*
X18130Y70775D01*
X18126Y70741D01*
X18124Y70706D01*
G37*
X16776Y70417D02*
X16778Y70345D01*
X16785Y70276D01*
X16796Y70211D01*
X16811Y70150D01*
X16830Y70092D01*
X16854Y70040D01*
X16883Y69992D01*
X16916Y69947D01*
X16933Y69927D01*
X16952Y69907D01*
X16972Y69890D01*
X16994Y69873D01*
X17016Y69858D01*
X17039Y69843D01*
X17064Y69830D01*
X17090Y69819D01*
X17116Y69808D01*
X17144Y69799D01*
X17173Y69791D01*
X17204Y69785D01*
X17235Y69779D01*
X17266Y69776D01*
X17300Y69775D01*
X17334Y69774D01*
X17369Y69775D01*
X17401Y69776D01*
X17432Y69779D01*
X17463Y69784D01*
X17492Y69790D01*
X17520Y69797D01*
X17548Y69805D01*
X17573Y69815D01*
X17597Y69825D01*
X17621Y69837D01*
X17643Y69851D01*
X17665Y69865D01*
X17685Y69881D01*
X17705Y69897D01*
X17723Y69915D01*
X17739Y69934D01*
X17755Y69955D01*
X17770Y69975D01*
X17784Y69999D01*
X17797Y70022D01*
X17808Y70047D01*
X17819Y70073D01*
X17829Y70100D01*
X17837Y70129D01*
X17851Y70189D01*
X17861Y70255D01*
X17867Y70323D01*
X17869Y70396D01*
X17867Y70467D01*
X17860Y70535D01*
X17850Y70598D01*
X17835Y70659D01*
X17815Y70716D01*
X17791Y70769D01*
X17762Y70816D01*
X17730Y70860D01*
X17711Y70881D01*
X17693Y70899D01*
X17672Y70917D01*
X17651Y70934D01*
X17628Y70949D01*
X17605Y70963D01*
X17580Y70977D01*
X17555Y70988D01*
X17528Y70999D01*
X17500Y71008D01*
X17472Y71016D01*
X17442Y71022D01*
X17410Y71026D01*
X17378Y71030D01*
X17345Y71032D01*
X17310Y71033D01*
X17277Y71032D01*
X17244Y71031D01*
X17213Y71027D01*
X17183Y71023D01*
X17154Y71017D01*
X17127Y71010D01*
X17100Y71002D01*
X17075Y70993D01*
X17051Y70981D01*
X17026Y70970D01*
X17004Y70957D01*
X16982Y70942D01*
X16963Y70927D01*
X16943Y70911D01*
X16925Y70892D01*
X16907Y70874D01*
X16876Y70832D01*
X16850Y70786D01*
X16827Y70736D01*
X16808Y70681D01*
X16794Y70621D01*
X16784Y70558D01*
X16778Y70490D01*
X16776Y70417D01*
X16948Y70407D02*
X16949Y70458D01*
X16952Y70507D01*
X16958Y70554D01*
X16966Y70599D01*
X16977Y70643D01*
X16991Y70684D01*
X17008Y70721D01*
X17027Y70755D01*
X17051Y70786D01*
X17078Y70814D01*
X17108Y70837D01*
X17143Y70858D01*
X17181Y70874D01*
X17222Y70885D01*
X17270Y70892D01*
X17320Y70895D01*
X17346Y70894D01*
X17371Y70892D01*
X17394Y70889D01*
X17417Y70884D01*
X17439Y70879D01*
X17459Y70873D01*
X17478Y70865D01*
X17497Y70854D01*
X17531Y70834D01*
X17563Y70808D01*
X17590Y70781D01*
X17615Y70749D01*
X17635Y70715D01*
X17653Y70677D01*
X17666Y70638D01*
X17678Y70594D01*
X17687Y70550D01*
X17693Y70504D01*
X17696Y70456D01*
X17698Y70408D01*
X17696Y70355D01*
X17693Y70304D01*
X17687Y70256D01*
X17679Y70210D01*
X17669Y70166D01*
X17656Y70125D01*
X17639Y70087D01*
X17619Y70053D01*
X17596Y70022D01*
X17570Y69994D01*
X17540Y69971D01*
X17505Y69950D01*
X17468Y69935D01*
X17425Y69924D01*
X17378Y69917D01*
X17326Y69914D01*
X17301D01*
X17275Y69917D01*
X17251Y69920D01*
X17228Y69925D01*
X17206Y69929D01*
X17185Y69936D01*
X17166Y69944D01*
X17147Y69954D01*
X17113Y69975D01*
X17082Y70001D01*
X17054Y70030D01*
X17030Y70061D01*
X17009Y70097D01*
X16992Y70135D01*
X16978Y70175D01*
X16966Y70218D01*
X16958Y70263D01*
X16952Y70310D01*
X16949Y70357D01*
X16948Y70407D01*
X16776Y70405D02*
G36*
X16776Y70405D02*
X16778Y70345D01*
X16785Y70276D01*
X16796Y70211D01*
X16811Y70150D01*
X16830Y70092D01*
X16854Y70040D01*
X16883Y69992D01*
X16916Y69947D01*
X16933Y69927D01*
X16952Y69907D01*
X16972Y69890D01*
X16994Y69873D01*
X17016Y69858D01*
X17039Y69843D01*
X17064Y69830D01*
X17090Y69819D01*
X17116Y69808D01*
X17144Y69799D01*
X17173Y69791D01*
X17204Y69785D01*
X17235Y69779D01*
X17266Y69776D01*
X17300Y69775D01*
X17334Y69774D01*
X17369Y69775D01*
X17401Y69776D01*
X17432Y69779D01*
X17463Y69784D01*
X17492Y69790D01*
X17520Y69797D01*
X17548Y69805D01*
X17573Y69815D01*
X17597Y69825D01*
X17621Y69837D01*
X17643Y69851D01*
X17665Y69865D01*
X17685Y69881D01*
X17705Y69897D01*
X17723Y69915D01*
X17739Y69934D01*
X17755Y69955D01*
X17770Y69975D01*
X17784Y69999D01*
X17797Y70022D01*
X17808Y70047D01*
X17819Y70073D01*
X17829Y70100D01*
X17837Y70129D01*
X17851Y70189D01*
X17861Y70255D01*
X17867Y70323D01*
X17869Y70396D01*
X17869Y70405D01*
X17698D01*
X17696Y70355D01*
X17693Y70304D01*
X17687Y70256D01*
X17679Y70210D01*
X17669Y70166D01*
X17656Y70125D01*
X17639Y70087D01*
X17619Y70053D01*
X17596Y70022D01*
X17570Y69994D01*
X17540Y69971D01*
X17505Y69950D01*
X17468Y69935D01*
X17425Y69924D01*
X17378Y69917D01*
X17326Y69914D01*
X17301D01*
X17275Y69917D01*
X17251Y69920D01*
X17228Y69925D01*
X17206Y69929D01*
X17185Y69936D01*
X17166Y69944D01*
X17147Y69954D01*
X17113Y69975D01*
X17082Y70001D01*
X17054Y70030D01*
X17030Y70061D01*
X17009Y70097D01*
X16992Y70135D01*
X16978Y70175D01*
X16966Y70218D01*
X16958Y70263D01*
X16952Y70310D01*
X16949Y70357D01*
X16948Y70405D01*
X16776D01*
G37*
X16776Y70417D02*
G36*
X16776Y70417D02*
X16776Y70405D01*
X16948D01*
X16948Y70407D01*
X16949Y70458D01*
X16952Y70507D01*
X16958Y70554D01*
X16966Y70599D01*
X16977Y70643D01*
X16991Y70684D01*
X17008Y70721D01*
X17027Y70755D01*
X17051Y70786D01*
X17078Y70814D01*
X17108Y70837D01*
X17143Y70858D01*
X17181Y70874D01*
X17222Y70885D01*
X17270Y70892D01*
X17320Y70895D01*
X17346Y70894D01*
X17371Y70892D01*
X17394Y70889D01*
X17417Y70884D01*
X17439Y70879D01*
X17459Y70873D01*
X17478Y70865D01*
X17497Y70854D01*
X17531Y70834D01*
X17563Y70808D01*
X17590Y70781D01*
X17615Y70749D01*
X17635Y70715D01*
X17653Y70677D01*
X17666Y70638D01*
X17678Y70594D01*
X17687Y70550D01*
X17693Y70504D01*
X17696Y70456D01*
X17698Y70408D01*
X17698Y70405D01*
X17869D01*
X17867Y70467D01*
X17860Y70535D01*
X17850Y70598D01*
X17835Y70659D01*
X17815Y70716D01*
X17791Y70769D01*
X17762Y70816D01*
X17730Y70860D01*
X17711Y70881D01*
X17693Y70899D01*
X17672Y70917D01*
X17651Y70934D01*
X17628Y70949D01*
X17605Y70963D01*
X17580Y70977D01*
X17555Y70988D01*
X17528Y70999D01*
X17500Y71008D01*
X17472Y71016D01*
X17442Y71022D01*
X17410Y71026D01*
X17378Y71030D01*
X17345Y71032D01*
X17310Y71033D01*
X17277Y71032D01*
X17244Y71031D01*
X17213Y71027D01*
X17183Y71023D01*
X17154Y71017D01*
X17127Y71010D01*
X17100Y71002D01*
X17075Y70993D01*
X17051Y70981D01*
X17026Y70970D01*
X17004Y70957D01*
X16982Y70942D01*
X16963Y70927D01*
X16943Y70911D01*
X16925Y70892D01*
X16907Y70874D01*
X16876Y70832D01*
X16850Y70786D01*
X16827Y70736D01*
X16808Y70681D01*
X16794Y70621D01*
X16784Y70558D01*
X16778Y70490D01*
X16776Y70417D01*
G37*
X15753Y70944D02*
Y70927D01*
X15755Y70913D01*
X15758Y70902D01*
X15761Y70891D01*
X15766Y70884D01*
X15771Y70880D01*
X15778Y70877D01*
X15785Y70876D01*
X16129D01*
Y69816D01*
X16130Y69809D01*
X16132Y69804D01*
X16138Y69798D01*
X16146Y69794D01*
X16157Y69791D01*
X16170Y69789D01*
X16189Y69786D01*
X16210D01*
X16232D01*
X16249Y69789D01*
X16264Y69791D01*
X16274Y69794D01*
X16282Y69798D01*
X16288Y69804D01*
X16290Y69809D01*
X16292Y69816D01*
Y70876D01*
X16635D01*
X16642Y70877D01*
X16649Y70880D01*
X16655Y70884D01*
X16660Y70891D01*
X16663Y70902D01*
X16665Y70913D01*
X16666Y70927D01*
X16668Y70944D01*
X16666Y70962D01*
X16665Y70977D01*
X16663Y70988D01*
X16660Y70999D01*
X16655Y71005D01*
X16649Y71011D01*
X16642Y71014D01*
X16635Y71015D01*
X15785D01*
X15778Y71014D01*
X15771Y71011D01*
X15766Y71005D01*
X15761Y70999D01*
X15758Y70988D01*
X15755Y70977D01*
X15753Y70962D01*
Y70944D01*
G36*
X15753Y70944D02*
Y70927D01*
X15755Y70913D01*
X15758Y70902D01*
X15761Y70891D01*
X15766Y70884D01*
X15771Y70880D01*
X15778Y70877D01*
X15785Y70876D01*
X16129D01*
Y69816D01*
X16130Y69809D01*
X16132Y69804D01*
X16138Y69798D01*
X16146Y69794D01*
X16157Y69791D01*
X16170Y69789D01*
X16189Y69786D01*
X16210D01*
X16232D01*
X16249Y69789D01*
X16264Y69791D01*
X16274Y69794D01*
X16282Y69798D01*
X16288Y69804D01*
X16290Y69809D01*
X16292Y69816D01*
Y70876D01*
X16635D01*
X16642Y70877D01*
X16649Y70880D01*
X16655Y70884D01*
X16660Y70891D01*
X16663Y70902D01*
X16665Y70913D01*
X16666Y70927D01*
X16668Y70944D01*
X16666Y70962D01*
X16665Y70977D01*
X16663Y70988D01*
X16660Y70999D01*
X16655Y71005D01*
X16649Y71011D01*
X16642Y71014D01*
X16635Y71015D01*
X15785D01*
X15778Y71014D01*
X15771Y71011D01*
X15766Y71005D01*
X15761Y70999D01*
X15758Y70988D01*
X15755Y70977D01*
X15753Y70962D01*
Y70944D01*
G37*
X14809D02*
Y70927D01*
X14812Y70913D01*
X14814Y70902D01*
X14817Y70891D01*
X14822Y70884D01*
X14828Y70880D01*
X14835Y70877D01*
X14842Y70876D01*
X15185D01*
Y69816D01*
X15187Y69809D01*
X15189Y69804D01*
X15195Y69798D01*
X15203Y69794D01*
X15213Y69791D01*
X15227Y69789D01*
X15245Y69786D01*
X15266D01*
X15288D01*
X15305Y69789D01*
X15320Y69791D01*
X15331Y69794D01*
X15339Y69798D01*
X15345Y69804D01*
X15347Y69809D01*
X15348Y69816D01*
Y70876D01*
X15692D01*
X15699Y70877D01*
X15706Y70880D01*
X15711Y70884D01*
X15716Y70891D01*
X15719Y70902D01*
X15722Y70913D01*
X15723Y70927D01*
X15724Y70944D01*
X15723Y70962D01*
X15722Y70977D01*
X15719Y70988D01*
X15716Y70999D01*
X15711Y71005D01*
X15706Y71011D01*
X15699Y71014D01*
X15692Y71015D01*
X14842D01*
X14835Y71014D01*
X14828Y71011D01*
X14822Y71005D01*
X14817Y70999D01*
X14814Y70988D01*
X14812Y70977D01*
X14809Y70962D01*
Y70944D01*
G36*
X14809Y70944D02*
Y70927D01*
X14812Y70913D01*
X14814Y70902D01*
X14817Y70891D01*
X14822Y70884D01*
X14828Y70880D01*
X14835Y70877D01*
X14842Y70876D01*
X15185D01*
Y69816D01*
X15187Y69809D01*
X15189Y69804D01*
X15195Y69798D01*
X15203Y69794D01*
X15213Y69791D01*
X15227Y69789D01*
X15245Y69786D01*
X15266D01*
X15288D01*
X15305Y69789D01*
X15320Y69791D01*
X15331Y69794D01*
X15339Y69798D01*
X15345Y69804D01*
X15347Y69809D01*
X15348Y69816D01*
Y70876D01*
X15692D01*
X15699Y70877D01*
X15706Y70880D01*
X15711Y70884D01*
X15716Y70891D01*
X15719Y70902D01*
X15722Y70913D01*
X15723Y70927D01*
X15724Y70944D01*
X15723Y70962D01*
X15722Y70977D01*
X15719Y70988D01*
X15716Y70999D01*
X15711Y71005D01*
X15706Y71011D01*
X15699Y71014D01*
X15692Y71015D01*
X14842D01*
X14835Y71014D01*
X14828Y71011D01*
X14822Y71005D01*
X14817Y70999D01*
X14814Y70988D01*
X14812Y70977D01*
X14809Y70962D01*
Y70944D01*
G37*
X13608Y70417D02*
X13610Y70345D01*
X13617Y70276D01*
X13627Y70211D01*
X13642Y70150D01*
X13662Y70092D01*
X13686Y70040D01*
X13715Y69992D01*
X13747Y69947D01*
X13764Y69927D01*
X13784Y69907D01*
X13804Y69890D01*
X13826Y69873D01*
X13847Y69858D01*
X13871Y69843D01*
X13896Y69830D01*
X13921Y69819D01*
X13948Y69808D01*
X13976Y69799D01*
X14004Y69791D01*
X14035Y69785D01*
X14067Y69779D01*
X14098Y69776D01*
X14131Y69775D01*
X14166Y69774D01*
X14200Y69775D01*
X14233Y69776D01*
X14264Y69779D01*
X14295Y69784D01*
X14324Y69790D01*
X14352Y69797D01*
X14379Y69805D01*
X14405Y69815D01*
X14429Y69825D01*
X14453Y69837D01*
X14475Y69851D01*
X14497Y69865D01*
X14516Y69881D01*
X14536Y69897D01*
X14555Y69915D01*
X14571Y69934D01*
X14587Y69955D01*
X14602Y69975D01*
X14616Y69999D01*
X14628Y70022D01*
X14640Y70047D01*
X14650Y70073D01*
X14661Y70100D01*
X14669Y70129D01*
X14683Y70189D01*
X14693Y70255D01*
X14699Y70323D01*
X14701Y70396D01*
X14699Y70467D01*
X14692Y70535D01*
X14681Y70598D01*
X14666Y70659D01*
X14647Y70716D01*
X14623Y70769D01*
X14594Y70816D01*
X14561Y70860D01*
X14543Y70881D01*
X14525Y70899D01*
X14504Y70917D01*
X14483Y70934D01*
X14460Y70949D01*
X14437Y70963D01*
X14411Y70977D01*
X14386Y70988D01*
X14360Y70999D01*
X14332Y71008D01*
X14303Y71016D01*
X14273Y71022D01*
X14242Y71026D01*
X14210Y71030D01*
X14176Y71032D01*
X14142Y71033D01*
X14108Y71032D01*
X14076Y71031D01*
X14045Y71027D01*
X14015Y71023D01*
X13986Y71017D01*
X13958Y71010D01*
X13932Y71002D01*
X13906Y70993D01*
X13882Y70981D01*
X13858Y70970D01*
X13836Y70957D01*
X13814Y70942D01*
X13794Y70927D01*
X13775Y70911D01*
X13756Y70892D01*
X13739Y70874D01*
X13708Y70832D01*
X13681Y70786D01*
X13658Y70736D01*
X13640Y70681D01*
X13626Y70621D01*
X13616Y70558D01*
X13610Y70490D01*
X13608Y70417D01*
X13779Y70407D02*
X13781Y70458D01*
X13784Y70507D01*
X13790Y70554D01*
X13798Y70599D01*
X13808Y70643D01*
X13822Y70684D01*
X13839Y70721D01*
X13859Y70755D01*
X13882Y70786D01*
X13910Y70814D01*
X13940Y70837D01*
X13974Y70858D01*
X14012Y70874D01*
X14054Y70885D01*
X14101Y70892D01*
X14152Y70895D01*
X14177Y70894D01*
X14203Y70892D01*
X14226Y70889D01*
X14249Y70884D01*
X14271Y70879D01*
X14290Y70873D01*
X14310Y70865D01*
X14328Y70854D01*
X14363Y70834D01*
X14394Y70808D01*
X14422Y70781D01*
X14446Y70749D01*
X14467Y70715D01*
X14484Y70677D01*
X14498Y70638D01*
X14510Y70594D01*
X14519Y70550D01*
X14525Y70504D01*
X14528Y70456D01*
X14529Y70408D01*
X14528Y70355D01*
X14525Y70304D01*
X14519Y70256D01*
X14511Y70210D01*
X14500Y70166D01*
X14488Y70125D01*
X14470Y70087D01*
X14451Y70053D01*
X14428Y70022D01*
X14401Y69994D01*
X14371Y69971D01*
X14337Y69950D01*
X14300Y69935D01*
X14257Y69924D01*
X14210Y69917D01*
X14158Y69914D01*
X14132D01*
X14107Y69917D01*
X14083Y69920D01*
X14060Y69925D01*
X14038Y69929D01*
X14017Y69936D01*
X13997Y69944D01*
X13979Y69954D01*
X13944Y69975D01*
X13913Y70001D01*
X13886Y70030D01*
X13861Y70061D01*
X13841Y70097D01*
X13823Y70135D01*
X13809Y70175D01*
X13798Y70218D01*
X13790Y70263D01*
X13784Y70310D01*
X13781Y70357D01*
X13779Y70407D01*
X13608Y70405D02*
G36*
X13608Y70405D02*
X13610Y70345D01*
X13617Y70276D01*
X13627Y70211D01*
X13642Y70150D01*
X13662Y70092D01*
X13686Y70040D01*
X13715Y69992D01*
X13747Y69947D01*
X13764Y69927D01*
X13784Y69907D01*
X13804Y69890D01*
X13826Y69873D01*
X13847Y69858D01*
X13871Y69843D01*
X13896Y69830D01*
X13921Y69819D01*
X13948Y69808D01*
X13976Y69799D01*
X14004Y69791D01*
X14035Y69785D01*
X14067Y69779D01*
X14098Y69776D01*
X14131Y69775D01*
X14166Y69774D01*
X14200Y69775D01*
X14233Y69776D01*
X14264Y69779D01*
X14295Y69784D01*
X14324Y69790D01*
X14352Y69797D01*
X14379Y69805D01*
X14405Y69815D01*
X14429Y69825D01*
X14453Y69837D01*
X14475Y69851D01*
X14497Y69865D01*
X14516Y69881D01*
X14536Y69897D01*
X14555Y69915D01*
X14571Y69934D01*
X14587Y69955D01*
X14602Y69975D01*
X14616Y69999D01*
X14628Y70022D01*
X14640Y70047D01*
X14650Y70073D01*
X14661Y70100D01*
X14669Y70129D01*
X14683Y70189D01*
X14693Y70255D01*
X14699Y70323D01*
X14701Y70396D01*
X14701Y70405D01*
X14529D01*
X14528Y70355D01*
X14525Y70304D01*
X14519Y70256D01*
X14511Y70210D01*
X14500Y70166D01*
X14488Y70125D01*
X14470Y70087D01*
X14451Y70053D01*
X14428Y70022D01*
X14401Y69994D01*
X14371Y69971D01*
X14337Y69950D01*
X14300Y69935D01*
X14257Y69924D01*
X14210Y69917D01*
X14158Y69914D01*
X14132D01*
X14107Y69917D01*
X14083Y69920D01*
X14060Y69925D01*
X14038Y69929D01*
X14017Y69936D01*
X13997Y69944D01*
X13979Y69954D01*
X13944Y69975D01*
X13913Y70001D01*
X13886Y70030D01*
X13861Y70061D01*
X13841Y70097D01*
X13823Y70135D01*
X13809Y70175D01*
X13798Y70218D01*
X13790Y70263D01*
X13784Y70310D01*
X13781Y70357D01*
X13779Y70405D01*
X13608D01*
G37*
X13608Y70417D02*
G36*
X13608Y70417D02*
X13608Y70405D01*
X13779D01*
X13779Y70407D01*
X13781Y70458D01*
X13784Y70507D01*
X13790Y70554D01*
X13798Y70599D01*
X13808Y70643D01*
X13822Y70684D01*
X13839Y70721D01*
X13859Y70755D01*
X13882Y70786D01*
X13910Y70814D01*
X13940Y70837D01*
X13974Y70858D01*
X14012Y70874D01*
X14054Y70885D01*
X14101Y70892D01*
X14152Y70895D01*
X14177Y70894D01*
X14203Y70892D01*
X14226Y70889D01*
X14249Y70884D01*
X14271Y70879D01*
X14290Y70873D01*
X14310Y70865D01*
X14328Y70854D01*
X14363Y70834D01*
X14394Y70808D01*
X14422Y70781D01*
X14446Y70749D01*
X14467Y70715D01*
X14484Y70677D01*
X14498Y70638D01*
X14510Y70594D01*
X14519Y70550D01*
X14525Y70504D01*
X14528Y70456D01*
X14529Y70408D01*
X14529Y70405D01*
X14701D01*
X14699Y70467D01*
X14692Y70535D01*
X14681Y70598D01*
X14666Y70659D01*
X14647Y70716D01*
X14623Y70769D01*
X14594Y70816D01*
X14561Y70860D01*
X14543Y70881D01*
X14525Y70899D01*
X14504Y70917D01*
X14483Y70934D01*
X14460Y70949D01*
X14437Y70963D01*
X14411Y70977D01*
X14386Y70988D01*
X14360Y70999D01*
X14332Y71008D01*
X14303Y71016D01*
X14273Y71022D01*
X14242Y71026D01*
X14210Y71030D01*
X14176Y71032D01*
X14142Y71033D01*
X14108Y71032D01*
X14076Y71031D01*
X14045Y71027D01*
X14015Y71023D01*
X13986Y71017D01*
X13958Y71010D01*
X13932Y71002D01*
X13906Y70993D01*
X13882Y70981D01*
X13858Y70970D01*
X13836Y70957D01*
X13814Y70942D01*
X13794Y70927D01*
X13775Y70911D01*
X13756Y70892D01*
X13739Y70874D01*
X13708Y70832D01*
X13681Y70786D01*
X13658Y70736D01*
X13640Y70681D01*
X13626Y70621D01*
X13616Y70558D01*
X13610Y70490D01*
X13608Y70417D01*
G37*
X12020Y69816D02*
X12022Y69809D01*
X12024Y69804D01*
X12030Y69798D01*
X12038Y69794D01*
X12049Y69791D01*
X12063Y69789D01*
X12071Y69787D01*
X12080Y69786D01*
X12091D01*
X12102D01*
X12123D01*
X12140Y69789D01*
X12155Y69791D01*
X12166Y69794D01*
X12174Y69798D01*
X12180Y69804D01*
X12182Y69809D01*
X12183Y69816D01*
Y70881D01*
X12185D01*
X12616Y69812D01*
X12619Y69806D01*
X12624Y69800D01*
X12631Y69796D01*
X12639Y69792D01*
X12650Y69790D01*
X12663Y69787D01*
X12678Y69786D01*
X12695D01*
X12714D01*
X12729Y69789D01*
X12742Y69791D01*
X12753Y69793D01*
X12761Y69797D01*
X12768Y69801D01*
X12771Y69806D01*
X12775Y69812D01*
X13187Y70881D01*
X13188D01*
Y69816D01*
X13189Y69809D01*
X13191Y69804D01*
X13197Y69798D01*
X13205Y69794D01*
X13217Y69791D01*
X13230Y69789D01*
X13249Y69786D01*
X13271D01*
X13292D01*
X13310Y69789D01*
X13324Y69791D01*
X13334Y69794D01*
X13342Y69798D01*
X13347Y69804D01*
X13349Y69809D01*
X13350Y69816D01*
Y70941D01*
X13349Y70959D01*
X13345Y70974D01*
X13339Y70988D01*
X13330Y70997D01*
X13318Y71005D01*
X13307Y71010D01*
X13295Y71014D01*
X13282Y71015D01*
X13182D01*
X13153Y71014D01*
X13129Y71009D01*
X13107Y71002D01*
X13089Y70990D01*
X13072Y70977D01*
X13060Y70959D01*
X13048Y70940D01*
X13039Y70915D01*
X12689Y70030D01*
X12685D01*
X12321Y70912D01*
X12310Y70939D01*
X12298Y70960D01*
X12285Y70979D01*
X12271Y70993D01*
X12255Y71002D01*
X12237Y71009D01*
X12218Y71014D01*
X12196Y71015D01*
X12091D01*
X12077Y71014D01*
X12063Y71010D01*
X12052Y71004D01*
X12041Y70997D01*
X12033Y70987D01*
X12026Y70974D01*
X12022Y70959D01*
X12020Y70941D01*
Y69816D01*
G36*
X12020Y69816D02*
X12022Y69809D01*
X12024Y69804D01*
X12030Y69798D01*
X12038Y69794D01*
X12049Y69791D01*
X12063Y69789D01*
X12071Y69787D01*
X12080Y69786D01*
X12091D01*
X12102D01*
X12123D01*
X12140Y69789D01*
X12155Y69791D01*
X12166Y69794D01*
X12174Y69798D01*
X12180Y69804D01*
X12182Y69809D01*
X12183Y69816D01*
Y70881D01*
X12185D01*
X12616Y69812D01*
X12619Y69806D01*
X12624Y69800D01*
X12631Y69796D01*
X12639Y69792D01*
X12650Y69790D01*
X12663Y69787D01*
X12678Y69786D01*
X12695D01*
X12714D01*
X12729Y69789D01*
X12742Y69791D01*
X12753Y69793D01*
X12761Y69797D01*
X12768Y69801D01*
X12771Y69806D01*
X12775Y69812D01*
X13187Y70881D01*
X13188D01*
Y69816D01*
X13189Y69809D01*
X13191Y69804D01*
X13197Y69798D01*
X13205Y69794D01*
X13217Y69791D01*
X13230Y69789D01*
X13249Y69786D01*
X13271D01*
X13292D01*
X13310Y69789D01*
X13324Y69791D01*
X13334Y69794D01*
X13342Y69798D01*
X13347Y69804D01*
X13349Y69809D01*
X13350Y69816D01*
Y70941D01*
X13349Y70959D01*
X13345Y70974D01*
X13339Y70988D01*
X13330Y70997D01*
X13318Y71005D01*
X13307Y71010D01*
X13295Y71014D01*
X13282Y71015D01*
X13182D01*
X13153Y71014D01*
X13129Y71009D01*
X13107Y71002D01*
X13089Y70990D01*
X13072Y70977D01*
X13060Y70959D01*
X13048Y70940D01*
X13039Y70915D01*
X12689Y70030D01*
X12685D01*
X12321Y70912D01*
X12310Y70939D01*
X12298Y70960D01*
X12285Y70979D01*
X12271Y70993D01*
X12255Y71002D01*
X12237Y71009D01*
X12218Y71014D01*
X12196Y71015D01*
X12091D01*
X12077Y71014D01*
X12063Y71010D01*
X12052Y71004D01*
X12041Y70997D01*
X12033Y70987D01*
X12026Y70974D01*
X12022Y70959D01*
X12020Y70941D01*
Y69816D01*
G37*
D02*
D137*
X49939Y12689D02*
X49938D01*
Y13689D01*
X49939D01*
X53248Y36949D02*
Y37855D02*
X56201D01*
X53248D02*
X56201D01*
X53248Y40492D02*
Y41398D02*
X56201D01*
X53248D02*
X56201D01*
Y36949D02*
X53248D01*
X56201D02*
X53248D01*
X56201Y37855D02*
Y40492D02*
X53248D01*
X56201D02*
X53248D01*
X56201Y41398D02*
X57148Y12689D02*
X57149D01*
Y13689D01*
X57148D01*
X57835Y37402D02*
G75*
G03*
X57874I20J0D01*
G01*
X57835Y40945D02*
G75*
G03*
X57874I20J0D01*
G01*
Y37402D02*
G75*
G02*
X57835I-19J0D01*
G01*
X57874D02*
G75*
G03*
X57835I-19J0D01*
G01*
X57874D02*
Y40945D02*
G75*
G02*
X57835I-19J0D01*
G01*
X57874D02*
G75*
G03*
X57835I-19J0D01*
G01*
X57874D02*
X74114Y27894D02*
Y28799D02*
X77067D01*
X74114D02*
X77067D01*
X74114Y31437D02*
Y32343D02*
X77067D01*
X74114D02*
X77067D01*
X76870Y56240D02*
Y57146D02*
X79823D01*
X76870D02*
X79823D01*
X76870Y59784D02*
Y60689D02*
X79823D01*
X76870D02*
X79823D01*
X76870Y63327D02*
Y64232D02*
X79823D01*
X76870D02*
X79823D01*
X77067Y27894D02*
X74114D01*
X77067D02*
X74114D01*
X77067Y28799D02*
Y31437D02*
X74114D01*
X77067D02*
X74114D01*
X77067Y32343D02*
X78701Y28347D02*
G75*
G03*
X78740I20J0D01*
G01*
X78701Y31890D02*
G75*
G03*
X78740I20J0D01*
G01*
Y28347D02*
G75*
G02*
X78701I-19J0D01*
G01*
X78740D02*
G75*
G03*
X78701I-19J0D01*
G01*
X78740D02*
Y31890D02*
G75*
G02*
X78701I-19J0D01*
G01*
X78740D02*
G75*
G03*
X78701I-19J0D01*
G01*
X78740D02*
X79823Y56240D02*
X76870D01*
X79823D02*
X76870D01*
X79823Y57146D02*
Y59784D02*
X76870D01*
X79823D02*
X76870D01*
X79823Y60689D02*
Y63327D02*
X76870D01*
X79823D02*
X76870D01*
X79823Y64232D02*
X81457Y56693D02*
G75*
G03*
X81496I20J0D01*
G01*
X81457Y60236D02*
G75*
G03*
X81496I20J0D01*
G01*
X81457Y63780D02*
G75*
G03*
X81496I20J0D01*
G01*
Y56693D02*
G75*
G02*
X81457I-19J0D01*
G01*
X81496D02*
G75*
G03*
X81457I-19J0D01*
G01*
X81496D02*
Y60236D02*
G75*
G02*
X81457I-19J0D01*
G01*
X81496D02*
G75*
G03*
X81457I-19J0D01*
G01*
X81496D02*
Y63780D02*
G75*
G02*
X81457I-19J0D01*
G01*
X81496D02*
G75*
G03*
X81457I-19J0D01*
G01*
X81496D02*
D02*
D138*
X49838Y14926D02*
X49809Y14956D01*
X49750Y14985D01*
X49662D01*
X49603Y14956D01*
X49573Y14926D01*
X49544Y14868D01*
Y14750D01*
X49573Y14691D01*
X49603Y14662D01*
X49662Y14632D01*
X49750D01*
X49809Y14662D01*
X49838Y14691D01*
X49949Y14632D02*
X49949Y14985D01*
X50243D01*
X50354D02*
X50354Y14632D01*
X50501Y14809D01*
X50648Y14632D01*
Y14985D01*
X50759Y14868D02*
X50994Y14868D01*
X51158Y14985D02*
X51275Y14985D01*
X51217D02*
X51217Y14632D01*
X51158Y14691D01*
X51498Y14985D02*
X51615Y14985D01*
X51557D02*
X51557Y14632D01*
X51498Y14691D01*
X51867Y14809D02*
X51926Y14809D01*
X51985Y14779D01*
X52014Y14720D01*
X51985Y14662D01*
X51926Y14632D01*
X51867D01*
X51808Y14662D01*
X51779Y14720D01*
X51808Y14779D01*
X51867Y14809D01*
X51808Y14838D01*
X51779Y14897D01*
X51808Y14956D01*
X51867Y14985D01*
X51926D01*
X51985Y14956D01*
X52014Y14897D01*
X51985Y14838D01*
X51926Y14809D01*
X52119Y14868D02*
X52354Y14868D01*
X52488Y14956D02*
X52547Y14985D01*
X52606D01*
X52665Y14956D01*
X52694Y14897D01*
Y14720D01*
X52665Y14662D01*
X52606Y14632D01*
X52547D01*
X52488Y14662D01*
X52459Y14720D01*
Y14897D01*
X52488Y14956D01*
X52665Y14662D01*
X53034Y14985D02*
X52799Y14985D01*
X53005Y14779D01*
X53034Y14720D01*
X53005Y14662D01*
X52946Y14632D01*
X52858D01*
X52799Y14662D01*
X53139Y14868D02*
X53374Y14868D01*
X53479Y14985D02*
X53479Y14632D01*
X53773D01*
X53714Y14809D02*
X53479Y14809D01*
X53884Y14868D02*
X54119Y14868D01*
X54224Y14985D02*
X54224Y14632D01*
X54400D01*
X54459Y14662D01*
X54489Y14691D01*
X54518Y14750D01*
Y14868D01*
X54489Y14926D01*
X54459Y14956D01*
X54400Y14985D01*
X54224D01*
X57509Y12894D02*
X57480Y12923D01*
X57451Y12982D01*
X57480Y13041D01*
X57509Y13070D01*
X57804D01*
Y13129D01*
Y13070D02*
X57804Y12953D01*
X57451Y13322D02*
X57480Y13381D01*
X57539Y13440D01*
X57627Y13469D01*
X57715D01*
X57774Y13440D01*
X57804Y13381D01*
Y13322D01*
X57774Y13263D01*
X57715Y13234D01*
X57657Y13263D01*
X57627Y13322D01*
Y13381D01*
X57657Y13440D01*
X57715Y13469D01*
X58248Y38572D02*
X58219Y38543D01*
X58160Y38514D01*
X58101Y38543D01*
X58072Y38572D01*
Y38867D01*
X58013D01*
X58072D02*
X58189Y38867D01*
X57908Y38514D02*
X57908Y38867D01*
X57702D01*
X57644Y38837D01*
X57614Y38778D01*
X57644Y38720D01*
X57702Y38690D01*
X57908D01*
X57444Y38514D02*
X57327Y38514D01*
X57386D02*
X57386Y38867D01*
X57444Y38808D01*
X58288Y42096D02*
X58258Y42067D01*
X58199Y42037D01*
X58141Y42067D01*
X58111Y42096D01*
Y42390D01*
X58052D01*
X58111D02*
X58229Y42390D01*
X57948Y42037D02*
X57948Y42390D01*
X57742D01*
X57683Y42361D01*
X57653Y42302D01*
X57683Y42243D01*
X57742Y42214D01*
X57948D01*
X57307Y42037D02*
X57543Y42037D01*
X57337Y42243D01*
X57307Y42302D01*
X57337Y42361D01*
X57396Y42390D01*
X57484D01*
X57543Y42361D01*
X79055Y29498D02*
X79026Y29468D01*
X78967Y29439D01*
X78908Y29468D01*
X78879Y29498D01*
Y29792D01*
X78820D01*
X78879D02*
X78996Y29792D01*
X78715Y29439D02*
X78715Y29792D01*
X78509D01*
X78451Y29762D01*
X78421Y29704D01*
X78451Y29645D01*
X78509Y29615D01*
X78715D01*
X78163Y29439D02*
X78163Y29792D01*
X78310Y29556D01*
X78075D01*
X79154Y33100D02*
X79124Y33071D01*
X79066Y33041D01*
X79007Y33071D01*
X78977Y33100D01*
Y33394D01*
X78918D01*
X78977D02*
X79095Y33394D01*
X78814Y33041D02*
X78814Y33394D01*
X78608D01*
X78549Y33365D01*
X78520Y33306D01*
X78549Y33247D01*
X78608Y33218D01*
X78814D01*
X78379Y33071D02*
X78321Y33041D01*
X78262D01*
X78203Y33071D01*
X78173Y33129D01*
X78203Y33188D01*
X78262Y33218D01*
X78321D01*
X78262D02*
X78203Y33247D01*
X78173Y33306D01*
X78203Y33365D01*
X78262Y33394D01*
X78321D01*
X78379Y33365D01*
X81851Y57923D02*
X81821Y57893D01*
X81762Y57864D01*
X81704Y57893D01*
X81674Y57923D01*
Y58217D01*
X81615D01*
X81674D02*
X81792Y58217D01*
X81511Y57864D02*
X81511Y58217D01*
X81305D01*
X81246Y58188D01*
X81216Y58129D01*
X81246Y58070D01*
X81305Y58040D01*
X81511D01*
X81106Y57893D02*
X81047Y57864D01*
X80959D01*
X80900Y57893D01*
X80870Y57952D01*
Y57982D01*
X80900Y58040D01*
X80959Y58070D01*
X81106D01*
Y58217D01*
X80870D01*
X81890Y64970D02*
X81861Y64941D01*
X81802Y64911D01*
X81743Y64941D01*
X81713Y64970D01*
Y65264D01*
X81655D01*
X81713D02*
X81831Y65264D01*
X81550Y64911D02*
X81550Y65264D01*
X81344D01*
X81285Y65235D01*
X81256Y65176D01*
X81285Y65117D01*
X81344Y65088D01*
X81550D01*
X81145Y64911D02*
X80910Y65264D01*
X81145D01*
X81949Y61387D02*
X81920Y61358D01*
X81861Y61329D01*
X81802Y61358D01*
X81773Y61387D01*
Y61682D01*
X81714D01*
X81773D02*
X81890Y61682D01*
X81609Y61329D02*
X81609Y61682D01*
X81403D01*
X81344Y61652D01*
X81315Y61593D01*
X81344Y61534D01*
X81403Y61505D01*
X81609D01*
X81204Y61417D02*
X81175Y61476D01*
X81116Y61505D01*
X81057D01*
X80998Y61476D01*
X80969Y61417D01*
X80998Y61358D01*
X81057Y61329D01*
X81116D01*
X81175Y61358D01*
X81204Y61417D01*
Y61505D01*
X81175Y61593D01*
X81116Y61652D01*
X81057Y61682D01*
D02*
D139*
X57583Y13939D02*
G75*
G02*
X57504I-39J0D01*
G01*
G75*
G02*
X57583I40J0D01*
G01*
D02*
D140*
X57985Y13770D02*
X57893Y13770D01*
X57939D02*
X57939Y14048D01*
X57985Y14002D01*
X0Y0D02*
M02*
