M48
FMAT,1
INCH
T01C00.0157
T02C00.0315
T03C00.0512
T04C00.0551
T05C00.0669
T06C00.0748
T07C00.0906
T08C00.0984
%
G81
M70
T01
X3436Y53888
X4196Y26907
X4423Y69585
X4461Y39740
X4834Y59275
X5113Y33124
X5290Y34973
X5509Y23921
X5694Y57808
X6063Y46297
X6429Y65765
X6943Y61966
X7047Y42134
X7121Y35710
X7294Y67598
X7425Y50830
X8406Y25197
X8996Y23524
X8996Y31595
X9581Y46592
X9667Y33026
X10187Y41580
X10451Y64862
X10711Y21336
X11162Y35295
X11162Y37953
X11752Y23524
X11752Y31595
X11925Y53835
X12100Y40373
X12473Y70134
X12599Y66190
X12742Y32722
X12838Y43258
X12933Y23524
X12933Y31575
X13701Y55645
X14083Y46856
X15295Y23524
X15295Y31614
X15689Y23524
X15689Y31595
X15944Y43011
X15945Y25197
X16352Y58374
X16625Y66930
X16978Y61784
X17473Y33670
X18488Y69586
X18574Y31092
X18730Y50210
X19094Y51967
X19523Y25531
X19638Y46674
X19772Y64780
X19854Y40186
X20339Y62875
X20409Y27702
X20669Y41831
X20669Y44567
X20916Y32864
X22559Y62540
X22630Y52990
X22795Y56693
X22815Y53937
X22838Y58057
X22884Y24153
X22990Y70009
X23209Y70925
X23347Y33977
X23347Y36752
X23347Y39331
X23721Y29528
X23809Y59849
X24095Y26772
X24218Y35984
X24277Y72653
X24843Y26772
X24843Y29528
X24862Y40020
X24882Y46044
X24882Y56697
X24902Y52421
X24912Y35689
X24912Y41713
X25464Y25720
X25773Y30718
X25847Y50748
X25984Y40630
X26024Y46654
X26358Y39331
X26398Y53937
X26932Y41179
X27362Y62540
X27402Y46346
X27559Y54921
X27648Y23894
X27697Y36752
X28032Y45394
X28071Y37264
X28169Y70925
X28324Y30459
X28484Y57343
X28799Y45394
X28922Y65857
X29134Y58544
X29189Y52736
X29478Y58802
X29666Y44095
X29784Y46929
X29784Y60236
X29784Y62559
X29784Y64882
X30079Y37362
X30079Y38445
X30199Y40146
X30295Y51516
X30591Y42795
X30610Y45394
X30629Y46129
X30671Y68869
X31319Y35433
X31319Y42323
X31497Y22485
X31673Y35807
X31997Y27909
X32264Y34488
X32284Y40689
X32618Y37481
X32638Y43662
X33071Y63898
X33248Y38662
X33268Y44862
X33838Y47583
X34173Y35807
X34576Y57240
X34766Y24384
X35277Y46038
X35319Y28723
X35374Y69390
X35374Y70394
X35374Y71398
X35630Y23484
X35667Y33533
X35886Y22225
X36004Y23858
X36103Y63898
X36116Y66364
X36378Y24606
X36870Y24232
X37315Y68579
X38347Y23484
X38839Y23858
X40197Y24606
X40571Y24232
X41213Y26264
X42183Y51373
X42444Y30798
X42460Y41754
X43797Y50188
X44074Y45298
X44092Y24202
X44148Y72651
X44469Y70414
X44469Y71398
X44905Y36097
X46118Y22846
X46337Y56822
X46340Y15248
X46934Y71843
X47003Y40922
X47073Y36321
X47529Y30310
X47553Y42817
X47566Y49185
X47933Y49626
X48409Y26217
X48615Y71052
X48694Y53463
X49252Y59252
X49547Y53406
X49617Y11573
X49626Y70276
X50197Y11811
X50197Y31496
X50270Y15484
X50555Y39559
X50583Y62481
X50984Y11614
X50984Y34646
X51378Y11811
X51378Y34843
X51586Y4950
X51655Y43605
X51772Y11614
X51961Y47298
X52136Y64641
X52166Y11811
X52166Y31496
X52234Y25784
X52559Y11614
X52781Y58433
X52883Y53849
X52953Y11811
X52953Y31496
X53169Y44975
X53322Y35593
X53347Y11614
X53680Y44551
X53740Y11831
X53740Y31496
X54134Y11614
X54134Y31299
X54190Y54013
X54528Y11811
X54528Y31496
X54528Y47855
X54949Y61915
X55193Y10824
X55315Y11614
X55315Y31496
X55315Y34646
X55374Y49646
X55480Y37645
X55709Y11811
X55709Y34843
X55925Y53406
X55985Y65758
X56103Y11614
X56103Y34646
X56496Y11811
X56496Y34843
X56890Y11614
X56890Y34646
X56923Y70834
X56987Y6683
X56988Y57028
X57134Y57845
X57224Y47766
X57540Y53406
X58511Y12157
X58603Y5702
X58726Y17050
X58765Y66823
X59036Y50144
X59090Y22719
X59154Y39370
X59331Y47736
X59636Y58957
X60356Y29395
X60428Y70707
X60851Y50801
X60945Y47736
X61111Y26484
X61221Y66732
X61653Y56534
X62264Y45473
X62343Y60668
X62481Y53166
X62481Y54173
X62481Y54666
X62708Y32536
X62825Y25203
X62973Y64410
X63130Y58386
X63314Y59812
X63707Y43036
X64253Y24726
X64311Y34281
X64508Y46673
X64587Y64429
X64666Y35807
X64744Y58386
X65151Y38344
X65180Y67812
X65276Y46673
X65847Y53666
X65866Y54173
X65945Y60788
X66437Y58406
X66720Y21138
X67736Y53662
X68524Y58406
X68524Y60788
X68599Y69606
X68714Y55576
X68812Y67261
X68923Y27445
X69097Y34611
X69272Y58406
X69272Y60788
X69508Y69764
X69685Y31890
X69784Y22697
X69961Y66339
X70473Y28347
X70512Y66339
X70512Y69764
X71044Y49902
X71162Y44475
X71184Y33732
X71299Y46750
X71516Y69764
X71772Y44351
X71929Y42047
X71949Y39764
X72166Y50492
X72266Y53075
X72520Y69764
X73021Y23151
X73504Y69764
X73583Y42047
X73739Y38494
X74528Y69764
X74666Y40847
X74666Y41839
X74843Y35650
X75000Y56693
X75000Y60197
X75237Y33520
X75469Y59231
X75512Y69764
X76201Y65000
X76490Y21988
X76516Y69764
X76539Y27891
X77877Y38614
X78091Y39839
X78091Y41839
X78110Y35669
X78169Y57579
X78272Y53713
X78371Y33651
X78504Y40847
X78682Y49384
X79523Y64846
X79941Y43858
X80345Y26763
X80453Y38839
X80453Y41162
X81673Y32933
X81720Y62669
X82047Y29390
X82303Y54232
X82360Y57104
X82677Y56693
X83051Y69784
X83733Y60942
X83740Y60236
X84036Y69784
X84525Y38128
X84646Y63780
X85020Y69784
X85737Y66655
X86024Y69784
X86044Y55276
X86488Y56519
X86673Y32658
X87028Y69784
X87233Y26929
X87520Y46851
X87520Y65748
X87658Y29567
X87851Y38997
X88051Y69784
X88272Y24149
X88740Y46870
X88799Y28977
X89055Y69784
X89067Y37184
X89114Y64784
X90040Y69784
X90044Y65748
X90141Y63944
X90414Y32579
X90577Y42551
X91024Y69784
X91044Y66280
X91319Y38366
X91457Y33169
X91496Y54232
X91555Y55276
X91821Y55805
X91851Y36614
X92011Y47478
X92047Y69784
X92081Y50589
X92618Y58662
X92837Y44272
X92952Y25131
X93032Y69784
X93092Y46238
X93347Y42559
X93563Y25512
X93678Y33922
X93957Y29567
X93957Y30591
X94044Y69784
X95564Y22999
X96129Y21221
X96162Y55906
X97677Y70000
X97780Y47111
X97938Y67342
X98437Y27318
X98557Y68616
X98615Y44365
X98975Y37366
X100706Y58099
X101660Y40177
X101752Y51969
X101752Y52973
X101752Y53957
X101752Y54961
X101752Y55965
X101769Y50237
X102138Y66370
X102984Y57599
X103698Y71905
X103716Y25492
X104080Y35824
T02
X90551Y60807
X90571Y63071
X90807Y27697
X92106Y63819
X92914Y63504
X93957Y60689
X95335Y40906
X96260Y46437
X98209Y36782
X98229Y60788
X98229Y63071
X99784Y63819
X99862Y26162
X100591Y63504
X101634Y60689
X101831Y26162
X101969Y48327
X103445Y64941
T03
X47914Y62772
X47914Y70772
X55906Y62772
X55906Y70772
T04
X100453Y35453
X100453Y37618
T05
X101221Y70000
X101969Y44784
T06
X51063Y44252
X56024Y44252
X59725Y70374
X64685Y70374
X98366Y22441
X99937Y44784
X101221Y67969
X103327Y22441
T07
X89599Y24914
X94772Y24914
T08
X46851Y3544
X60236Y3544
M30
